{"buffers":[{"uri":"LSA_1u.bin","byteLength":197304}],"asset":{"version":"2.0","generator":"gltfpack 0.16"},"bufferViews":[{"buffer":0,"byteOffset":0,"byteLength":70260,"byteStride":12,"target":34962},{"buffer":0,"byteOffset":70260,"byteLength":70260,"byteStride":12,"target":34962},{"buffer":0,"byteOffset":140520,"byteLength":56784,"target":34963}],"accessors":[{"bufferView":0,"byteOffset":0,"componentType":5126,"count":2998,"type":"VEC3","min":[-0.894410014,0.189989999,-0.891939998],"max":[0.894500017,0.592109978,0.894990027]},{"bufferView":1,"byteOffset":0,"componentType":5126,"count":2998,"type":"VEC3"},{"bufferView":2,"byteOffset":0,"componentType":5123,"count":15168,"type":"SCALAR"},{"bufferView":0,"byteOffset":35976,"componentType":5126,"count":2857,"type":"VEC3","min":[-0.370000005,0,-0.369509995],"max":[0.370000005,0.449990004,0.369509995]},{"bufferView":1,"byteOffset":35976,"componentType":5126,"count":2857,"type":"VEC3"},{"bufferView":2,"byteOffset":30336,"componentType":5123,"count":13224,"type":"SCALAR"}],"materials":[{"pbrMetallicRoughness":{"baseColorFactor":[0.227450982,0.227450982,0.23137255,1],"metallicFactor":0},"doubleSided":true}],"meshes":[{"primitives":[{"attributes":{"POSITION":0,"NORMAL":1},"mode":4,"indices":2,"material":0}]},{"primitives":[{"attributes":{"POSITION":3,"NORMAL":4},"mode":4,"indices":5,"material":0}]}],"nodes":[{"mesh":0},{"mesh":1},{"children":[0]},{"name":"LSA-Stem v3","children":[1]}],"scenes":[{"nodes":[2,3]}]}