{"buffers":[{"uri":"Choc-Homing.bin","byteLength":151608}],"asset":{"version":"2.0","generator":"gltfpack 0.16"},"bufferViews":[{"buffer":0,"byteOffset":0,"byteLength":65832,"byteStride":12,"target":34962},{"buffer":0,"byteOffset":65832,"byteLength":65832,"byteStride":12,"target":34962},{"buffer":0,"byteOffset":131664,"byteLength":19944,"target":34963}],"accessors":[{"bufferView":0,"byteOffset":0,"componentType":5126,"count":4318,"type":"VEC3","min":[-0.75,-0.0500000007,-0.75],"max":[0.75,0.209989995,0.75]},{"bufferView":1,"byteOffset":0,"componentType":5126,"count":4318,"type":"VEC3"},{"bufferView":2,"byteOffset":0,"componentType":5123,"count":6720,"type":"SCALAR"},{"bufferView":0,"byteOffset":51816,"componentType":5126,"count":1168,"type":"VEC3","min":[-0.375,-0.34999001,-0.174989998],"max":[0.375,0.00999000017,0.174989998]},{"bufferView":1,"byteOffset":51816,"componentType":5126,"count":1168,"type":"VEC3"},{"bufferView":2,"byteOffset":13440,"componentType":5123,"count":3252,"type":"SCALAR"}],"materials":[{"pbrMetallicRoughness":{"baseColorFactor":[0.627451003,0.627451003,0.627451003,1],"metallicFactor":0},"doubleSided":true},{"pbrMetallicRoughness":{"baseColorFactor":[0.227450982,0.227450982,0.23137255,1],"metallicFactor":0},"doubleSided":true}],"meshes":[{"primitives":[{"attributes":{"POSITION":0,"NORMAL":1},"mode":4,"indices":2,"material":0}]},{"primitives":[{"attributes":{"POSITION":3,"NORMAL":4},"mode":4,"indices":5,"material":1}]}],"nodes":[{"mesh":0},{"mesh":1},{"children":[0]},{"name":"Choc-Stem v5","children":[1]}],"scenes":[{"nodes":[2,3]}]}