{"buffers":[{"uri":"Cherry.bin","byteLength":570360}],"asset":{"version":"2.0","generator":"gltfpack 0.16"},"bufferViews":[{"buffer":0,"byteOffset":0,"byteLength":204768,"byteStride":12,"target":34962},{"buffer":0,"byteOffset":204768,"byteLength":204768,"byteStride":12,"target":34962},{"buffer":0,"byteOffset":409536,"byteLength":160824,"target":34963}],"accessors":[{"bufferView":0,"byteOffset":0,"componentType":5126,"count":4043,"type":"VEC3","min":[-0.903166592,-8.44915788e-15,-4.71345997],"max":[0.899943411,0.994570017,-2.90770006]},{"bufferView":1,"byteOffset":0,"componentType":5126,"count":4043,"type":"VEC3"},{"bufferView":2,"byteOffset":0,"componentType":5123,"count":18978,"type":"SCALAR"},{"bufferView":0,"byteOffset":48516,"componentType":5126,"count":4197,"type":"VEC3","min":[-0.902166545,-1.59124152e-14,-2.81345987],"max":[0.898943424,0.789170027,-1.00900996]},{"bufferView":1,"byteOffset":48516,"componentType":5126,"count":4197,"type":"VEC3"},{"bufferView":2,"byteOffset":37956,"componentType":5123,"count":19758,"type":"SCALAR"},{"bufferView":0,"byteOffset":98880,"componentType":5126,"count":4334,"type":"VEC3","min":[-0.901806593,-2.33802591e-14,-0.913459957],"max":[0.898583412,0.734179974,0.89042002]},{"bufferView":1,"byteOffset":98880,"componentType":5126,"count":4334,"type":"VEC3"},{"bufferView":2,"byteOffset":77472,"componentType":5123,"count":20466,"type":"SCALAR"},{"bufferView":0,"byteOffset":150888,"componentType":5126,"count":4490,"type":"VEC3","min":[-0.902606547,-3.08560584e-14,0.98654002],"max":[0.899383426,0.857829988,2.79117012]},{"bufferView":1,"byteOffset":150888,"componentType":5126,"count":4490,"type":"VEC3"},{"bufferView":2,"byteOffset":118404,"componentType":5123,"count":21210,"type":"SCALAR"}],"materials":[{"pbrMetallicRoughness":{"baseColorFactor":[0.627451003,0.627451003,0.627451003,1],"metallicFactor":0},"doubleSided":true}],"meshes":[{"primitives":[{"attributes":{"POSITION":0,"NORMAL":1},"mode":4,"indices":2,"material":0}]},{"primitives":[{"attributes":{"POSITION":3,"NORMAL":4},"mode":4,"indices":5,"material":0}]},{"primitives":[{"attributes":{"POSITION":6,"NORMAL":7},"mode":4,"indices":8,"material":0}]},{"primitives":[{"attributes":{"POSITION":9,"NORMAL":10},"mode":4,"indices":11,"material":0}]}],"nodes":[{"mesh":0},{"mesh":1},{"mesh":2},{"mesh":3},{"name":"Cherry v3","children":[0]},{"name":"CHR-R2 v7","children":[1]},{"name":"CHR-R3 v7","children":[2]},{"name":"CHR-R4 v7","children":[3]}],"scenes":[{"nodes":[4,5,6,7]}]}