{"buffers":[{"uri":"Chicago Steno.bin","byteLength":12476640}],"asset":{"version":"2.0","generator":"gltfpack 0.16"},"bufferViews":[{"buffer":0,"byteOffset":0,"byteLength":5319024,"byteStride":12,"target":34962},{"buffer":0,"byteOffset":5319024,"byteLength":5319024,"byteStride":12,"target":34962},{"buffer":0,"byteOffset":10638048,"byteLength":1838592,"target":34963}],"accessors":[{"bufferView":0,"byteOffset":0,"componentType":5126,"count":86604,"type":"VEC3","min":[-0.855482459,-0.0684926063,-0.850003779],"max":[0.874417543,0.502887368,0.760176241]},{"bufferView":1,"byteOffset":0,"componentType":5126,"count":86604,"type":"VEC3"},{"bufferView":2,"byteOffset":0,"componentType":5125,"count":89988,"type":"SCALAR"},{"bufferView":0,"byteOffset":1039248,"componentType":5126,"count":88830,"type":"VEC3","min":[-0.853982449,-0.0643875375,0.804754972],"max":[0.875927508,0.612422466,2.41490507]},{"bufferView":1,"byteOffset":1039248,"componentType":5126,"count":88830,"type":"VEC3"},{"bufferView":2,"byteOffset":359952,"componentType":5125,"count":92082,"type":"SCALAR"},{"bufferView":0,"byteOffset":2105208,"componentType":5126,"count":89494,"type":"VEC3","min":[-0.858882487,-0.0654229,2.45891666],"max":[0.871027529,0.783827126,4.06903648]},{"bufferView":1,"byteOffset":2105208,"componentType":5126,"count":89494,"type":"VEC3"},{"bufferView":2,"byteOffset":728280,"componentType":5125,"count":92748,"type":"SCALAR"},{"bufferView":0,"byteOffset":3179136,"componentType":5126,"count":89494,"type":"VEC3","min":[-0.858877897,-0.0654229,-4.16529512],"max":[0.871032119,0.783827126,-2.5551753]},{"bufferView":1,"byteOffset":3179136,"componentType":5126,"count":89494,"type":"VEC3"},{"bufferView":2,"byteOffset":1099272,"componentType":5125,"count":92748,"type":"SCALAR"},{"bufferView":0,"byteOffset":4253064,"componentType":5126,"count":88830,"type":"VEC3","min":[-0.863777876,-0.0643875375,-2.51116371],"max":[0.86613214,0.612422466,-0.901013672]},{"bufferView":1,"byteOffset":4253064,"componentType":5126,"count":88830,"type":"VEC3"},{"bufferView":2,"byteOffset":1470264,"componentType":5125,"count":92082,"type":"SCALAR"}],"materials":[{"pbrMetallicRoughness":{"baseColorFactor":[0.627451003,0.627451003,0.627451003,1],"metallicFactor":0},"doubleSided":true}],"meshes":[{"primitives":[{"attributes":{"POSITION":0,"NORMAL":1},"mode":4,"indices":2,"material":0}]},{"primitives":[{"attributes":{"POSITION":3,"NORMAL":4},"mode":4,"indices":5,"material":0}]},{"primitives":[{"attributes":{"POSITION":6,"NORMAL":7},"mode":4,"indices":8,"material":0}]},{"primitives":[{"attributes":{"POSITION":9,"NORMAL":10},"mode":4,"indices":11,"material":0}]},{"primitives":[{"attributes":{"POSITION":12,"NORMAL":13},"mode":4,"indices":14,"material":0}]}],"nodes":[{"mesh":0},{"mesh":1},{"mesh":2},{"mesh":3},{"mesh":4},{"name":"KLP-Chicago_Steno-14 v5","children":[0]},{"name":"KLP-Chicago-Steno-15 v4","children":[1]},{"name":"KLP-Chicago-Steno-16 v4","children":[2]},{"name":"KLP-Chicago-Steno-16 v4","children":[3]},{"name":"KLP-Chicago-Steno-15 v4","children":[4]}],"scenes":[{"nodes":[5,6,7,8,9]}]}