{"buffers":[{"uri":"Choc-Holder.bin","byteLength":39960}],"asset":{"version":"2.0","generator":"gltfpack 0.16"},"bufferViews":[{"buffer":0,"byteOffset":0,"byteLength":16032,"byteStride":12,"target":34962},{"buffer":0,"byteOffset":16032,"byteLength":16032,"byteStride":12,"target":34962},{"buffer":0,"byteOffset":32064,"byteLength":7896,"target":34963}],"accessors":[{"bufferView":0,"byteOffset":0,"componentType":5126,"count":1336,"type":"VEC3","min":[-1.10000002,0,-1.04999006],"max":[1.10000002,0.600000024,1.04999006]},{"bufferView":1,"byteOffset":0,"componentType":5126,"count":1336,"type":"VEC3"},{"bufferView":2,"byteOffset":0,"componentType":5123,"count":3948,"type":"SCALAR"}],"materials":[{"pbrMetallicRoughness":{"baseColorFactor":[0.227450982,0.227450982,0.23137255,1],"metallicFactor":0},"doubleSided":true}],"meshes":[{"primitives":[{"attributes":{"POSITION":0,"NORMAL":1},"mode":4,"indices":2,"material":0}]}],"nodes":[{"mesh":0},{"children":[0]}],"scenes":[{"nodes":[1]}]}