{"accessors" : [{"bufferView" : 0, "byteOffset" : 0, "componentType" : 5123, "count" : 10506, "type" : "SCALAR", "max" : [2746], "min" : [0]}, {"bufferView" : 1, "byteOffset" : 0, "componentType" : 5126, "count" : 2747, "type" : "VEC3", "max" : [0.2995107173919678, 0.550000011920929, 0.2998776435852051], "min" : [-0.30000001192092896, 0, -0.2998776435852051], "name" : "POSITION"}, {"bufferView" : 1, "byteOffset" : 12, "componentType" : 5126, "count" : 2747, "type" : "VEC3", "max" : [1.0000044107437134, 1.0000044107437134, 1.0000044107437134], "min" : [-1.0000044107437134, -1.0000044107437134, -1.0000044107437134], "name" : "NORMAL"}, {"bufferView" : 1, "byteOffset" : 24, "componentType" : 5126, "count" : 2747, "type" : "VEC2", "max" : [0.47999998927116394, 1.942477822303772], "min" : [-0.5400000214576721, 0.05752217769622803], "name" : "TEXCOORD_0"}, {"bufferView" : 0, "byteOffset" : 21012, "componentType" : 5123, "count" : 5394, "type" : "SCALAR", "max" : [1325], "min" : [0]}, {"bufferView" : 2, "byteOffset" : 0, "componentType" : 5126, "count" : 1326, "type" : "VEC3", "max" : [0.9049999713897705, 0.686894416809082, 0.9050000309944153], "min" : [-0.9049999713897705, -0.10000000149011612, -0.9049999713897705], "name" : "POSITION"}, {"bufferView" : 2, "byteOffset" : 12, "componentType" : 5126, "count" : 1326, "type" : "VEC3", "max" : [1.0000044107437134, 0.998698353767395, 1.0000044107437134], "min" : [-1.0000044107437134, -1.0000044107437134, -1.0000044107437134], "name" : "NORMAL"}, {"bufferView" : 2, "byteOffset" : 24, "componentType" : 5126, "count" : 1326, "type" : "VEC2", "max" : [0.9181157350540161, 4.831563472747803], "min" : [-13.236568450927734, -7.612534523010254], "name" : "TEXCOORD_0"}], "asset" : {"generator" : "Aspose.3D 24.6.0", "version" : "2.0"}, "buffers" : [{"uri" : "buffer.bin", "byteLength" : 162148}], "bufferViews" : [{"buffer" : 0, "byteOffset" : 0, "byteLength" : 31800, "target" : 34963}, {"buffer" : 0, "byteOffset" : 31804, "byteLength" : 87904, "byteStride" : 32, "target" : 34962}, {"buffer" : 0, "byteOffset" : 119712, "byteLength" : 42432, "byteStride" : 32, "target" : 34962}], "cameras" : [{"orthographic" : {"xmag" : 1, "ymag" : 1, "zfar" : 4000, "znear" : 10}, "type" : "orthographic", "name" : "TOP"}], "meshes" : [{"primitives" : [{"attributes" : {"POSITION" : 1, "NORMAL" : 2, "TEXCOORD_0" : 3}, "indices" : 0, "mode" : 4}], "name" : "CHR_R2_Stem"}, {"primitives" : [{"attributes" : {"POSITION" : 5, "NORMAL" : 6, "TEXCOORD_0" : 7}, "indices" : 4, "mode" : 4}], "name" : "Body1"}], "nodes" : [{"camera" : 0, "name" : "CHR_R2_1u"}, {"matrix" : [10, 0, 0, 0, 0, 10, 0, 0, 0, 0, 10, 0, 0, 0, 0, 1], "mesh" : 0, "name" : "CHR_R2_Stem"}, {"children" : [1], "name" : "MeshPrimDef"}, {"matrix" : [10, 0, 0, 0, 0, 10, 0, 0, 0, 0, 10, 0, 0, 0, 0, 1], "mesh" : 1, "name" : "Body1"}, {"children" : [3], "name" : "MeshPrimDef_1"}], "scene" : 0, "scenes" : [{"nodes" : [0, 2, 4]}]}