{"accessors" : [{"bufferView" : 0, "byteOffset" : 0, "componentType" : 5123, "count" : 11022, "type" : "SCALAR", "max" : [2805], "min" : [0]}, {"bufferView" : 1, "byteOffset" : 0, "componentType" : 5126, "count" : 2806, "type" : "VEC3", "max" : [0.30000001192092896, 0.800000011920929, 0.2998577058315277], "min" : [-0.30000001192092896, 0, -0.2998577058315277], "name" : "POSITION"}, {"bufferView" : 1, "byteOffset" : 12, "componentType" : 5126, "count" : 2806, "type" : "VEC3", "max" : [1.0000044107437134, 1.0000044107437134, 1.0000044107437134], "min" : [-1.0000044107437134, -1.0000044107437134, -1.0000044107437134], "name" : "NORMAL"}, {"bufferView" : 1, "byteOffset" : 24, "componentType" : 5126, "count" : 2806, "type" : "VEC2", "max" : [0.4300000071525574, 1.942477822303772], "min" : [-0.7441742420196533, 0.03904223442077637], "name" : "TEXCOORD_0"}, {"bufferView" : 0, "byteOffset" : 22044, "componentType" : 5123, "count" : 5454, "type" : "SCALAR", "max" : [1319], "min" : [0]}, {"bufferView" : 2, "byteOffset" : 0, "componentType" : 5126, "count" : 1320, "type" : "VEC3", "max" : [0.9050000309944153, 0.8802806735038757, 0.9050000309944153], "min" : [-0.9050000309944153, -0.10000000894069672, -0.9049999713897705], "name" : "POSITION"}, {"bufferView" : 2, "byteOffset" : 12, "componentType" : 5126, "count" : 1320, "type" : "VEC3", "max" : [1.0000044107437134, 1.0000044107437134, 1.0000044107437134], "min" : [-1.0000044107437134, -1.0000044107437134, -1.0000044107437134], "name" : "NORMAL"}, {"bufferView" : 2, "byteOffset" : 24, "componentType" : 5126, "count" : 1320, "type" : "VEC2", "max" : [1.1149628162384033, 2.81181001663208], "min" : [-13.232657432556152, -8.017093658447266], "name" : "TEXCOORD_0"}], "asset" : {"generator" : "Aspose.3D 24.6.0", "version" : "2.0"}, "buffers" : [{"uri" : "buffer.bin", "byteLength" : 164996}], "bufferViews" : [{"buffer" : 0, "byteOffset" : 0, "byteLength" : 32952, "target" : 34963}, {"buffer" : 0, "byteOffset" : 32956, "byteLength" : 89792, "byteStride" : 32, "target" : 34962}, {"buffer" : 0, "byteOffset" : 122752, "byteLength" : 42240, "byteStride" : 32, "target" : 34962}], "cameras" : [{"orthographic" : {"xmag" : 1, "ymag" : 1, "zfar" : 4000, "znear" : 10}, "type" : "orthographic", "name" : "TOP"}], "meshes" : [{"primitives" : [{"attributes" : {"POSITION" : 1, "NORMAL" : 2, "TEXCOORD_0" : 3}, "indices" : 0, "mode" : 4}], "name" : "CHR_R1_Stem"}, {"primitives" : [{"attributes" : {"POSITION" : 5, "NORMAL" : 6, "TEXCOORD_0" : 7}, "indices" : 4, "mode" : 4}], "name" : "Body1"}], "nodes" : [{"camera" : 0, "name" : "CHR_R1_1u"}, {"matrix" : [10, 0, 0, 0, 0, 10, 0, 0, 0, 0, 10, 0, 0, 0, 0, 1], "mesh" : 0, "name" : "CHR_R1_Stem"}, {"children" : [1], "name" : "MeshPrimDef"}, {"matrix" : [10, 0, 0, 0, 0, 10, 0, 0, 0, 0, 10, 0, 0, 0, 0, 1], "mesh" : 1, "name" : "Body1"}, {"children" : [3], "name" : "MeshPrimDef_1"}], "scene" : 0, "scenes" : [{"nodes" : [0, 2, 4]}]}