{"accessors" : [{"bufferView" : 0, "byteOffset" : 0, "componentType" : 5123, "count" : 9780, "type" : "SCALAR", "max" : [2512], "min" : [0]}, {"bufferView" : 1, "byteOffset" : 0, "componentType" : 5126, "count" : 2513, "type" : "VEC3", "max" : [0.2750000059604645, 0.5600000023841858, 0.2745347321033478], "min" : [-0.2750000059604645, 0, -0.2745347321033478], "name" : "POSITION"}, {"bufferView" : 1, "byteOffset" : 12, "componentType" : 5126, "count" : 2513, "type" : "VEC3", "max" : [1.0000044107437134, 1.0000044107437134, 1.0000044107437134], "min" : [-1.0000044107437134, -1.0000044107437134, -1.0000044107437134], "name" : "NORMAL"}, {"bufferView" : 1, "byteOffset" : 24, "componentType" : 5126, "count" : 2513, "type" : "VEC2", "max" : [0.4699999988079071, 1.8639379739761353], "min" : [-0.5600000023841858, 0.13606202602386475], "name" : "TEXCOORD_0"}, {"bufferView" : 0, "byteOffset" : 19560, "componentType" : 5123, "count" : 6576, "type" : "SCALAR", "max" : [1594], "min" : [0]}, {"bufferView" : 2, "byteOffset" : 0, "componentType" : 5126, "count" : 1595, "type" : "VEC3", "max" : [0.9050001502037048, 0.7602162957191467, 0.9050000309944153], "min" : [-0.904999852180481, -0.10000000149011612, -0.9049999713897705], "name" : "POSITION"}, {"bufferView" : 2, "byteOffset" : 12, "componentType" : 5126, "count" : 1595, "type" : "VEC3", "max" : [1.0000044107437134, 0.9999228119850159, 1.0000044107437134], "min" : [-1.0000044107437134, -1.0000044107437134, -1.0000044107437134], "name" : "NORMAL"}, {"bufferView" : 2, "byteOffset" : 24, "componentType" : 5126, "count" : 1595, "type" : "VEC2", "max" : [1.8100000619888306, 8.807451248168945], "min" : [-7.571712493896484, -0.809999942779541], "name" : "TEXCOORD_0"}], "asset" : {"generator" : "Aspose.3D 24.6.0", "version" : "2.0"}, "buffers" : [{"uri" : "buffer.bin", "byteLength" : 164180}], "bufferViews" : [{"buffer" : 0, "byteOffset" : 0, "byteLength" : 32712, "target" : 34963}, {"buffer" : 0, "byteOffset" : 32716, "byteLength" : 80416, "byteStride" : 32, "target" : 34962}, {"buffer" : 0, "byteOffset" : 113136, "byteLength" : 51040, "byteStride" : 32, "target" : 34962}], "cameras" : [{"orthographic" : {"xmag" : 1, "ymag" : 1, "zfar" : 4000, "znear" : 10}, "type" : "orthographic", "name" : "TOP"}], "meshes" : [{"primitives" : [{"attributes" : {"POSITION" : 1, "NORMAL" : 2, "TEXCOORD_0" : 3}, "indices" : 0, "mode" : 4}], "name" : "CHR_R4_Stem"}, {"primitives" : [{"attributes" : {"POSITION" : 5, "NORMAL" : 6, "TEXCOORD_0" : 7}, "indices" : 4, "mode" : 4}], "name" : "Body1"}], "nodes" : [{"camera" : 0, "name" : "CHR_R4_1u"}, {"matrix" : [10, 0, 0, 0, 0, 10, 0, 0, 0, 0, 10, 0, 0, 0, 0, 1], "mesh" : 0, "name" : "CHR_R4_Stem"}, {"children" : [1], "name" : "MeshPrimDef"}, {"matrix" : [10, 0, 0, 0, 0, 10, 0, 0, 0, 0, 10, 0, 0, 0, 0, 1], "mesh" : 1, "name" : "Body1"}, {"children" : [3], "name" : "MeshPrimDef_1"}], "scene" : 0, "scenes" : [{"nodes" : [0, 2, 4]}]}