{"accessors" : [{"bufferView" : 0, "byteOffset" : 0, "componentType" : 5123, "count" : 10422, "type" : "SCALAR", "max" : [2733], "min" : [0]}, {"bufferView" : 1, "byteOffset" : 0, "componentType" : 5126, "count" : 2734, "type" : "VEC3", "max" : [0.30000001192092896, 0.49000000953674316, 0.30000001192092896], "min" : [-0.30000001192092896, 0, -0.30000001192092896], "name" : "POSITION"}, {"bufferView" : 1, "byteOffset" : 12, "componentType" : 5126, "count" : 2734, "type" : "VEC3", "max" : [1.0000044107437134, 1.0000044107437134, 1.0000044107437134], "min" : [-1.0000044107437134, -1.0000044107437134, -1.0000044107437134], "name" : "NORMAL"}, {"bufferView" : 1, "byteOffset" : 24, "componentType" : 5126, "count" : 2734, "type" : "VEC2", "max" : [0.46000000834465027, 1.942477822303772], "min" : [-0.47999998927116394, 0.05752217769622803], "name" : "TEXCOORD_0"}, {"bufferView" : 0, "byteOffset" : 20844, "componentType" : 5123, "count" : 6402, "type" : "SCALAR", "max" : [1512], "min" : [0]}, {"bufferView" : 2, "byteOffset" : 0, "componentType" : 5126, "count" : 1513, "type" : "VEC3", "max" : [0.9050000309944153, 0.6322225332260132, 0.9050000309944153], "min" : [-0.9050000309944153, -0.10000000149011612, -0.9049999713897705], "name" : "POSITION"}, {"bufferView" : 2, "byteOffset" : 12, "componentType" : 5126, "count" : 1513, "type" : "VEC3", "max" : [1.0000044107437134, 0.9999226331710815, 1.0000044107437134], "min" : [-1.0000044107437134, -1.0000044107437134, -1.0000044107437134], "name" : "NORMAL"}, {"bufferView" : 2, "byteOffset" : 24, "componentType" : 5126, "count" : 1513, "type" : "VEC2", "max" : [1.032509207725525, 5.83660888671875], "min" : [-13.23999309539795, -7.576390266418457], "name" : "TEXCOORD_0"}], "asset" : {"generator" : "Aspose.3D 24.6.0", "version" : "2.0"}, "buffers" : [{"uri" : "buffer.bin", "byteLength" : 169564}], "bufferViews" : [{"buffer" : 0, "byteOffset" : 0, "byteLength" : 33648, "target" : 34963}, {"buffer" : 0, "byteOffset" : 33652, "byteLength" : 87488, "byteStride" : 32, "target" : 34962}, {"buffer" : 0, "byteOffset" : 121144, "byteLength" : 48416, "byteStride" : 32, "target" : 34962}], "cameras" : [{"orthographic" : {"xmag" : 1, "ymag" : 1, "zfar" : 4000, "znear" : 10}, "type" : "orthographic", "name" : "TOP"}], "meshes" : [{"primitives" : [{"attributes" : {"POSITION" : 1, "NORMAL" : 2, "TEXCOORD_0" : 3}, "indices" : 0, "mode" : 4}], "name" : "CHR_R3_Stem"}, {"primitives" : [{"attributes" : {"POSITION" : 5, "NORMAL" : 6, "TEXCOORD_0" : 7}, "indices" : 4, "mode" : 4}], "name" : "Body1"}], "nodes" : [{"camera" : 0, "name" : "CHR_R3_1u"}, {"matrix" : [10, 0, 0, 0, 0, 10, 0, 0, 0, 0, 10, 0, 0, 0, 0, 1], "mesh" : 0, "name" : "CHR_R3_Stem"}, {"children" : [1], "name" : "MeshPrimDef"}, {"matrix" : [10, 0, 0, 0, 0, 10, 0, 0, 0, 0, 10, 0, 0, 0, 0, 1], "mesh" : 1, "name" : "Body1"}, {"children" : [3], "name" : "MeshPrimDef_1"}], "scene" : 0, "scenes" : [{"nodes" : [0, 2, 4]}]}