{"buffers":[{"uri":"Cover.bin","byteLength":4440}],"asset":{"version":"2.0","generator":"gltfpack 0.16"},"bufferViews":[{"buffer":0,"byteOffset":0,"byteLength":1788,"byteStride":12,"target":34962},{"buffer":0,"byteOffset":1788,"byteLength":1788,"byteStride":12,"target":34962},{"buffer":0,"byteOffset":3576,"byteLength":864,"target":34963}],"accessors":[{"bufferView":0,"byteOffset":0,"componentType":5126,"count":149,"type":"VEC3","min":[-0.881680012,0,-0.40546],"max":[0.881680012,0.425550014,0.681360006]},{"bufferView":1,"byteOffset":0,"componentType":5126,"count":149,"type":"VEC3"},{"bufferView":2,"byteOffset":0,"componentType":5123,"count":432,"type":"SCALAR"}],"materials":[{"pbrMetallicRoughness":{"baseColorFactor":[0.627451003,0.627451003,0.627451003,1],"metallicFactor":0},"doubleSided":true}],"meshes":[{"primitives":[{"attributes":{"POSITION":0,"NORMAL":1},"mode":4,"indices":2,"material":0}]}],"nodes":[{"mesh":0},{"children":[0]}],"scenes":[{"nodes":[1]}]}