{"buffers":[{"uri":"DCS.bin","byteLength":1568640}],"asset":{"version":"2.0","generator":"gltfpack 0.16"},"bufferViews":[{"buffer":0,"byteOffset":0,"byteLength":719772,"byteStride":12,"target":34962},{"buffer":0,"byteOffset":719772,"byteLength":719772,"byteStride":12,"target":34962},{"buffer":0,"byteOffset":1439544,"byteLength":129096,"target":34963}],"accessors":[{"bufferView":0,"byteOffset":0,"componentType":5126,"count":13120,"type":"VEC3","min":[-0.909834027,-0.00110999995,2.89656591],"max":[0.905155957,0.87026,4.71155596]},{"bufferView":1,"byteOffset":0,"componentType":5126,"count":13120,"type":"VEC3"},{"bufferView":2,"byteOffset":0,"componentType":5123,"count":13932,"type":"SCALAR"},{"bufferView":0,"byteOffset":157440,"componentType":5126,"count":9342,"type":"VEC3","min":[-0.909834027,-0.00110999995,-2.81842399],"max":[0.905155957,0.690060019,-1.00343406]},{"bufferView":1,"byteOffset":157440,"componentType":5126,"count":9342,"type":"VEC3"},{"bufferView":2,"byteOffset":27864,"componentType":5123,"count":10080,"type":"SCALAR"},{"bufferView":0,"byteOffset":269544,"componentType":5126,"count":8792,"type":"VEC3","min":[-0.909834027,-0.00110999995,-0.913434029],"max":[0.905155957,0.634350002,0.901565969]},{"bufferView":1,"byteOffset":269544,"componentType":5126,"count":8792,"type":"VEC3"},{"bufferView":2,"byteOffset":48024,"componentType":5123,"count":9540,"type":"SCALAR"},{"bufferView":0,"byteOffset":375048,"componentType":5126,"count":9700,"type":"VEC3","min":[-0.909834027,-0.00110999995,-4.72342396],"max":[0.905155957,0.93441999,-2.90843391]},{"bufferView":1,"byteOffset":375048,"componentType":5126,"count":9700,"type":"VEC3"},{"bufferView":2,"byteOffset":67104,"componentType":5123,"count":10500,"type":"SCALAR"},{"bufferView":0,"byteOffset":491448,"componentType":5126,"count":9742,"type":"VEC3","min":[-0.909834027,-0.00110999995,0.991566002],"max":[0.905155957,0.836650014,2.80655599]},{"bufferView":1,"byteOffset":491448,"componentType":5126,"count":9742,"type":"VEC3"},{"bufferView":2,"byteOffset":88104,"componentType":5123,"count":10476,"type":"SCALAR"},{"bufferView":0,"byteOffset":608352,"componentType":5126,"count":9285,"type":"VEC3","min":[-0.909834027,-0.00110999995,-6.62842417],"max":[0.905155957,1.14610004,-4.81343412]},{"bufferView":1,"byteOffset":608352,"componentType":5126,"count":9285,"type":"VEC3"},{"bufferView":2,"byteOffset":109056,"componentType":5123,"count":10020,"type":"SCALAR"}],"materials":[{"pbrMetallicRoughness":{"baseColorFactor":[0.627451003,0.627451003,0.627451003,1],"metallicFactor":0},"doubleSided":true}],"meshes":[{"primitives":[{"attributes":{"POSITION":0,"NORMAL":1},"mode":4,"indices":2,"material":0}]},{"primitives":[{"attributes":{"POSITION":3,"NORMAL":4},"mode":4,"indices":5,"material":0}]},{"primitives":[{"attributes":{"POSITION":6,"NORMAL":7},"mode":4,"indices":8,"material":0}]},{"primitives":[{"attributes":{"POSITION":9,"NORMAL":10},"mode":4,"indices":11,"material":0}]},{"primitives":[{"attributes":{"POSITION":12,"NORMAL":13},"mode":4,"indices":14,"material":0}]},{"primitives":[{"attributes":{"POSITION":15,"NORMAL":16},"mode":4,"indices":17,"material":0}]}],"nodes":[{"mesh":0},{"mesh":1},{"mesh":2},{"mesh":3},{"mesh":4},{"mesh":5},{"name":"DCS v2","children":[0]},{"name":"DCS v2","children":[1]},{"name":"DCS v2","children":[2]},{"name":"DCS v2","children":[3]},{"name":"DCS v2","children":[4]},{"name":"DCS v2","children":[5]}],"scenes":[{"nodes":[6,7,8,9,10,11]}]}