{"buffers":[{"uri":"DES.bin","byteLength":20823768}],"asset":{"version":"2.0","generator":"gltfpack 0.16"},"bufferViews":[{"buffer":0,"byteOffset":0,"byteLength":8836200,"byteStride":12,"target":34962},{"buffer":0,"byteOffset":8836200,"byteLength":8836200,"byteStride":12,"target":34962},{"buffer":0,"byteOffset":17672400,"byteLength":3151368,"target":34963}],"accessors":[{"bufferView":0,"byteOffset":0,"componentType":5126,"count":148086,"type":"VEC3","min":[-0.893580019,0.0304000005,-4.70317984],"max":[0.913689971,1.70322001,-2.89275002]},{"bufferView":1,"byteOffset":0,"componentType":5126,"count":148086,"type":"VEC3"},{"bufferView":2,"byteOffset":0,"componentType":5125,"count":157140,"type":"SCALAR"},{"bufferView":0,"byteOffset":1777032,"componentType":5126,"count":144860,"type":"VEC3","min":[-0.898275793,0.054990001,-2.79753518],"max":[0.908994198,1.11726999,-0.990285277]},{"bufferView":1,"byteOffset":1777032,"componentType":5126,"count":144860,"type":"VEC3"},{"bufferView":2,"byteOffset":628560,"componentType":5125,"count":156420,"type":"SCALAR"},{"bufferView":0,"byteOffset":3515352,"componentType":5126,"count":147167,"type":"VEC3","min":[-0.901215434,0.0499899983,-0.898211002],"max":[0.906054556,0.90872997,0.912949026]},{"bufferView":1,"byteOffset":3515352,"componentType":5126,"count":147167,"type":"VEC3"},{"bufferView":2,"byteOffset":1254240,"componentType":5125,"count":156744,"type":"SCALAR"},{"bufferView":0,"byteOffset":5281356,"componentType":5126,"count":147844,"type":"VEC3","min":[-0.904899776,0.0531399995,0.989817619],"max":[0.902370214,1.15785003,2.79707766]},{"bufferView":1,"byteOffset":5281356,"componentType":5126,"count":147844,"type":"VEC3"},{"bufferView":2,"byteOffset":1881216,"componentType":5125,"count":158784,"type":"SCALAR"},{"bufferView":0,"byteOffset":7055484,"componentType":5126,"count":148393,"type":"VEC3","min":[-0.894660473,0.0507499985,2.85716748],"max":[0.912619531,1.17360997,4.66444731]},{"bufferView":1,"byteOffset":7055484,"componentType":5126,"count":148393,"type":"VEC3"},{"bufferView":2,"byteOffset":2516352,"componentType":5125,"count":158754,"type":"SCALAR"}],"materials":[{"pbrMetallicRoughness":{"baseColorFactor":[0.53725493,0.53725493,0.53725493,1],"metallicFactor":0},"doubleSided":true}],"meshes":[{"primitives":[{"attributes":{"POSITION":0,"NORMAL":1},"mode":4,"indices":2,"material":0}]},{"primitives":[{"attributes":{"POSITION":3,"NORMAL":4},"mode":4,"indices":5,"material":0}]},{"primitives":[{"attributes":{"POSITION":6,"NORMAL":7},"mode":4,"indices":8,"material":0}]},{"primitives":[{"attributes":{"POSITION":9,"NORMAL":10},"mode":4,"indices":11,"material":0}]},{"primitives":[{"attributes":{"POSITION":12,"NORMAL":13},"mode":4,"indices":14,"material":0}]}],"nodes":[{"mesh":0},{"mesh":1},{"mesh":2},{"mesh":3},{"mesh":4},{"name":"DES-MX-R1 v5","children":[0]},{"name":"DES-MX-R2 v10","children":[1]},{"name":"DES-MX-R3 v6","children":[2]},{"name":"DES-MX-R4 v5","children":[3]},{"name":"DES-MX-R5 v6","children":[4]}],"scenes":[{"nodes":[5,6,7,8,9]}]}