{"buffers":[{"uri":"Flexy_O.bin","byteLength":5760}],"asset":{"version":"2.0","generator":"gltfpack 0.16"},"bufferViews":[{"buffer":0,"byteOffset":0,"byteLength":2304,"byteStride":12,"target":34962},{"buffer":0,"byteOffset":2304,"byteLength":2304,"byteStride":12,"target":34962},{"buffer":0,"byteOffset":4608,"byteLength":1152,"target":34963}],"accessors":[{"bufferView":0,"byteOffset":0,"componentType":5126,"count":192,"type":"VEC3","min":[-0.899990022,-0.600000024,-0.899990022],"max":[0.899990022,-0.5,0.899990022]},{"bufferView":1,"byteOffset":0,"componentType":5126,"count":192,"type":"VEC3"},{"bufferView":2,"byteOffset":0,"componentType":5123,"count":576,"type":"SCALAR"}],"materials":[{"pbrMetallicRoughness":{"baseColorFactor":[0.854901969,0.349019617,0.349019617,1],"metallicFactor":0},"doubleSided":true}],"meshes":[{"primitives":[{"attributes":{"POSITION":0,"NORMAL":1},"mode":4,"indices":2,"material":0}]}],"nodes":[{"mesh":0},{"children":[0]}],"scenes":[{"nodes":[1]}]}