{"buffers":[{"uri":"Flex-column-Test-4 v6.bin","byteLength":125436}],"asset":{"version":"2.0","generator":"gltfpack 0.16"},"bufferViews":[{"buffer":0,"byteOffset":0,"byteLength":44796,"byteStride":12,"target":34962},{"buffer":0,"byteOffset":44796,"byteLength":44796,"byteStride":12,"target":34962},{"buffer":0,"byteOffset":89592,"byteLength":35844,"target":34963}],"accessors":[{"bufferView":0,"byteOffset":0,"componentType":5126,"count":3733,"type":"VEC3","min":[-0.952489972,-0.699989974,-1.00250006],"max":[0.952489972,0.5,0.952489972]},{"bufferView":1,"byteOffset":0,"componentType":5126,"count":3733,"type":"VEC3"},{"bufferView":2,"byteOffset":0,"componentType":5123,"count":17922,"type":"SCALAR"}],"materials":[{"pbrMetallicRoughness":{"baseColorFactor":[0.627451003,0.627451003,0.627451003,1],"metallicFactor":0},"doubleSided":true}],"meshes":[{"primitives":[{"attributes":{"POSITION":0,"NORMAL":1},"mode":4,"indices":2,"material":0}]}],"nodes":[{"mesh":0},{"children":[0]}],"scenes":[{"nodes":[1]}]}