{"buffers":[{"uri":"Flex-Holder.bin","byteLength":52380}],"asset":{"version":"2.0","generator":"gltfpack 0.16"},"bufferViews":[{"buffer":0,"byteOffset":0,"byteLength":20040,"byteStride":12,"target":34962},{"buffer":0,"byteOffset":20040,"byteLength":20040,"byteStride":12,"target":34962},{"buffer":0,"byteOffset":40080,"byteLength":12300,"target":34963}],"accessors":[{"bufferView":0,"byteOffset":0,"componentType":5126,"count":1670,"type":"VEC3","min":[-1.21000159,-0.0799899995,-0.960002959],"max":[1.20999837,0.61500001,0.959997058]},{"bufferView":1,"byteOffset":0,"componentType":5126,"count":1670,"type":"VEC3"},{"bufferView":2,"byteOffset":0,"componentType":5123,"count":6150,"type":"SCALAR"}],"materials":[{"pbrMetallicRoughness":{"baseColorFactor":[0.627451003,0.627451003,0.627451003,1],"metallicFactor":0},"doubleSided":true}],"meshes":[{"primitives":[{"attributes":{"POSITION":0,"NORMAL":1},"mode":4,"indices":2,"material":0}]}],"nodes":[{"mesh":0},{"name":"Flex-Keeb v8","children":[0]}],"scenes":[{"nodes":[1]}]}