{"buffers":[{"uri":"Flexy_S.bin","byteLength":235848}],"asset":{"version":"2.0","generator":"gltfpack 0.16"},"bufferViews":[{"buffer":0,"byteOffset":0,"byteLength":86664,"byteStride":12,"target":34962},{"buffer":0,"byteOffset":86664,"byteLength":86664,"byteStride":12,"target":34962},{"buffer":0,"byteOffset":173328,"byteLength":62520,"target":34963}],"accessors":[{"bufferView":0,"byteOffset":0,"componentType":5126,"count":7222,"type":"VEC3","min":[-0.975000024,-0.449990004,-0.925000012],"max":[0.925000012,0.400000006,0.975000024]},{"bufferView":1,"byteOffset":0,"componentType":5126,"count":7222,"type":"VEC3"},{"bufferView":2,"byteOffset":0,"componentType":5123,"count":31260,"type":"SCALAR"}],"materials":[{"pbrMetallicRoughness":{"baseColorFactor":[0.227450982,0.227450982,0.23137255,1],"metallicFactor":0},"doubleSided":true}],"meshes":[{"primitives":[{"attributes":{"POSITION":0,"NORMAL":1},"mode":4,"indices":2,"material":0}]}],"nodes":[{"mesh":0},{"children":[0]}],"scenes":[{"nodes":[1]}]}