{"buffers":[{"uri":"Flexy_H.bin","byteLength":47424}],"asset":{"version":"2.0","generator":"gltfpack 0.16"},"bufferViews":[{"buffer":0,"byteOffset":0,"byteLength":18912,"byteStride":12,"target":34962},{"buffer":0,"byteOffset":18912,"byteLength":18912,"byteStride":12,"target":34962},{"buffer":0,"byteOffset":37824,"byteLength":9600,"target":34963}],"accessors":[{"bufferView":0,"byteOffset":0,"componentType":5126,"count":1576,"type":"VEC3","min":[-0.975000024,0.300000012,-0.975000024],"max":[0.975000024,0.400000006,0.975000024]},{"bufferView":1,"byteOffset":0,"componentType":5126,"count":1576,"type":"VEC3"},{"bufferView":2,"byteOffset":0,"componentType":5123,"count":4800,"type":"SCALAR"}],"materials":[{"pbrMetallicRoughness":{"baseColorFactor":[0.627451003,0.627451003,0.627451003,1],"metallicFactor":0},"doubleSided":true}],"meshes":[{"primitives":[{"attributes":{"POSITION":0,"NORMAL":1},"mode":4,"indices":2,"material":0}]}],"nodes":[{"mesh":0},{"children":[0]}],"scenes":[{"nodes":[1]}]}