{"buffers":[{"uri":"FunkMonk.bin","byteLength":189096}],"asset":{"version":"2.0","generator":"gltfpack 0.16"},"bufferViews":[{"buffer":0,"byteOffset":0,"byteLength":72264,"byteStride":12,"target":34962},{"buffer":0,"byteOffset":72264,"byteLength":72264,"byteStride":12,"target":34962},{"buffer":0,"byteOffset":144528,"byteLength":44568,"target":34963}],"accessors":[{"bufferView":0,"byteOffset":0,"componentType":5126,"count":6022,"type":"VEC3","min":[-0.894999981,-0.0582838394,-0.901634395],"max":[0.894999981,0.48984617,0.888365626]},{"bufferView":1,"byteOffset":0,"componentType":5126,"count":6022,"type":"VEC3"},{"bufferView":2,"byteOffset":0,"componentType":5123,"count":22284,"type":"SCALAR"}],"materials":[{"pbrMetallicRoughness":{"baseColorFactor":[0.196078435,0.196078435,0.196078435,1],"metallicFactor":0},"doubleSided":true}],"meshes":[{"primitives":[{"attributes":{"POSITION":0,"NORMAL":1},"mode":4,"indices":2,"material":0}]}],"nodes":[{"mesh":0},{"name":"FunkMonk-MX v1","children":[0]}],"scenes":[{"nodes":[1]}]}