{"buffers":[{"uri":"G20.bin","byteLength":177960}],"asset":{"version":"2.0","generator":"gltfpack 0.16"},"bufferViews":[{"buffer":0,"byteOffset":0,"byteLength":73752,"byteStride":12,"target":34962},{"buffer":0,"byteOffset":73752,"byteLength":73752,"byteStride":12,"target":34962},{"buffer":0,"byteOffset":147504,"byteLength":30456,"target":34963}],"accessors":[{"bufferView":0,"byteOffset":0,"componentType":5126,"count":6146,"type":"VEC3","min":[-0.906499982,0,-0.906499982],"max":[0.906499982,0.626209974,0.906499982]},{"bufferView":1,"byteOffset":0,"componentType":5126,"count":6146,"type":"VEC3"},{"bufferView":2,"byteOffset":0,"componentType":5123,"count":15228,"type":"SCALAR"}],"materials":[{"pbrMetallicRoughness":{"baseColorFactor":[0.627451003,0.627451003,0.627451003,1],"metallicFactor":0},"doubleSided":true}],"meshes":[{"primitives":[{"attributes":{"POSITION":0,"NORMAL":1},"mode":4,"indices":2,"material":0}]}],"nodes":[{"mesh":0},{"name":"G20 v3","children":[0]}],"scenes":[{"nodes":[1]}]}