{"buffers":[{"uri":"KAM.bin","byteLength":234936}],"asset":{"version":"2.0","generator":"gltfpack 0.16"},"bufferViews":[{"buffer":0,"byteOffset":0,"byteLength":106824,"byteStride":12,"target":34962},{"buffer":0,"byteOffset":106824,"byteLength":106824,"byteStride":12,"target":34962},{"buffer":0,"byteOffset":213648,"byteLength":21288,"target":34963}],"accessors":[{"bufferView":0,"byteOffset":0,"componentType":5126,"count":8902,"type":"VEC3","min":[-0.914990008,0.00999999978,-0.914990008],"max":[0.914990008,0.904020011,0.914990008]},{"bufferView":1,"byteOffset":0,"componentType":5126,"count":8902,"type":"VEC3"},{"bufferView":2,"byteOffset":0,"componentType":5123,"count":10644,"type":"SCALAR"}],"materials":[{"pbrMetallicRoughness":{"baseColorFactor":[0.627451003,0.627451003,0.627451003,1],"metallicFactor":0},"doubleSided":true}],"meshes":[{"primitives":[{"attributes":{"POSITION":0,"NORMAL":1},"mode":4,"indices":2,"material":0}]}],"nodes":[{"mesh":0},{"name":"KAM v4","children":[0]}],"scenes":[{"nodes":[1]}]}