{"buffers":[{"uri":"KAT.bin","byteLength":1795560}],"asset":{"version":"2.0","generator":"gltfpack 0.16"},"bufferViews":[{"buffer":0,"byteOffset":0,"byteLength":790212,"byteStride":12,"target":34962},{"buffer":0,"byteOffset":790212,"byteLength":790212,"byteStride":12,"target":34962},{"buffer":0,"byteOffset":1580424,"byteLength":215136,"target":34963}],"accessors":[{"bufferView":0,"byteOffset":0,"componentType":5126,"count":9188,"type":"VEC3","min":[-0.909580112,-0.00138999999,2.89567447],"max":[0.910409927,1.11669004,4.7221446]},{"bufferView":1,"byteOffset":0,"componentType":5126,"count":9188,"type":"VEC3"},{"bufferView":2,"byteOffset":0,"componentType":5123,"count":16182,"type":"SCALAR"},{"bufferView":0,"byteOffset":110256,"componentType":5126,"count":11235,"type":"VEC3","min":[-0.909580112,-0.00138999999,-4.72333527],"max":[0.910409927,1.15031004,-2.89784551]},{"bufferView":1,"byteOffset":110256,"componentType":5126,"count":11235,"type":"VEC3"},{"bufferView":2,"byteOffset":32364,"componentType":5123,"count":17898,"type":"SCALAR"},{"bufferView":0,"byteOffset":245076,"componentType":5126,"count":10983,"type":"VEC3","min":[-0.909580112,-0.00138999999,0.990674555],"max":[0.910409927,1.05226004,2.81714463]},{"bufferView":1,"byteOffset":245076,"componentType":5126,"count":10983,"type":"VEC3"},{"bufferView":2,"byteOffset":68160,"componentType":5123,"count":17736,"type":"SCALAR"},{"bufferView":0,"byteOffset":376872,"componentType":5126,"count":11605,"type":"VEC3","min":[-0.909580112,-0.00138999999,-2.81931543],"max":[0.910409927,1.04895997,-0.99285543]},{"bufferView":1,"byteOffset":376872,"componentType":5126,"count":11605,"type":"VEC3"},{"bufferView":2,"byteOffset":103632,"componentType":5123,"count":18678,"type":"SCALAR"},{"bufferView":0,"byteOffset":516132,"componentType":5126,"count":11386,"type":"VEC3","min":[-0.909580112,-0.00138999999,-0.914355457],"max":[0.910409927,0.901080012,0.912144542]},{"bufferView":1,"byteOffset":516132,"componentType":5126,"count":11386,"type":"VEC3"},{"bufferView":2,"byteOffset":140988,"componentType":5123,"count":18840,"type":"SCALAR"},{"bufferView":0,"byteOffset":652764,"componentType":5126,"count":11454,"type":"VEC3","min":[-0.909580112,-0.00138999999,-7.50009537],"max":[0.910409927,1.32363999,-5.68009567]},{"bufferView":1,"byteOffset":652764,"componentType":5126,"count":11454,"type":"VEC3"},{"bufferView":2,"byteOffset":178668,"componentType":5123,"count":18234,"type":"SCALAR"}],"materials":[{"pbrMetallicRoughness":{"baseColorFactor":[0.627451003,0.627451003,0.627451003,1],"metallicFactor":0},"doubleSided":true}],"meshes":[{"primitives":[{"attributes":{"POSITION":0,"NORMAL":1},"mode":4,"indices":2,"material":0}]},{"primitives":[{"attributes":{"POSITION":3,"NORMAL":4},"mode":4,"indices":5,"material":0}]},{"primitives":[{"attributes":{"POSITION":6,"NORMAL":7},"mode":4,"indices":8,"material":0}]},{"primitives":[{"attributes":{"POSITION":9,"NORMAL":10},"mode":4,"indices":11,"material":0}]},{"primitives":[{"attributes":{"POSITION":12,"NORMAL":13},"mode":4,"indices":14,"material":0}]},{"primitives":[{"attributes":{"POSITION":15,"NORMAL":16},"mode":4,"indices":17,"material":0}]}],"nodes":[{"mesh":0},{"mesh":1},{"mesh":2},{"mesh":3},{"mesh":4},{"mesh":5},{"name":"KAT v27","children":[0]},{"name":"KAT v27","children":[1]},{"name":"KAT v27","children":[2]},{"name":"KAT v27","children":[3]},{"name":"KAT v27","children":[4]},{"name":"KAT v27","children":[5]}],"scenes":[{"nodes":[6,7,8,9,10,11]}]}