{"buffers":[{"uri":"KEA.bin","byteLength":105552}],"asset":{"version":"2.0","generator":"gltfpack 0.16"},"bufferViews":[{"buffer":0,"byteOffset":0,"byteLength":37968,"byteStride":12,"target":34962},{"buffer":0,"byteOffset":37968,"byteLength":37968,"byteStride":12,"target":34962},{"buffer":0,"byteOffset":75936,"byteLength":29616,"target":34963}],"accessors":[{"bufferView":0,"byteOffset":0,"componentType":5126,"count":1996,"type":"VEC3","min":[-0.875,-0.135000005,-0.824989974],"max":[0.874989986,0.214379996,0.824989974]},{"bufferView":1,"byteOffset":0,"componentType":5126,"count":1996,"type":"VEC3"},{"bufferView":2,"byteOffset":0,"componentType":5123,"count":11556,"type":"SCALAR"},{"bufferView":0,"byteOffset":23952,"componentType":5126,"count":1168,"type":"VEC3","min":[-0.375,-0.34999001,-0.174989998],"max":[0.375,0.00999000017,0.174989998]},{"bufferView":1,"byteOffset":23952,"componentType":5126,"count":1168,"type":"VEC3"},{"bufferView":2,"byteOffset":23112,"componentType":5123,"count":3252,"type":"SCALAR"}],"materials":[{"pbrMetallicRoughness":{"baseColorFactor":[0.517647088,0.517647088,0.517647088,1],"metallicFactor":0},"doubleSided":true},{"pbrMetallicRoughness":{"baseColorFactor":[0.227450982,0.227450982,0.23137255,1],"metallicFactor":0},"doubleSided":true}],"meshes":[{"primitives":[{"attributes":{"POSITION":0,"NORMAL":1},"mode":4,"indices":2,"material":0}]},{"primitives":[{"attributes":{"POSITION":3,"NORMAL":4},"mode":4,"indices":5,"material":1}]}],"nodes":[{"mesh":0},{"mesh":1},{"name":"KEA-CS-M-1u v5","children":[0]},{"name":"Choc-Stem v5","children":[1]}],"scenes":[{"nodes":[2,3]}]}