{"buffers":[{"uri":"Keycap-Placeholder.bin","byteLength":1992}],"asset":{"version":"2.0","generator":"gltfpack 0.16"},"bufferViews":[{"buffer":0,"byteOffset":0,"byteLength":816,"byteStride":12,"target":34962},{"buffer":0,"byteOffset":816,"byteLength":816,"byteStride":12,"target":34962},{"buffer":0,"byteOffset":1632,"byteLength":360,"target":34963}],"accessors":[{"bufferView":0,"byteOffset":0,"componentType":5126,"count":68,"type":"VEC3","min":[-3.9999999e-05,0,-3.9999999e-05],"max":[3.9999999e-05,0.00999000017,3.9999999e-05]},{"bufferView":1,"byteOffset":0,"componentType":5126,"count":68,"type":"VEC3"},{"bufferView":2,"byteOffset":0,"componentType":5123,"count":180,"type":"SCALAR"}],"materials":[{"pbrMetallicRoughness":{"baseColorFactor":[0.627451003,0.627451003,0.627451003,1],"metallicFactor":0},"doubleSided":true}],"meshes":[{"primitives":[{"attributes":{"POSITION":0,"NORMAL":1},"mode":4,"indices":2,"material":0}]}],"nodes":[{"mesh":0},{"children":[0]}],"scenes":[{"nodes":[1]}]}