{"buffers":[{"uri":"Keychron K3.bin","byteLength":388068}],"asset":{"version":"2.0","generator":"gltfpack 0.16"},"bufferViews":[{"buffer":0,"byteOffset":0,"byteLength":170352,"byteStride":12,"target":34962},{"buffer":0,"byteOffset":170352,"byteLength":170352,"byteStride":12,"target":34962},{"buffer":0,"byteOffset":340704,"byteLength":47364,"target":34963}],"accessors":[{"bufferView":0,"byteOffset":0,"componentType":5126,"count":14196,"type":"VEC3","min":[-1.58765256,-0.196163639,-0.806216359],"max":[0.0123374695,0.436576366,0.793773651]},{"bufferView":1,"byteOffset":0,"componentType":5126,"count":14196,"type":"VEC3"},{"bufferView":2,"byteOffset":0,"componentType":5123,"count":23682,"type":"SCALAR"}],"materials":[{"pbrMetallicRoughness":{"baseColorFactor":[0.627451003,0.627451003,0.627451003,1],"metallicFactor":0},"doubleSided":true}],"meshes":[{"primitives":[{"attributes":{"POSITION":0,"NORMAL":1},"mode":4,"indices":2,"material":0}]}],"nodes":[{"mesh":0},{"name":"Keychron-K3-M-1u v9","children":[0]}],"scenes":[{"nodes":[1]}]}