{"buffers":[{"uri":"Lame.bin","byteLength":707352}],"asset":{"version":"2.0","generator":"gltfpack 0.16"},"bufferViews":[{"buffer":0,"byteOffset":0,"byteLength":243924,"byteStride":12,"target":34962},{"buffer":0,"byteOffset":243924,"byteLength":243924,"byteStride":12,"target":34962},{"buffer":0,"byteOffset":487848,"byteLength":219504,"target":34963}],"accessors":[{"bufferView":0,"byteOffset":0,"componentType":5126,"count":4319,"type":"VEC3","min":[-0.852150559,0.00236502173,-0.824555576],"max":[0.896789432,0.430625021,0.824404418]},{"bufferView":1,"byteOffset":0,"componentType":5126,"count":4319,"type":"VEC3"},{"bufferView":2,"byteOffset":0,"componentType":5123,"count":22092,"type":"SCALAR"},{"bufferView":0,"byteOffset":51828,"componentType":5126,"count":2136,"type":"VEC3","min":[-0.522700548,-0.177614972,-0.350065559],"max":[0.567299485,0.302375019,0.349914432]},{"bufferView":1,"byteOffset":51828,"componentType":5126,"count":2136,"type":"VEC3"},{"bufferView":2,"byteOffset":44184,"componentType":5123,"count":12708,"type":"SCALAR"},{"bufferView":0,"byteOffset":77460,"componentType":5126,"count":4800,"type":"VEC3","min":[-0.854187906,0.00262950524,0.890882552],"max":[0.894812107,0.786229491,2.54045248]},{"bufferView":1,"byteOffset":77460,"componentType":5126,"count":4800,"type":"VEC3"},{"bufferView":2,"byteOffset":69600,"componentType":5123,"count":24768,"type":"SCALAR"},{"bufferView":0,"byteOffset":135060,"componentType":5126,"count":2136,"type":"VEC3","min":[-0.524717927,-0.177350491,1.36565256],"max":[0.565282106,0.302639514,2.06563258]},{"bufferView":1,"byteOffset":135060,"componentType":5126,"count":2136,"type":"VEC3"},{"bufferView":2,"byteOffset":119136,"componentType":5123,"count":12708,"type":"SCALAR"},{"bufferView":0,"byteOffset":160692,"componentType":5126,"count":4800,"type":"VEC3","min":[-0.854309976,0.00262950524,-2.54039049],"max":[0.894689977,0.786229491,-0.890820503]},{"bufferView":1,"byteOffset":160692,"componentType":5126,"count":4800,"type":"VEC3"},{"bufferView":2,"byteOffset":144552,"componentType":5123,"count":24768,"type":"SCALAR"},{"bufferView":0,"byteOffset":218292,"componentType":5126,"count":2136,"type":"VEC3","min":[-0.524779975,-0.177350491,-2.06557059],"max":[0.565219998,0.302639514,-1.36559045]},{"bufferView":1,"byteOffset":218292,"componentType":5126,"count":2136,"type":"VEC3"},{"bufferView":2,"byteOffset":194088,"componentType":5123,"count":12708,"type":"SCALAR"}],"materials":[{"pbrMetallicRoughness":{"baseColorFactor":[0.627451003,0.627451003,0.627451003,1],"metallicFactor":0},"doubleSided":true}],"meshes":[{"primitives":[{"attributes":{"POSITION":0,"NORMAL":1},"mode":4,"indices":2,"material":0}]},{"primitives":[{"attributes":{"POSITION":3,"NORMAL":4},"mode":4,"indices":5,"material":0}]},{"primitives":[{"attributes":{"POSITION":6,"NORMAL":7},"mode":4,"indices":8,"material":0}]},{"primitives":[{"attributes":{"POSITION":9,"NORMAL":10},"mode":4,"indices":11,"material":0}]},{"primitives":[{"attributes":{"POSITION":12,"NORMAL":13},"mode":4,"indices":14,"material":0}]},{"primitives":[{"attributes":{"POSITION":15,"NORMAL":16},"mode":4,"indices":17,"material":0}]}],"nodes":[{"mesh":0},{"mesh":1},{"mesh":2},{"mesh":3},{"mesh":4},{"mesh":5},{"name":"KLP-M-Saddle v3","children":[0]},{"name":"Kailh Choc Plug v1","children":[1]},{"name":"KLP-Lame-Tilted v4","children":[2]},{"name":"Kailh Choc Plug v2","children":[3]},{"name":"KLP-Lame-Tilted v4","children":[4]},{"name":"Kailh Choc Plug v2","children":[5]}],"scenes":[{"nodes":[6,7,8,9,10,11]}]}