{"buffers":[{"uri":"LDSA.bin","byteLength":3732912}],"asset":{"version":"2.0","generator":"gltfpack 0.16"},"bufferViews":[{"buffer":0,"byteOffset":0,"byteLength":1566024,"byteStride":12,"target":34962},{"buffer":0,"byteOffset":1566024,"byteLength":1566024,"byteStride":12,"target":34962},{"buffer":0,"byteOffset":3132048,"byteLength":600864,"target":34963}],"accessors":[{"bufferView":0,"byteOffset":0,"componentType":5126,"count":130502,"type":"VEC3","min":[-0.897780001,-0.34999001,-0.826520026],"max":[0.852209985,0.323549986,0.823469996]},{"bufferView":1,"byteOffset":0,"componentType":5126,"count":130502,"type":"VEC3"},{"bufferView":2,"byteOffset":0,"componentType":5125,"count":150216,"type":"SCALAR"}],"materials":[{"pbrMetallicRoughness":{"baseColorFactor":[0.627451003,0.627451003,0.627451003,1],"metallicFactor":0},"doubleSided":true}],"meshes":[{"primitives":[{"attributes":{"POSITION":0,"NORMAL":1},"mode":4,"indices":2,"material":0}]}],"nodes":[{"mesh":0},{"name":"LDSA_Keycap_1u v3","children":[0]}],"scenes":[{"nodes":[1]}]}