{"buffers":[{"uri":"LDSA.bin","byteLength":3732288}],"asset":{"version":"2.0","generator":"gltfpack 0.16"},"bufferViews":[{"buffer":0,"byteOffset":0,"byteLength":1565772,"byteStride":12,"target":34962},{"buffer":0,"byteOffset":1565772,"byteLength":1565772,"byteStride":12,"target":34962},{"buffer":0,"byteOffset":3131544,"byteLength":600744,"target":34963}],"accessors":[{"bufferView":0,"byteOffset":0,"componentType":5126,"count":130481,"type":"VEC3","min":[0.0168500002,-0.118939452,-0.816178977],"max":[1.76684999,0.554600537,0.833811045]},{"bufferView":1,"byteOffset":0,"componentType":5126,"count":130481,"type":"VEC3"},{"bufferView":2,"byteOffset":0,"componentType":5125,"count":150186,"type":"SCALAR"}],"materials":[{"pbrMetallicRoughness":{"baseColorFactor":[0.627451003,0.627451003,0.627451003,1],"metallicFactor":0},"doubleSided":true}],"meshes":[{"primitives":[{"attributes":{"POSITION":0,"NORMAL":1},"mode":4,"indices":2,"material":0}]}],"nodes":[{"mesh":0},{"name":"LDSA_Keycap_1u v2","children":[0]}],"scenes":[{"nodes":[1]}]}