{"buffers":[{"uri":"MBK.bin","byteLength":113820}],"asset":{"version":"2.0","generator":"gltfpack 0.16"},"bufferViews":[{"buffer":0,"byteOffset":0,"byteLength":40716,"byteStride":12,"target":34962},{"buffer":0,"byteOffset":40716,"byteLength":40716,"byteStride":12,"target":34962},{"buffer":0,"byteOffset":81432,"byteLength":32388,"target":34963}],"accessors":[{"bufferView":0,"byteOffset":0,"componentType":5126,"count":3393,"type":"VEC3","min":[-0.872500002,-0.128616154,-0.823959887],"max":[0.872500002,0.423173845,0.821020126]},{"bufferView":1,"byteOffset":0,"componentType":5126,"count":3393,"type":"VEC3"},{"bufferView":2,"byteOffset":0,"componentType":5123,"count":16194,"type":"SCALAR"}],"materials":[{"pbrMetallicRoughness":{"baseColorFactor":[0.627451003,0.627451003,0.627451003,1],"metallicFactor":0},"doubleSided":true}],"meshes":[{"primitives":[{"attributes":{"POSITION":0,"NORMAL":1},"mode":4,"indices":2,"material":0}]}],"nodes":[{"mesh":0},{"name":"MBK_Keycap_-_1u v7","children":[0]}],"scenes":[{"nodes":[1]}]}