{"buffers":[{"uri":"MTNU.bin","byteLength":408576}],"asset":{"version":"2.0","generator":"gltfpack 0.16"},"bufferViews":[{"buffer":0,"byteOffset":0,"byteLength":141900,"byteStride":12,"target":34962},{"buffer":0,"byteOffset":141900,"byteLength":141900,"byteStride":12,"target":34962},{"buffer":0,"byteOffset":283800,"byteLength":124776,"target":34963}],"accessors":[{"bufferView":0,"byteOffset":0,"componentType":5126,"count":2929,"type":"VEC3","min":[-0.910861075,0,0.961021721],"max":[0.909078896,0.981739998,2.78096175]},{"bufferView":1,"byteOffset":0,"componentType":5126,"count":2929,"type":"VEC3"},{"bufferView":2,"byteOffset":0,"componentType":5123,"count":15336,"type":"SCALAR"},{"bufferView":0,"byteOffset":35148,"componentType":5126,"count":3015,"type":"VEC3","min":[-0.910861075,0,-0.888978302],"max":[0.909078896,0.807309985,0.930961668]},{"bufferView":1,"byteOffset":35148,"componentType":5126,"count":3015,"type":"VEC3"},{"bufferView":2,"byteOffset":30672,"componentType":5123,"count":16080,"type":"SCALAR"},{"bufferView":0,"byteOffset":71328,"componentType":5126,"count":2910,"type":"VEC3","min":[-0.910861075,-2.20996488e-17,-2.73897839],"max":[0.909078896,0.748449981,-0.919038296]},{"bufferView":1,"byteOffset":71328,"componentType":5126,"count":2910,"type":"VEC3"},{"bufferView":2,"byteOffset":62832,"componentType":5123,"count":15384,"type":"SCALAR"},{"bufferView":0,"byteOffset":106248,"componentType":5126,"count":2971,"type":"VEC3","min":[-0.910861075,-1.38122801e-17,-4.58897829],"max":[0.909078896,0.832639992,-2.7690382]},{"bufferView":1,"byteOffset":106248,"componentType":5126,"count":2971,"type":"VEC3"},{"bufferView":2,"byteOffset":93600,"componentType":5123,"count":15588,"type":"SCALAR"}],"materials":[{"pbrMetallicRoughness":{"baseColorFactor":[0.627451003,0.627451003,0.627451003,1],"metallicFactor":0},"doubleSided":true}],"meshes":[{"primitives":[{"attributes":{"POSITION":0,"NORMAL":1},"mode":4,"indices":2,"material":0}]},{"primitives":[{"attributes":{"POSITION":3,"NORMAL":4},"mode":4,"indices":5,"material":0}]},{"primitives":[{"attributes":{"POSITION":6,"NORMAL":7},"mode":4,"indices":8,"material":0}]},{"primitives":[{"attributes":{"POSITION":9,"NORMAL":10},"mode":4,"indices":11,"material":0}]}],"nodes":[{"mesh":0},{"mesh":1},{"mesh":2},{"mesh":3},{"name":"R1_1U v1","children":[0]},{"name":"R2_1U v1","children":[1]},{"name":"R3_1U v1","children":[2]},{"name":"R4_1U v1","children":[3]}],"scenes":[{"nodes":[4,5,6,7]}]}