{"buffers":[{"uri":"MX-Holder.bin","byteLength":43236}],"asset":{"version":"2.0","generator":"gltfpack 0.16"},"bufferViews":[{"buffer":0,"byteOffset":0,"byteLength":16500,"byteStride":12,"target":34962},{"buffer":0,"byteOffset":16500,"byteLength":16500,"byteStride":12,"target":34962},{"buffer":0,"byteOffset":33000,"byteLength":10236,"target":34963}],"accessors":[{"bufferView":0,"byteOffset":0,"componentType":5126,"count":1375,"type":"VEC3","min":[-1.04999006,0,-1.04999006],"max":[1.04999006,0.550000012,1.04999006]},{"bufferView":1,"byteOffset":0,"componentType":5126,"count":1375,"type":"VEC3"},{"bufferView":2,"byteOffset":0,"componentType":5123,"count":5118,"type":"SCALAR"}],"materials":[{"pbrMetallicRoughness":{"baseColorFactor":[0.227450982,0.227450982,0.23137255,1],"metallicFactor":0},"doubleSided":true}],"meshes":[{"primitives":[{"attributes":{"POSITION":0,"NORMAL":1},"mode":4,"indices":2,"material":0}]}],"nodes":[{"mesh":0},{"children":[0]}],"scenes":[{"nodes":[1]}]}