{"buffers":[{"uri":"Nuphy_Air.bin","byteLength":75204}],"asset":{"version":"2.0","generator":"gltfpack 0.16"},"bufferViews":[{"buffer":0,"byteOffset":0,"byteLength":25812,"byteStride":12,"target":34962},{"buffer":0,"byteOffset":25812,"byteLength":25812,"byteStride":12,"target":34962},{"buffer":0,"byteOffset":51624,"byteLength":23580,"target":34963}],"accessors":[{"bufferView":0,"byteOffset":0,"componentType":5126,"count":2151,"type":"VEC3","min":[-0.920000017,-0.0858886912,-0.914113998],"max":[0.920000017,0.489361316,0.925886035]},{"bufferView":1,"byteOffset":0,"componentType":5126,"count":2151,"type":"VEC3"},{"bufferView":2,"byteOffset":0,"componentType":5123,"count":11790,"type":"SCALAR"}],"materials":[{"pbrMetallicRoughness":{"baseColorFactor":[0.800000012,0.800000012,0.800000012,1],"metallicFactor":0},"doubleSided":true}],"meshes":[{"primitives":[{"attributes":{"POSITION":0,"NORMAL":1},"mode":4,"indices":2,"material":0}]}],"nodes":[{"mesh":0},{"name":"nuphy-air-keycap v1","children":[0]}],"scenes":[{"nodes":[1]}]}