{"buffers":[{"uri":"Nuphy_Air.bin","byteLength":148476}],"asset":{"version":"2.0","generator":"gltfpack 0.16"},"bufferViews":[{"buffer":0,"byteOffset":0,"byteLength":52212,"byteStride":12,"target":34962},{"buffer":0,"byteOffset":52212,"byteLength":52212,"byteStride":12,"target":34962},{"buffer":0,"byteOffset":104424,"byteLength":44052,"target":34963}],"accessors":[{"bufferView":0,"byteOffset":0,"componentType":5126,"count":4351,"type":"VEC3","min":[-0.920000017,0,-0.920000017],"max":[0.920000017,0.545249999,0.920000017]},{"bufferView":1,"byteOffset":0,"componentType":5126,"count":4351,"type":"VEC3"},{"bufferView":2,"byteOffset":0,"componentType":5123,"count":22026,"type":"SCALAR"}],"materials":[{"pbrMetallicRoughness":{"baseColorFactor":[0.800000012,0.800000012,0.800000012,1],"metallicFactor":0},"doubleSided":true}],"meshes":[{"primitives":[{"attributes":{"POSITION":0,"NORMAL":1},"mode":4,"indices":2,"material":0}]}],"nodes":[{"mesh":0},{"children":[0]}],"scenes":[{"nodes":[1]}]}