{"buffers":[{"uri":"OEM-LP.bin","byteLength":349800}],"asset":{"version":"2.0","generator":"gltfpack 0.16"},"bufferViews":[{"buffer":0,"byteOffset":0,"byteLength":154812,"byteStride":12,"target":34962},{"buffer":0,"byteOffset":154812,"byteLength":154812,"byteStride":12,"target":34962},{"buffer":0,"byteOffset":309624,"byteLength":40176,"target":34963}],"accessors":[{"bufferView":0,"byteOffset":0,"componentType":5126,"count":12185,"type":"VEC3","min":[-0.908029974,-0.00236000004,-0.906050026],"max":[0.909340024,0.598500013,0.896870017]},{"bufferView":1,"byteOffset":0,"componentType":5126,"count":12185,"type":"VEC3"},{"bufferView":2,"byteOffset":0,"componentType":5123,"count":18468,"type":"SCALAR"},{"bufferView":0,"byteOffset":146220,"componentType":5126,"count":716,"type":"VEC3","min":[-0.794170022,0.101709999,-0.80053997],"max":[0.795819998,0.561749995,0.78944999]},{"bufferView":1,"byteOffset":146220,"componentType":5126,"count":716,"type":"VEC3"},{"bufferView":2,"byteOffset":36936,"componentType":5123,"count":1620,"type":"SCALAR"}],"materials":[{"pbrMetallicRoughness":{"baseColorFactor":[0.34117648,0.34117648,0.34117648,1],"metallicFactor":0},"doubleSided":true},{"pbrMetallicRoughness":{"baseColorFactor":[0.627451003,0.627451003,0.627451003,1],"metallicFactor":0},"doubleSided":true}],"meshes":[{"primitives":[{"attributes":{"POSITION":0,"NORMAL":1},"mode":4,"indices":2,"material":0}]},{"primitives":[{"attributes":{"POSITION":3,"NORMAL":4},"mode":4,"indices":5,"material":1}]}],"nodes":[{"mesh":0},{"mesh":1},{"children":[0]},{"children":[1]}],"scenes":[{"nodes":[2,3]}]}