{"buffers":[{"uri":"OEM.bin","byteLength":2041128}],"asset":{"version":"2.0","generator":"gltfpack 0.16"},"bufferViews":[{"buffer":0,"byteOffset":0,"byteLength":880668,"byteStride":12,"target":34962},{"buffer":0,"byteOffset":880668,"byteLength":880668,"byteStride":12,"target":34962},{"buffer":0,"byteOffset":1761336,"byteLength":279792,"target":34963}],"accessors":[{"bufferView":0,"byteOffset":0,"componentType":5126,"count":14855,"type":"VEC3","min":[-0.900089979,-7.00000019e-05,-2.72889996],"max":[0.917280018,0.993489981,-0.925989985]},{"bufferView":1,"byteOffset":0,"componentType":5126,"count":14855,"type":"VEC3"},{"bufferView":2,"byteOffset":0,"componentType":5123,"count":24936,"type":"SCALAR"},{"bufferView":0,"byteOffset":178260,"componentType":5126,"count":3395,"type":"VEC3","min":[-0.795920014,-6.34753891e-16,-2.62826991],"max":[0.813310027,0.825380027,-1.02868998]},{"bufferView":1,"byteOffset":178260,"componentType":5126,"count":3395,"type":"VEC3"},{"bufferView":2,"byteOffset":49872,"componentType":5123,"count":10068,"type":"SCALAR"},{"bufferView":0,"byteOffset":219000,"componentType":5126,"count":19412,"type":"VEC3","min":[-0.870010018,0.0021786252,0.96028918],"max":[0.929989994,0.990342379,2.76028728]},{"bufferView":1,"byteOffset":219000,"componentType":5126,"count":19412,"type":"VEC3"},{"bufferView":2,"byteOffset":70008,"componentType":5123,"count":39906,"type":"SCALAR"},{"bufferView":0,"byteOffset":451944,"componentType":5126,"count":25055,"type":"VEC3","min":[-0.903720021,-0.00298999995,-4.57993984],"max":[0.90180999,1.18763006,-2.77779007]},{"bufferView":1,"byteOffset":451944,"componentType":5126,"count":25055,"type":"VEC3"},{"bufferView":2,"byteOffset":149820,"componentType":5123,"count":47286,"type":"SCALAR"},{"bufferView":0,"byteOffset":752604,"componentType":5126,"count":10546,"type":"VEC3","min":[-0.89677,-0.000139804091,-0.883498251],"max":[0.903230011,0.980803907,0.916506052]},{"bufferView":1,"byteOffset":752604,"componentType":5126,"count":10546,"type":"VEC3"},{"bufferView":2,"byteOffset":244392,"componentType":5123,"count":17058,"type":"SCALAR"},{"bufferView":0,"byteOffset":879156,"componentType":5126,"count":126,"type":"VEC3","min":[-0.594319999,0.81296289,-0.668915391],"max":[0.600430012,0.979219139,0.634037018]},{"bufferView":1,"byteOffset":879156,"componentType":5126,"count":126,"type":"VEC3"},{"bufferView":2,"byteOffset":278508,"componentType":5123,"count":642,"type":"SCALAR"}],"materials":[{"pbrMetallicRoughness":{"baseColorFactor":[0.627451003,0.627451003,0.627451003,1],"metallicFactor":0},"doubleSided":true},{"pbrMetallicRoughness":{"baseColorFactor":[0.964705884,0.964705884,0.952941179,1],"metallicFactor":0},"doubleSided":true}],"meshes":[{"primitives":[{"attributes":{"POSITION":0,"NORMAL":1},"mode":4,"indices":2,"material":0}]},{"primitives":[{"attributes":{"POSITION":3,"NORMAL":4},"mode":4,"indices":5,"material":0}]},{"primitives":[{"attributes":{"POSITION":6,"NORMAL":7},"mode":4,"indices":8,"material":1}]},{"primitives":[{"attributes":{"POSITION":9,"NORMAL":10},"mode":4,"indices":11,"material":0}]},{"primitives":[{"attributes":{"POSITION":12,"NORMAL":13},"mode":4,"indices":14,"material":0}]},{"primitives":[{"attributes":{"POSITION":15,"NORMAL":16},"mode":4,"indices":17,"material":0}]}],"nodes":[{"mesh":0},{"mesh":1},{"mesh":2},{"mesh":3},{"mesh":4},{"mesh":5},{"name":"OEM-R2(Q)-Master v28","children":[0]},{"name":"OEM-R2(Q)-Master v28","children":[1]},{"name":"OEM-R4(Z)-Master v19","children":[2]},{"name":"OEM-R1(1)-Master v31","children":[3]},{"name":"OEM-R3(A)-Master v29","children":[4]},{"name":"OEM-R3(A)-Master v29","children":[5]}],"scenes":[{"nodes":[6,7,8,9,10,11]}]}