{"buffers":[{"uri":"OPK.bin","byteLength":722432}],"asset":{"version":"2.0","generator":"gltfpack 0.16"},"bufferViews":[{"buffer":0,"byteOffset":0,"byteLength":252372,"byteStride":12,"target":34962},{"buffer":0,"byteOffset":252372,"byteLength":252372,"byteStride":12,"target":34962},{"buffer":0,"byteOffset":504744,"byteLength":217686,"target":34963}],"accessors":[{"bufferView":0,"byteOffset":0,"componentType":5126,"count":3236,"type":"VEC3","min":[-0.920710504,0.0955505297,-6.61576891],"max":[0.911809504,1.64313054,-4.7842288]},{"bufferView":1,"byteOffset":0,"componentType":5126,"count":3236,"type":"VEC3"},{"bufferView":2,"byteOffset":0,"componentType":5123,"count":16428,"type":"SCALAR"},{"bufferView":0,"byteOffset":38832,"componentType":5126,"count":3566,"type":"VEC3","min":[-0.920520484,0.0955505297,-4.71583891],"max":[0.911619484,1.41305053,-2.88416886]},{"bufferView":1,"byteOffset":38832,"componentType":5126,"count":3566,"type":"VEC3"},{"bufferView":2,"byteOffset":32856,"componentType":5123,"count":18456,"type":"SCALAR"},{"bufferView":0,"byteOffset":81624,"componentType":5126,"count":3586,"type":"VEC3","min":[-0.920280516,0.0955505297,-2.81563902],"max":[0.911379516,1.21123052,-0.98436898]},{"bufferView":1,"byteOffset":81624,"componentType":5126,"count":3586,"type":"VEC3"},{"bufferView":2,"byteOffset":69768,"componentType":5123,"count":18660,"type":"SCALAR"},{"bufferView":0,"byteOffset":124656,"componentType":5126,"count":3557,"type":"VEC3","min":[-0.9201805,0.0955505297,-0.915618956],"max":[0.9112795,1.14456058,0.915631056]},{"bufferView":1,"byteOffset":124656,"componentType":5126,"count":3557,"type":"VEC3"},{"bufferView":2,"byteOffset":107088,"componentType":5123,"count":18564,"type":"SCALAR"},{"bufferView":0,"byteOffset":167340,"componentType":5126,"count":3635,"type":"VEC3","min":[-0.920390487,0.0955505297,0.984251022],"max":[0.911489487,1.30735052,2.81575108]},{"bufferView":1,"byteOffset":167340,"componentType":5126,"count":3635,"type":"VEC3"},{"bufferView":2,"byteOffset":144216,"componentType":5123,"count":18723,"type":"SCALAR"},{"bufferView":0,"byteOffset":210960,"componentType":5126,"count":3451,"type":"VEC3","min":[-0.920320511,0.0955505297,2.88413095],"max":[0.911419511,1.1854105,4.71587086]},{"bufferView":1,"byteOffset":210960,"componentType":5126,"count":3451,"type":"VEC3"},{"bufferView":2,"byteOffset":181662,"componentType":5123,"count":18012,"type":"SCALAR"}],"materials":[{"pbrMetallicRoughness":{"baseColorFactor":[0.627451003,0.627451003,0.627451003,1],"metallicFactor":0},"doubleSided":true}],"meshes":[{"primitives":[{"attributes":{"POSITION":0,"NORMAL":1},"mode":4,"indices":2,"material":0}]},{"primitives":[{"attributes":{"POSITION":3,"NORMAL":4},"mode":4,"indices":5,"material":0}]},{"primitives":[{"attributes":{"POSITION":6,"NORMAL":7},"mode":4,"indices":8,"material":0}]},{"primitives":[{"attributes":{"POSITION":9,"NORMAL":10},"mode":4,"indices":11,"material":0}]},{"primitives":[{"attributes":{"POSITION":12,"NORMAL":13},"mode":4,"indices":14,"material":0}]},{"primitives":[{"attributes":{"POSITION":15,"NORMAL":16},"mode":4,"indices":17,"material":0}]}],"nodes":[{"mesh":0},{"mesh":1},{"mesh":2},{"mesh":3},{"mesh":4},{"mesh":5},{"name":"row0_U1 v1","children":[0]},{"name":"row1_U1 v1","children":[1]},{"name":"row2_U1 v1","children":[2]},{"name":"row3_U1 v1","children":[3]},{"name":"row4_U1 v1","children":[4]},{"name":"row5_U1 v1","children":[5]}],"scenes":[{"nodes":[6,7,8,9,10,11]}]}