{"buffers":[{"uri":"OSA.bin","byteLength":505932}],"asset":{"version":"2.0","generator":"gltfpack 0.16"},"bufferViews":[{"buffer":0,"byteOffset":0,"byteLength":182160,"byteStride":12,"target":34962},{"buffer":0,"byteOffset":182160,"byteLength":182160,"byteStride":12,"target":34962},{"buffer":0,"byteOffset":364320,"byteLength":141612,"target":34963}],"accessors":[{"bufferView":0,"byteOffset":0,"componentType":5126,"count":3658,"type":"VEC3","min":[-0.870006382,-0.0582999997,0.90518266],"max":[0.94999361,0.962960005,2.72518277]},{"bufferView":1,"byteOffset":0,"componentType":5126,"count":3658,"type":"VEC3"},{"bufferView":2,"byteOffset":0,"componentType":5123,"count":16836,"type":"SCALAR"},{"bufferView":0,"byteOffset":43896,"componentType":5126,"count":3665,"type":"VEC3","min":[-0.869994581,-0.0582999997,-2.90480733],"max":[0.950005412,0.878899992,-1.08481729]},{"bufferView":1,"byteOffset":43896,"componentType":5126,"count":3665,"type":"VEC3"},{"bufferView":2,"byteOffset":33672,"componentType":5123,"count":17148,"type":"SCALAR"},{"bufferView":0,"byteOffset":87876,"componentType":5126,"count":3964,"type":"VEC3","min":[-0.86999464,-0.0582999997,-0.999817312],"max":[0.950005352,0.869120002,0.820182681]},{"bufferView":1,"byteOffset":87876,"componentType":5126,"count":3964,"type":"VEC3"},{"bufferView":2,"byteOffset":67968,"componentType":5123,"count":18594,"type":"SCALAR"},{"bufferView":0,"byteOffset":135444,"componentType":5126,"count":3893,"type":"VEC3","min":[-0.86999464,-0.0582999997,-4.8098073],"max":[0.950005352,1.09651005,-2.98980737]},{"bufferView":1,"byteOffset":135444,"componentType":5126,"count":3893,"type":"VEC3"},{"bufferView":2,"byteOffset":105156,"componentType":5123,"count":18228,"type":"SCALAR"}],"materials":[{"pbrMetallicRoughness":{"baseColorFactor":[0.627451003,0.627451003,0.627451003,1],"metallicFactor":0},"doubleSided":true}],"meshes":[{"primitives":[{"attributes":{"POSITION":0,"NORMAL":1},"mode":4,"indices":2,"material":0}]},{"primitives":[{"attributes":{"POSITION":3,"NORMAL":4},"mode":4,"indices":5,"material":0}]},{"primitives":[{"attributes":{"POSITION":6,"NORMAL":7},"mode":4,"indices":8,"material":0}]},{"primitives":[{"attributes":{"POSITION":9,"NORMAL":10},"mode":4,"indices":11,"material":0}]}],"nodes":[{"mesh":0},{"mesh":1},{"mesh":2},{"mesh":3},{"name":"AC-R1_2_3_3_2_1_1","children":[0]},{"name":"AC-R3_2_3_3_1_1_1","children":[1]},{"name":"AC-R2_2_3_3_2_1_1","children":[2]},{"name":"AC-R4_2_2_3_2_1_1","children":[3]}],"scenes":[{"nodes":[4,5,6,7]}]}