{"buffers":[{"uri":"SA.bin","byteLength":26492856}],"asset":{"version":"2.0","generator":"gltfpack 0.16"},"bufferViews":[{"buffer":0,"byteOffset":0,"byteLength":11146944,"byteStride":12,"target":34962},{"buffer":0,"byteOffset":11146944,"byteLength":11146944,"byteStride":12,"target":34962},{"buffer":0,"byteOffset":22293888,"byteLength":4198968,"target":34963}],"accessors":[{"bufferView":0,"byteOffset":0,"componentType":5126,"count":148382,"type":"VEC3","min":[-0.886274636,-5.57235944e-05,-6.48444366],"max":[0.901405334,1.89869428,-4.69243383]},{"bufferView":1,"byteOffset":0,"componentType":5126,"count":148382,"type":"VEC3"},{"bufferView":2,"byteOffset":0,"componentType":5125,"count":165198,"type":"SCALAR"},{"bufferView":0,"byteOffset":1780584,"componentType":5126,"count":154644,"type":"VEC3","min":[-0.881494641,0.000644276384,-4.62551403],"max":[0.905775368,1.67825425,-2.83297372]},{"bufferView":1,"byteOffset":1780584,"componentType":5126,"count":154644,"type":"VEC3"},{"bufferView":2,"byteOffset":660792,"componentType":5125,"count":172488,"type":"SCALAR"},{"bufferView":0,"byteOffset":3636312,"componentType":5126,"count":164294,"type":"VEC3","min":[-0.881144643,0.000364276406,-2.7739439],"max":[0.904995382,1.43720424,-0.980353832]},{"bufferView":1,"byteOffset":3636312,"componentType":5126,"count":164294,"type":"VEC3"},{"bufferView":2,"byteOffset":1350744,"componentType":5125,"count":184062,"type":"SCALAR"},{"bufferView":0,"byteOffset":5607840,"componentType":5126,"count":143252,"type":"VEC3","min":[-0.891484618,0.00298427651,-0.919613779],"max":[0.893205345,1.26604426,0.875016212]},{"bufferView":1,"byteOffset":5607840,"componentType":5126,"count":143252,"type":"VEC3"},{"bufferView":2,"byteOffset":2086992,"componentType":5125,"count":171900,"type":"SCALAR"},{"bufferView":0,"byteOffset":7326864,"componentType":5126,"count":161643,"type":"VEC3","min":[-0.886514664,0.00122427638,0.934476197],"max":[0.899625361,1.43789423,2.72874618]},{"bufferView":1,"byteOffset":7326864,"componentType":5126,"count":161643,"type":"VEC3"},{"bufferView":2,"byteOffset":2774592,"componentType":5125,"count":181530,"type":"SCALAR"},{"bufferView":0,"byteOffset":9266580,"componentType":5126,"count":156697,"type":"VEC3","min":[-0.884744644,0.00368427648,2.77622628],"max":[0.902535379,1.68098426,4.56965637]},{"bufferView":1,"byteOffset":9266580,"componentType":5126,"count":156697,"type":"VEC3"},{"bufferView":2,"byteOffset":3500712,"componentType":5125,"count":174564,"type":"SCALAR"}],"materials":[{"pbrMetallicRoughness":{"baseColorFactor":[0.627451003,0.627451003,0.627451003,1],"metallicFactor":0},"doubleSided":true}],"meshes":[{"primitives":[{"attributes":{"POSITION":0,"NORMAL":1},"mode":4,"indices":2,"material":0}]},{"primitives":[{"attributes":{"POSITION":3,"NORMAL":4},"mode":4,"indices":5,"material":0}]},{"primitives":[{"attributes":{"POSITION":6,"NORMAL":7},"mode":4,"indices":8,"material":0}]},{"primitives":[{"attributes":{"POSITION":9,"NORMAL":10},"mode":4,"indices":11,"material":0}]},{"primitives":[{"attributes":{"POSITION":12,"NORMAL":13},"mode":4,"indices":14,"material":0}]},{"primitives":[{"attributes":{"POSITION":15,"NORMAL":16},"mode":4,"indices":17,"material":0}]}],"nodes":[{"mesh":0},{"mesh":1},{"mesh":2},{"mesh":3},{"mesh":4},{"mesh":5},{"name":"Key_Generator_Super_SA_Row_0_Blank v2","children":[0]},{"name":"Key_Generator_Super_SA_Row_1_Blank v4","children":[1]},{"name":"Key_Generator_Super_SA_Row_2_Blank v2","children":[2]},{"name":"Key_Generator_Super_SA_Row_3_Blank v2","children":[3]},{"name":"Key_Generator_Super_SA_Row_4_Blank v2","children":[4]},{"name":"Key_Generator_Super_SA_Row_5_Blank v2","children":[5]}],"scenes":[{"nodes":[6,7,8,9,10,11]}]}