{"buffers":[{"uri":"SA.bin","byteLength":8521416}],"asset":{"version":"2.0","generator":"gltfpack 0.16"},"bufferViews":[{"buffer":0,"byteOffset":0,"byteLength":2161224,"byteStride":12,"target":34962},{"buffer":0,"byteOffset":2161224,"byteLength":2161224,"byteStride":12,"target":34962},{"buffer":0,"byteOffset":4322448,"byteLength":4198968,"target":34963}],"accessors":[{"bufferView":0,"byteOffset":0,"componentType":5126,"count":180102,"type":"VEC3","min":[-0.897099972,-0.000880000007,-6.46845007],"max":[0.900150001,1.89786005,4.58563995]},{"bufferView":1,"byteOffset":0,"componentType":5126,"count":180102,"type":"VEC3"},{"bufferView":2,"byteOffset":0,"componentType":5125,"count":1049742,"type":"SCALAR"}],"materials":[{"pbrMetallicRoughness":{"baseColorFactor":[0.627451003,0.627451003,0.627451003,1],"metallicFactor":0},"doubleSided":true}],"meshes":[{"primitives":[{"attributes":{"POSITION":0,"NORMAL":1},"mode":4,"indices":2,"material":0}]}],"nodes":[{"mesh":0},{"name":"SA keycaps v1","children":[0]}],"scenes":[{"nodes":[1]}]}