{"buffers":[{"uri":"SQDG.bin","byteLength":236388}],"asset":{"version":"2.0","generator":"gltfpack 0.16"},"bufferViews":[{"buffer":0,"byteOffset":0,"byteLength":93408,"byteStride":12,"target":34962},{"buffer":0,"byteOffset":93408,"byteLength":93408,"byteStride":12,"target":34962},{"buffer":0,"byteOffset":186816,"byteLength":49572,"target":34963}],"accessors":[{"bufferView":0,"byteOffset":0,"componentType":5126,"count":2283,"type":"VEC3","min":[-0.689055383,-0.243760005,-0.602470934],"max":[0.685944617,0.307190001,0.672529042]},{"bufferView":1,"byteOffset":0,"componentType":5126,"count":2283,"type":"VEC3"},{"bufferView":2,"byteOffset":0,"componentType":5123,"count":6126,"type":"SCALAR"},{"bufferView":0,"byteOffset":27396,"componentType":5126,"count":456,"type":"VEC3","min":[-0.226555377,0.25624001,0.260029048],"max":[0.223444626,0.316240013,0.410029054]},{"bufferView":1,"byteOffset":27396,"componentType":5126,"count":456,"type":"VEC3"},{"bufferView":2,"byteOffset":12252,"componentType":5123,"count":2472,"type":"SCALAR"},{"bufferView":0,"byteOffset":32868,"componentType":5126,"count":1357,"type":"VEC3","min":[-0.689055383,-0.243760005,1.19752908],"max":[0.685944617,0.456239998,2.47252893]},{"bufferView":1,"byteOffset":32868,"componentType":5126,"count":1357,"type":"VEC3"},{"bufferView":2,"byteOffset":17196,"componentType":5123,"count":4998,"type":"SCALAR"},{"bufferView":0,"byteOffset":49152,"componentType":5126,"count":2331,"type":"VEC3","min":[-0.688185394,-0.243760005,2.93893909],"max":[0.68881464,0.460689992,4.31893921]},{"bufferView":1,"byteOffset":49152,"componentType":5126,"count":2331,"type":"VEC3"},{"bufferView":2,"byteOffset":27192,"componentType":5123,"count":6192,"type":"SCALAR"},{"bufferView":0,"byteOffset":77124,"componentType":5126,"count":1357,"type":"VEC3","min":[-0.689053655,-0.243760005,-2.3818326],"max":[0.685946345,0.456239998,-1.1068325]},{"bufferView":1,"byteOffset":77124,"componentType":5126,"count":1357,"type":"VEC3"},{"bufferView":2,"byteOffset":39576,"componentType":5123,"count":4998,"type":"SCALAR"}],"materials":[{"pbrMetallicRoughness":{"baseColorFactor":[0.227450982,0.227450982,0.23137255,1],"metallicFactor":0},"doubleSided":true}],"meshes":[{"primitives":[{"attributes":{"POSITION":0,"NORMAL":1},"mode":4,"indices":2,"material":0}]},{"primitives":[{"attributes":{"POSITION":3,"NORMAL":4},"mode":4,"indices":5,"material":0}]},{"primitives":[{"attributes":{"POSITION":6,"NORMAL":7},"mode":4,"indices":8,"material":0}]},{"primitives":[{"attributes":{"POSITION":9,"NORMAL":10},"mode":4,"indices":11,"material":0}]},{"primitives":[{"attributes":{"POSITION":12,"NORMAL":13},"mode":4,"indices":14,"material":0}]}],"nodes":[{"mesh":0},{"mesh":1},{"mesh":2},{"mesh":3},{"mesh":4},{"name":"SQDG-S-R3-Homing v3","children":[0]},{"name":"SQDG-S-R3-Homing v3","children":[1]},{"name":"SQDG-R2-R4 v2","children":[2]},{"name":"SQDG-08u-Thumb v2","children":[3]},{"name":"SQDG-R2-R4 v2","children":[4]}],"scenes":[{"nodes":[5,6,7,8,9]}]}