{"buffers":[{"uri":"switch-holder-14x14.bin","byteLength":15192}],"asset":{"version":"2.0","generator":"gltfpack 0.16"},"bufferViews":[{"buffer":0,"byteOffset":0,"byteLength":5712,"byteStride":12,"target":34962},{"buffer":0,"byteOffset":5712,"byteLength":5712,"byteStride":12,"target":34962},{"buffer":0,"byteOffset":11424,"byteLength":3768,"target":34963}],"accessors":[{"bufferView":0,"byteOffset":0,"componentType":5126,"count":476,"type":"VEC3","min":[-0.899990022,-0.200000003,-0.899990022],"max":[0.899990022,0.0500000007,0.899990022]},{"bufferView":1,"byteOffset":0,"componentType":5126,"count":476,"type":"VEC3"},{"bufferView":2,"byteOffset":0,"componentType":5123,"count":1884,"type":"SCALAR"}],"materials":[{"pbrMetallicRoughness":{"baseColorFactor":[0.627451003,0.627451003,0.627451003,1],"metallicFactor":0},"doubleSided":true}],"meshes":[{"primitives":[{"attributes":{"POSITION":0,"NORMAL":1},"mode":4,"indices":2,"material":0}]}],"nodes":[{"mesh":0},{"children":[0]}],"scenes":[{"nodes":[1]}]}