{"buffers":[{"uri":"switch-holder-14x14.bin","byteLength":14832}],"asset":{"version":"2.0","generator":"gltfpack 0.16"},"bufferViews":[{"buffer":0,"byteOffset":0,"byteLength":5592,"byteStride":12,"target":34962},{"buffer":0,"byteOffset":5592,"byteLength":5592,"byteStride":12,"target":34962},{"buffer":0,"byteOffset":11184,"byteLength":3648,"target":34963}],"accessors":[{"bufferView":0,"byteOffset":0,"componentType":5126,"count":466,"type":"VEC3","min":[-1,-0.200000003,-1],"max":[1,0.0500000007,1]},{"bufferView":1,"byteOffset":0,"componentType":5126,"count":466,"type":"VEC3"},{"bufferView":2,"byteOffset":0,"componentType":5123,"count":1824,"type":"SCALAR"}],"materials":[{"pbrMetallicRoughness":{"baseColorFactor":[0.627451003,0.627451003,0.627451003,1],"metallicFactor":0},"doubleSided":true}],"meshes":[{"primitives":[{"attributes":{"POSITION":0,"NORMAL":1},"mode":4,"indices":2,"material":0}]}],"nodes":[{"mesh":0},{"children":[0]}],"scenes":[{"nodes":[1]}]}