{"buffers":[{"uri":"Vardera.bin","byteLength":1897968}],"asset":{"version":"2.0","generator":"gltfpack 0.16"},"bufferViews":[{"buffer":0,"byteOffset":0,"byteLength":805008,"byteStride":12,"target":34962},{"buffer":0,"byteOffset":805008,"byteLength":805008,"byteStride":12,"target":34962},{"buffer":0,"byteOffset":1610016,"byteLength":281448,"target":34963},{"buffer":0,"byteOffset":1891464,"byteLength":6504,"target":34963}],"accessors":[{"bufferView":0,"byteOffset":0,"componentType":5126,"count":65916,"type":"VEC3","min":[-0.879989982,0,-0.899990022],"max":[0.919990003,0.445730001,0.899990022]},{"bufferView":1,"byteOffset":0,"componentType":5126,"count":65916,"type":"VEC3"},{"bufferView":2,"byteOffset":0,"componentType":5125,"count":70362,"type":"SCALAR"},{"bufferView":0,"byteOffset":790992,"componentType":5126,"count":1168,"type":"VEC3","min":[-0.354999989,-0.149990007,-0.174989998],"max":[0.395000011,0.209989995,0.174989998]},{"bufferView":1,"byteOffset":790992,"componentType":5126,"count":1168,"type":"VEC3"},{"bufferView":3,"byteOffset":0,"componentType":5123,"count":3252,"type":"SCALAR"}],"materials":[{"pbrMetallicRoughness":{"baseColorFactor":[0.627451003,0.627451003,0.627451003,1],"metallicFactor":0},"doubleSided":true},{"pbrMetallicRoughness":{"baseColorFactor":[0.227450982,0.227450982,0.23137255,1],"metallicFactor":0},"doubleSided":true}],"meshes":[{"primitives":[{"attributes":{"POSITION":0,"NORMAL":1},"mode":4,"indices":2,"material":0}]},{"primitives":[{"attributes":{"POSITION":3,"NORMAL":4},"mode":4,"indices":5,"material":1}]}],"nodes":[{"mesh":0},{"mesh":1},{"name":"KLP-MX-Vardera-MS-M-1u v2","children":[0]},{"name":"Choc-Stem v5","children":[1]}],"scenes":[{"nodes":[2,3]}]}