{"buffers":[{"uri":"XDA.bin","byteLength":942972}],"asset":{"version":"2.0","generator":"gltfpack 0.16"},"bufferViews":[{"buffer":0,"byteOffset":0,"byteLength":425832,"byteStride":12,"target":34962},{"buffer":0,"byteOffset":425832,"byteLength":425832,"byteStride":12,"target":34962},{"buffer":0,"byteOffset":851664,"byteLength":91308,"target":34963}],"accessors":[{"bufferView":0,"byteOffset":0,"componentType":5126,"count":35486,"type":"VEC3","min":[-0.917377651,0.00267912704,-0.92278105],"max":[0.929892361,0.962689102,0.924488902]},{"bufferView":1,"byteOffset":0,"componentType":5126,"count":35486,"type":"VEC3"},{"bufferView":2,"byteOffset":0,"componentType":5123,"count":45654,"type":"SCALAR"}],"materials":[{"pbrMetallicRoughness":{"baseColorFactor":[0.266666681,0.588235319,0.282352954,1],"metallicFactor":0},"doubleSided":true}],"meshes":[{"primitives":[{"attributes":{"POSITION":0,"NORMAL":1},"mode":4,"indices":2,"material":0}]}],"nodes":[{"mesh":0},{"name":"XDA-1U-Master v66","children":[0]}],"scenes":[{"nodes":[1]}]}