{"buffers":[{"uri":"JWA_15u.bin","byteLength":124860}],"asset":{"version":"2.0","generator":"gltfpack 0.16"},"bufferViews":[{"buffer":0,"byteOffset":0,"byteLength":45120,"byteStride":12,"target":34962},{"buffer":0,"byteOffset":45120,"byteLength":45120,"byteStride":12,"target":34962},{"buffer":0,"byteOffset":90240,"byteLength":34620,"target":34963}],"accessors":[{"bufferView":0,"byteOffset":0,"componentType":5126,"count":3760,"type":"VEC3","min":[-1.36125004,-0.150000006,-0.907620013],"max":[1.36125004,0.491609991,0.907500029]},{"bufferView":1,"byteOffset":0,"componentType":5126,"count":3760,"type":"VEC3"},{"bufferView":2,"byteOffset":0,"componentType":5123,"count":17310,"type":"SCALAR"}],"materials":[{"pbrMetallicRoughness":{"baseColorFactor":[0.227450982,0.227450982,0.23137255,1],"metallicFactor":0},"doubleSided":true}],"meshes":[{"primitives":[{"attributes":{"POSITION":0,"NORMAL":1},"mode":4,"indices":2,"material":0}]}],"nodes":[{"mesh":0},{"children":[0]}],"scenes":[{"nodes":[1]}]}