{"buffers":[{"uri":"JWA_1u_Homing.bin","byteLength":164520}],"asset":{"version":"2.0","generator":"gltfpack 0.16"},"bufferViews":[{"buffer":0,"byteOffset":0,"byteLength":58800,"byteStride":12,"target":34962},{"buffer":0,"byteOffset":58800,"byteLength":58800,"byteStride":12,"target":34962},{"buffer":0,"byteOffset":117600,"byteLength":46920,"target":34963}],"accessors":[{"bufferView":0,"byteOffset":0,"componentType":5126,"count":4418,"type":"VEC3","min":[-0.907500029,-0.150000006,-0.907500029],"max":[0.907500029,0.491030008,0.907500029]},{"bufferView":1,"byteOffset":0,"componentType":5126,"count":4418,"type":"VEC3"},{"bufferView":2,"byteOffset":0,"componentType":5123,"count":20832,"type":"SCALAR"},{"bufferView":0,"byteOffset":53016,"componentType":5126,"count":482,"type":"VEC3","min":[-0.224989995,0.449990004,0.224989995],"max":[0.224989995,0.519990027,0.375]},{"bufferView":1,"byteOffset":53016,"componentType":5126,"count":482,"type":"VEC3"},{"bufferView":2,"byteOffset":41664,"componentType":5123,"count":2628,"type":"SCALAR"}],"materials":[{"pbrMetallicRoughness":{"baseColorFactor":[0.227450982,0.227450982,0.23137255,1],"metallicFactor":0},"doubleSided":true},{"pbrMetallicRoughness":{"baseColorFactor":[0.627451003,0.627451003,0.627451003,1],"metallicFactor":0},"doubleSided":true}],"meshes":[{"primitives":[{"attributes":{"POSITION":0,"NORMAL":1},"mode":4,"indices":2,"material":0}]},{"primitives":[{"attributes":{"POSITION":3,"NORMAL":4},"mode":4,"indices":5,"material":1}]}],"nodes":[{"mesh":0},{"mesh":1},{"children":[0]},{"children":[1]}],"scenes":[{"nodes":[2,3]}]}