{"buffers":[{"uri":"JWA_1u.bin","byteLength":147696}],"asset":{"version":"2.0","generator":"gltfpack 0.16"},"bufferViews":[{"buffer":0,"byteOffset":0,"byteLength":53016,"byteStride":12,"target":34962},{"buffer":0,"byteOffset":53016,"byteLength":53016,"byteStride":12,"target":34962},{"buffer":0,"byteOffset":106032,"byteLength":41664,"target":34963}],"accessors":[{"bufferView":0,"byteOffset":0,"componentType":5126,"count":4418,"type":"VEC3","min":[-0.907500029,-0.150000006,-0.907500029],"max":[0.907500029,0.491030008,0.907500029]},{"bufferView":1,"byteOffset":0,"componentType":5126,"count":4418,"type":"VEC3"},{"bufferView":2,"byteOffset":0,"componentType":5123,"count":20832,"type":"SCALAR"}],"materials":[{"pbrMetallicRoughness":{"baseColorFactor":[0.227450982,0.227450982,0.23137255,1],"metallicFactor":0},"doubleSided":true}],"meshes":[{"primitives":[{"attributes":{"POSITION":0,"NORMAL":1},"mode":4,"indices":2,"material":0}]}],"nodes":[{"mesh":0},{"children":[0]}],"scenes":[{"nodes":[1]}]}