{"buffers":[{"uri":"MX-Lame-Saddle-Tilted-R124.bin","byteLength":245028}],"asset":{"version":"2.0","generator":"gltfpack 0.16"},"bufferViews":[{"buffer":0,"byteOffset":0,"byteLength":86328,"byteStride":12,"target":34962},{"buffer":0,"byteOffset":86328,"byteLength":86328,"byteStride":12,"target":34962},{"buffer":0,"byteOffset":172656,"byteLength":72372,"target":34963}],"accessors":[{"bufferView":0,"byteOffset":0,"componentType":5126,"count":7194,"type":"VEC3","min":[-0.899779975,-0.899739981,-0.119989999],"max":[0.899550021,0.89982003,0.883340001]},{"bufferView":1,"byteOffset":0,"componentType":5126,"count":7194,"type":"VEC3"},{"bufferView":2,"byteOffset":0,"componentType":5123,"count":36186,"type":"SCALAR"}],"materials":[{"pbrMetallicRoughness":{"baseColorFactor":[0.627451003,0.627451003,0.627451003,1],"metallicFactor":0},"doubleSided":true}],"meshes":[{"primitives":[{"attributes":{"POSITION":0,"NORMAL":1},"mode":4,"indices":2,"material":0}]}],"nodes":[{"mesh":0},{"children":[0]}],"scenes":[{"nodes":[1]}]}