{"buffers":[{"uri":"MX-Lame-Homing-old v3.bin","byteLength":225204}],"asset":{"version":"2.0","generator":"gltfpack 0.16"},"bufferViews":[{"buffer":0,"byteOffset":0,"byteLength":79200,"byteStride":12,"target":34962},{"buffer":0,"byteOffset":79200,"byteLength":79200,"byteStride":12,"target":34962},{"buffer":0,"byteOffset":158400,"byteLength":66804,"target":34963}],"accessors":[{"bufferView":0,"byteOffset":0,"componentType":5126,"count":6600,"type":"VEC3","min":[-0.875039995,-0.824999988,-0.0700000003],"max":[0.875,0.825020015,0.561469972]},{"bufferView":1,"byteOffset":0,"componentType":5126,"count":6600,"type":"VEC3"},{"bufferView":2,"byteOffset":0,"componentType":5123,"count":33402,"type":"SCALAR"}],"materials":[{"pbrMetallicRoughness":{"baseColorFactor":[0.627451003,0.627451003,0.627451003,1],"metallicFactor":0},"doubleSided":true}],"meshes":[{"primitives":[{"attributes":{"POSITION":0,"NORMAL":1},"mode":4,"indices":2,"material":0}]}],"nodes":[{"mesh":0},{"children":[0]}],"scenes":[{"nodes":[1]}]}