{"buffers":[{"uri":"MX-Lame-Saddle-R3.bin","byteLength":230868}],"asset":{"version":"2.0","generator":"gltfpack 0.16"},"bufferViews":[{"buffer":0,"byteOffset":0,"byteLength":82128,"byteStride":12,"target":34962},{"buffer":0,"byteOffset":82128,"byteLength":82128,"byteStride":12,"target":34962},{"buffer":0,"byteOffset":164256,"byteLength":66612,"target":34963}],"accessors":[{"bufferView":0,"byteOffset":0,"componentType":5126,"count":6844,"type":"VEC3","min":[-0.875039995,-0.824999988,-0.0700000003],"max":[0.875,0.825020015,0.561469972]},{"bufferView":1,"byteOffset":0,"componentType":5126,"count":6844,"type":"VEC3"},{"bufferView":2,"byteOffset":0,"componentType":5123,"count":33306,"type":"SCALAR"}],"materials":[{"pbrMetallicRoughness":{"baseColorFactor":[0.627451003,0.627451003,0.627451003,1],"metallicFactor":0},"doubleSided":true}],"meshes":[{"primitives":[{"attributes":{"POSITION":0,"NORMAL":1},"mode":4,"indices":2,"material":0}]}],"nodes":[{"mesh":0},{"children":[0]}],"scenes":[{"nodes":[1]}]}