{"buffers":[{"uri":"MX-Lame-Saddle-Homing.bin","byteLength":247692}],"asset":{"version":"2.0","generator":"gltfpack 0.16"},"bufferViews":[{"buffer":0,"byteOffset":0,"byteLength":87912,"byteStride":12,"target":34962},{"buffer":0,"byteOffset":87912,"byteLength":87912,"byteStride":12,"target":34962},{"buffer":0,"byteOffset":175824,"byteLength":71868,"target":34963}],"accessors":[{"bufferView":0,"byteOffset":0,"componentType":5126,"count":7326,"type":"VEC3","min":[-0.875039995,0,-0.825020015],"max":[0.875,0.631470025,0.824999988]},{"bufferView":1,"byteOffset":0,"componentType":5126,"count":7326,"type":"VEC3"},{"bufferView":2,"byteOffset":0,"componentType":5123,"count":35934,"type":"SCALAR"}],"materials":[{"pbrMetallicRoughness":{"baseColorFactor":[0.627451003,0.627451003,0.627451003,1],"metallicFactor":0},"doubleSided":true}],"meshes":[{"primitives":[{"attributes":{"POSITION":0,"NORMAL":1},"mode":4,"indices":2,"material":0}]}],"nodes":[{"mesh":0},{"children":[0]}],"scenes":[{"nodes":[1]}]}