{"buffers":[{"uri":"FunkMonk_1u.bin","byteLength":203316}],"asset":{"version":"2.0","generator":"gltfpack 0.16"},"bufferViews":[{"buffer":0,"byteOffset":0,"byteLength":73812,"byteStride":12,"target":34962},{"buffer":0,"byteOffset":73812,"byteLength":73812,"byteStride":12,"target":34962},{"buffer":0,"byteOffset":147624,"byteLength":55692,"target":34963}],"accessors":[{"bufferView":0,"byteOffset":0,"componentType":5126,"count":6151,"type":"VEC3","min":[-0.894949973,0,-0.894949973],"max":[0.894949973,0.598129988,0.894949973]},{"bufferView":1,"byteOffset":0,"componentType":5126,"count":6151,"type":"VEC3"},{"bufferView":2,"byteOffset":0,"componentType":5123,"count":27846,"type":"SCALAR"}],"materials":[{"pbrMetallicRoughness":{"baseColorFactor":[0.196078435,0.196078435,0.196078435,1],"metallicFactor":0},"doubleSided":true}],"meshes":[{"primitives":[{"attributes":{"POSITION":0,"NORMAL":1},"mode":4,"indices":2,"material":0}]}],"nodes":[{"mesh":0},{"children":[0]}],"scenes":[{"nodes":[1]}]}