{"buffers":[{"uri":"FunkMonk-Homing.bin","byteLength":221652}],"asset":{"version":"2.0","generator":"gltfpack 0.16"},"bufferViews":[{"buffer":0,"byteOffset":0,"byteLength":80100,"byteStride":12,"target":34962},{"buffer":0,"byteOffset":80100,"byteLength":80100,"byteStride":12,"target":34962},{"buffer":0,"byteOffset":160200,"byteLength":61452,"target":34963}],"accessors":[{"bufferView":0,"byteOffset":0,"componentType":5126,"count":524,"type":"VEC3","min":[-0.224989995,0.479990005,0.324990004],"max":[0.224989995,0.579990029,0.47499001]},{"bufferView":1,"byteOffset":0,"componentType":5126,"count":524,"type":"VEC3"},{"bufferView":2,"byteOffset":0,"componentType":5123,"count":2880,"type":"SCALAR"},{"bufferView":0,"byteOffset":6288,"componentType":5126,"count":3640,"type":"VEC3","min":[-0.894949973,0.119989999,-0.894949973],"max":[0.894949973,0.598129988,0.894949973]},{"bufferView":1,"byteOffset":6288,"componentType":5126,"count":3640,"type":"VEC3"},{"bufferView":2,"byteOffset":5760,"componentType":5123,"count":16866,"type":"SCALAR"},{"bufferView":0,"byteOffset":49968,"componentType":5126,"count":2511,"type":"VEC3","min":[-0.319990009,0,-0.31953001],"max":[0.319990009,0.400000006,0.31953001]},{"bufferView":1,"byteOffset":49968,"componentType":5126,"count":2511,"type":"VEC3"},{"bufferView":2,"byteOffset":39492,"componentType":5123,"count":10980,"type":"SCALAR"}],"materials":[{"pbrMetallicRoughness":{"baseColorFactor":[0.627451003,0.627451003,0.627451003,1],"metallicFactor":0},"doubleSided":true},{"pbrMetallicRoughness":{"baseColorFactor":[0.196078435,0.196078435,0.196078435,1],"metallicFactor":0},"doubleSided":true}],"meshes":[{"primitives":[{"attributes":{"POSITION":0,"NORMAL":1},"mode":4,"indices":2,"material":0}]},{"primitives":[{"attributes":{"POSITION":3,"NORMAL":4},"mode":4,"indices":5,"material":1}]},{"primitives":[{"attributes":{"POSITION":6,"NORMAL":7},"mode":4,"indices":8,"material":1}]}],"nodes":[{"mesh":0},{"mesh":1},{"mesh":2},{"children":[0]},{"name":"FunkMonk-MX-M-1u v18","children":[1]},{"name":"FunkMonk-MX-M-1u v18","children":[2]}],"scenes":[{"nodes":[3,4,5]}]}