{"buffers":[{"uri":"FunkMonk_15u.bin","byteLength":187872}],"asset":{"version":"2.0","generator":"gltfpack 0.16"},"bufferViews":[{"buffer":0,"byteOffset":0,"byteLength":68400,"byteStride":12,"target":34962},{"buffer":0,"byteOffset":68400,"byteLength":68400,"byteStride":12,"target":34962},{"buffer":0,"byteOffset":136800,"byteLength":51072,"target":34963}],"accessors":[{"bufferView":0,"byteOffset":0,"componentType":5126,"count":2511,"type":"VEC3","min":[-0.319990009,0,-0.31953001],"max":[0.319990009,0.400000006,0.31953001]},{"bufferView":1,"byteOffset":0,"componentType":5126,"count":2511,"type":"VEC3"},{"bufferView":2,"byteOffset":0,"componentType":5123,"count":10980,"type":"SCALAR"},{"bufferView":0,"byteOffset":30132,"componentType":5126,"count":3189,"type":"VEC3","min":[-1.38495004,0.119989999,-0.894949973],"max":[1.38495004,0.598129988,0.894949973]},{"bufferView":1,"byteOffset":30132,"componentType":5126,"count":3189,"type":"VEC3"},{"bufferView":2,"byteOffset":21960,"componentType":5123,"count":14556,"type":"SCALAR"}],"materials":[{"pbrMetallicRoughness":{"baseColorFactor":[0.196078435,0.196078435,0.196078435,1],"metallicFactor":0},"doubleSided":true}],"meshes":[{"primitives":[{"attributes":{"POSITION":0,"NORMAL":1},"mode":4,"indices":2,"material":0}]},{"primitives":[{"attributes":{"POSITION":3,"NORMAL":4},"mode":4,"indices":5,"material":0}]}],"nodes":[{"mesh":0},{"mesh":1},{"name":"FunkMonk-MX-M-1u v15","children":[0]},{"name":"FunkMonk-MX-M-1u v15","children":[1]}],"scenes":[{"nodes":[2,3]}]}