{"buffers":[{"uri":"Non magnet Head Lofty bottom V3.bin","byteLength":26112}],"asset":{"version":"2.0","generator":"gltfpack 0.16"},"bufferViews":[{"buffer":0,"byteOffset":0,"byteLength":9696,"byteStride":12,"target":34962},{"buffer":0,"byteOffset":9696,"byteLength":9696,"byteStride":12,"target":34962},{"buffer":0,"byteOffset":19392,"byteLength":6720,"target":34963}],"accessors":[{"bufferView":0,"byteOffset":0,"componentType":5126,"count":808,"type":"VEC3","min":[0,0,0],"max":[1.76337004,0.42324999,1.06742001]},{"bufferView":1,"byteOffset":0,"componentType":5126,"count":808,"type":"VEC3"},{"bufferView":2,"byteOffset":0,"componentType":5123,"count":3360,"type":"SCALAR"}],"materials":[{"pbrMetallicRoughness":{"baseColorFactor":[0.627451003,0.627451003,0.627451003,1],"metallicFactor":0},"doubleSided":true}],"meshes":[{"primitives":[{"attributes":{"POSITION":0,"NORMAL":1},"mode":4,"indices":2,"material":0}]}],"nodes":[{"mesh":0},{"children":[0]}],"scenes":[{"nodes":[1]}]}