{"buffers":[{"uri":"Non magnet Head Lofty top V3.bin","byteLength":14976}],"asset":{"version":"2.0","generator":"gltfpack 0.16"},"bufferViews":[{"buffer":0,"byteOffset":0,"byteLength":5520,"byteStride":12,"target":34962},{"buffer":0,"byteOffset":5520,"byteLength":5520,"byteStride":12,"target":34962},{"buffer":0,"byteOffset":11040,"byteLength":3936,"target":34963}],"accessors":[{"bufferView":0,"byteOffset":0,"componentType":5126,"count":460,"type":"VEC3","min":[0,0,0],"max":[1.76337004,0.42324999,1.08683002]},{"bufferView":1,"byteOffset":0,"componentType":5126,"count":460,"type":"VEC3"},{"bufferView":2,"byteOffset":0,"componentType":5123,"count":1968,"type":"SCALAR"}],"materials":[{"pbrMetallicRoughness":{"baseColorFactor":[0.627451003,0.627451003,0.627451003,1],"metallicFactor":0},"doubleSided":true}],"meshes":[{"primitives":[{"attributes":{"POSITION":0,"NORMAL":1},"mode":4,"indices":2,"material":0}]}],"nodes":[{"mesh":0},{"children":[0]}],"scenes":[{"nodes":[1]}]}