{"buffers":[{"uri":"Round Face.bin","byteLength":26396}],"asset":{"version":"2.0","generator":"gltfpack 0.16"},"bufferViews":[{"buffer":0,"byteOffset":0,"byteLength":10860,"byteStride":12,"target":34962},{"buffer":0,"byteOffset":10860,"byteLength":10860,"byteStride":12,"target":34962},{"buffer":0,"byteOffset":21720,"byteLength":4674,"target":34963}],"accessors":[{"bufferView":0,"byteOffset":0,"componentType":5126,"count":905,"type":"VEC3","min":[-0.00502000004,0,0],"max":[2.398,0.423260003,1.20155001]},{"bufferView":1,"byteOffset":0,"componentType":5126,"count":905,"type":"VEC3"},{"bufferView":2,"byteOffset":0,"componentType":5123,"count":2337,"type":"SCALAR"}],"materials":[{"pbrMetallicRoughness":{"baseColorFactor":[0.627451003,0.627451003,0.627451003,1],"metallicFactor":0},"doubleSided":true}],"meshes":[{"primitives":[{"attributes":{"POSITION":0,"NORMAL":1},"mode":4,"indices":2,"material":0}]}],"nodes":[{"mesh":0},{"children":[0]}],"scenes":[{"nodes":[1]}]}