{"buffers":[{"uri":"SQDG-R2-R4.bin","byteLength":47724}],"asset":{"version":"2.0","generator":"gltfpack 0.16"},"bufferViews":[{"buffer":0,"byteOffset":0,"byteLength":19932,"byteStride":12,"target":34962},{"buffer":0,"byteOffset":19932,"byteLength":19932,"byteStride":12,"target":34962},{"buffer":0,"byteOffset":39864,"byteLength":7860,"target":34963}],"accessors":[{"bufferView":0,"byteOffset":0,"componentType":5126,"count":493,"type":"VEC3","min":[-0.687489986,-0.100000001,-0.637499988],"max":[0.6875,0.349999994,0.637499988]},{"bufferView":1,"byteOffset":0,"componentType":5126,"count":493,"type":"VEC3"},{"bufferView":2,"byteOffset":0,"componentType":5123,"count":678,"type":"SCALAR"},{"bufferView":0,"byteOffset":5916,"componentType":5126,"count":1168,"type":"VEC3","min":[-0.375,-0.34999001,-0.174989998],"max":[0.375,0.00999000017,0.174989998]},{"bufferView":1,"byteOffset":5916,"componentType":5126,"count":1168,"type":"VEC3"},{"bufferView":2,"byteOffset":1356,"componentType":5123,"count":3252,"type":"SCALAR"}],"materials":[{"pbrMetallicRoughness":{"baseColorFactor":[0.227450982,0.227450982,0.23137255,1],"metallicFactor":0},"doubleSided":true}],"meshes":[{"primitives":[{"attributes":{"POSITION":0,"NORMAL":1},"mode":4,"indices":2,"material":0}]},{"primitives":[{"attributes":{"POSITION":3,"NORMAL":4},"mode":4,"indices":5,"material":0}]}],"nodes":[{"mesh":0},{"mesh":1},{"children":[0]},{"name":"Choc-Stem v5","children":[1]}],"scenes":[{"nodes":[2,3]}]}