{"buffers":[{"uri":"SQDG-M-R3.bin","byteLength":71244}],"asset":{"version":"2.0","generator":"gltfpack 0.16"},"bufferViews":[{"buffer":0,"byteOffset":0,"byteLength":30660,"byteStride":12,"target":34962},{"buffer":0,"byteOffset":30660,"byteLength":30660,"byteStride":12,"target":34962},{"buffer":0,"byteOffset":61320,"byteLength":9924,"target":34963}],"accessors":[{"bufferView":0,"byteOffset":0,"componentType":5126,"count":1387,"type":"VEC3","min":[-0.637489974,-0.100000001,-0.6875],"max":[0.637489974,0.200939998,0.687489986]},{"bufferView":1,"byteOffset":0,"componentType":5126,"count":1387,"type":"VEC3"},{"bufferView":2,"byteOffset":0,"componentType":5123,"count":1710,"type":"SCALAR"},{"bufferView":0,"byteOffset":16644,"componentType":5126,"count":1168,"type":"VEC3","min":[-0.174989998,-0.34999001,-0.375],"max":[0.174989998,0.00999000017,0.375]},{"bufferView":1,"byteOffset":16644,"componentType":5126,"count":1168,"type":"VEC3"},{"bufferView":2,"byteOffset":3420,"componentType":5123,"count":3252,"type":"SCALAR"}],"materials":[{"pbrMetallicRoughness":{"baseColorFactor":[0.227450982,0.227450982,0.23137255,1],"metallicFactor":0},"doubleSided":true}],"meshes":[{"primitives":[{"attributes":{"POSITION":0,"NORMAL":1},"mode":4,"indices":2,"material":0}]},{"primitives":[{"attributes":{"POSITION":3,"NORMAL":4},"mode":4,"indices":5,"material":0}]}],"nodes":[{"mesh":0},{"mesh":1},{"children":[0]},{"name":"Choc-Stem v5","children":[1]}],"scenes":[{"nodes":[2,3]}]}