{"buffers":[{"uri":"SQDG-1u-Thumb.bin","byteLength":77028}],"asset":{"version":"2.0","generator":"gltfpack 0.16"},"bufferViews":[{"buffer":0,"byteOffset":0,"byteLength":33084,"byteStride":12,"target":34962},{"buffer":0,"byteOffset":33084,"byteLength":33084,"byteStride":12,"target":34962},{"buffer":0,"byteOffset":66168,"byteLength":10860,"target":34963}],"accessors":[{"bufferView":0,"byteOffset":0,"componentType":5126,"count":1589,"type":"VEC3","min":[-0.689989984,-0.100000001,-0.860620022],"max":[0.689989984,0.354440004,0.860620022]},{"bufferView":1,"byteOffset":0,"componentType":5126,"count":1589,"type":"VEC3"},{"bufferView":2,"byteOffset":0,"componentType":5123,"count":2178,"type":"SCALAR"},{"bufferView":0,"byteOffset":19068,"componentType":5126,"count":1168,"type":"VEC3","min":[-0.174989998,-0.34999001,-0.375],"max":[0.174989998,0.00999000017,0.375]},{"bufferView":1,"byteOffset":19068,"componentType":5126,"count":1168,"type":"VEC3"},{"bufferView":2,"byteOffset":4356,"componentType":5123,"count":3252,"type":"SCALAR"}],"materials":[{"pbrMetallicRoughness":{"baseColorFactor":[0.227450982,0.227450982,0.23137255,1],"metallicFactor":0},"doubleSided":true}],"meshes":[{"primitives":[{"attributes":{"POSITION":0,"NORMAL":1},"mode":4,"indices":2,"material":0}]},{"primitives":[{"attributes":{"POSITION":3,"NORMAL":4},"mode":4,"indices":5,"material":0}]}],"nodes":[{"mesh":0},{"mesh":1},{"children":[0]},{"name":"Choc-Stem v5","children":[1]}],"scenes":[{"nodes":[2,3]}]}