{"buffers":[{"uri":"Chicago-R3-1u-Homing.bin","byteLength":2458560}],"asset":{"version":"2.0","generator":"gltfpack 0.16"},"bufferViews":[{"buffer":0,"byteOffset":0,"byteLength":1047432,"byteStride":12,"target":34962},{"buffer":0,"byteOffset":1047432,"byteLength":1047432,"byteStride":12,"target":34962},{"buffer":0,"byteOffset":2094864,"byteLength":356208,"target":34963},{"buffer":0,"byteOffset":2451072,"byteLength":7488,"target":34963}],"accessors":[{"bufferView":0,"byteOffset":0,"componentType":5126,"count":85954,"type":"VEC3","min":[-0.864950001,-0.190109998,-0.804929972],"max":[0.864950001,0.271670014,0.805239975]},{"bufferView":1,"byteOffset":0,"componentType":5126,"count":85954,"type":"VEC3"},{"bufferView":2,"byteOffset":0,"componentType":5125,"count":89052,"type":"SCALAR"},{"bufferView":0,"byteOffset":1031448,"componentType":5126,"count":164,"type":"VEC3","min":[-0.224989995,0.100000001,0.375],"max":[0.224989995,0.209989995,0.524990022]},{"bufferView":1,"byteOffset":1031448,"componentType":5126,"count":164,"type":"VEC3"},{"bufferView":3,"byteOffset":0,"componentType":5123,"count":492,"type":"SCALAR"},{"bufferView":0,"byteOffset":1033416,"componentType":5126,"count":1168,"type":"VEC3","min":[-0.375,-0.34999001,-0.174989998],"max":[0.375,0.00999000017,0.174989998]},{"bufferView":1,"byteOffset":1033416,"componentType":5126,"count":1168,"type":"VEC3"},{"bufferView":3,"byteOffset":984,"componentType":5123,"count":3252,"type":"SCALAR"}],"materials":[{"pbrMetallicRoughness":{"baseColorFactor":[0.854901969,0.349019617,0.349019617,1],"metallicFactor":0},"doubleSided":true},{"pbrMetallicRoughness":{"baseColorFactor":[0.627451003,0.627451003,0.627451003,1],"metallicFactor":0},"doubleSided":true},{"pbrMetallicRoughness":{"baseColorFactor":[0.227450982,0.227450982,0.23137255,1],"metallicFactor":0},"doubleSided":true}],"meshes":[{"primitives":[{"attributes":{"POSITION":0,"NORMAL":1},"mode":4,"indices":2,"material":0}]},{"primitives":[{"attributes":{"POSITION":3,"NORMAL":4},"mode":4,"indices":5,"material":1}]},{"primitives":[{"attributes":{"POSITION":6,"NORMAL":7},"mode":4,"indices":8,"material":2}]}],"nodes":[{"mesh":0},{"mesh":1},{"mesh":2},{"children":[0]},{"children":[1]},{"name":"Choc-Stem v6","children":[2]}],"scenes":[{"nodes":[3,4,5]}]}