{"buffers":[{"uri":"Chicago-R3-1u.bin","byteLength":2453640}],"asset":{"version":"2.0","generator":"gltfpack 0.16"},"bufferViews":[{"buffer":0,"byteOffset":0,"byteLength":1045464,"byteStride":12,"target":34962},{"buffer":0,"byteOffset":1045464,"byteLength":1045464,"byteStride":12,"target":34962},{"buffer":0,"byteOffset":2090928,"byteLength":356208,"target":34963},{"buffer":0,"byteOffset":2447136,"byteLength":6504,"target":34963}],"accessors":[{"bufferView":0,"byteOffset":0,"componentType":5126,"count":85954,"type":"VEC3","min":[-0.864950001,-0.190109998,-0.804929972],"max":[0.864950001,0.271670014,0.805239975]},{"bufferView":1,"byteOffset":0,"componentType":5126,"count":85954,"type":"VEC3"},{"bufferView":2,"byteOffset":0,"componentType":5125,"count":89052,"type":"SCALAR"},{"bufferView":0,"byteOffset":1031448,"componentType":5126,"count":1168,"type":"VEC3","min":[-0.375,-0.34999001,-0.174989998],"max":[0.375,0.00999000017,0.174989998]},{"bufferView":1,"byteOffset":1031448,"componentType":5126,"count":1168,"type":"VEC3"},{"bufferView":3,"byteOffset":0,"componentType":5123,"count":3252,"type":"SCALAR"}],"materials":[{"pbrMetallicRoughness":{"baseColorFactor":[0.854901969,0.349019617,0.349019617,1],"metallicFactor":0},"doubleSided":true},{"pbrMetallicRoughness":{"baseColorFactor":[0.227450982,0.227450982,0.23137255,1],"metallicFactor":0},"doubleSided":true}],"meshes":[{"primitives":[{"attributes":{"POSITION":0,"NORMAL":1},"mode":4,"indices":2,"material":0}]},{"primitives":[{"attributes":{"POSITION":3,"NORMAL":4},"mode":4,"indices":5,"material":1}]}],"nodes":[{"mesh":0},{"mesh":1},{"children":[0]},{"name":"Choc-Stem v5","children":[1]}],"scenes":[{"nodes":[2,3]}]}