{"buffers":[{"uri":"DES-R3-1u-Homing.bin","byteLength":4197768}],"asset":{"version":"2.0","generator":"gltfpack 0.16"},"bufferViews":[{"buffer":0,"byteOffset":0,"byteLength":1779852,"byteStride":12,"target":34962},{"buffer":0,"byteOffset":1779852,"byteLength":1779852,"byteStride":12,"target":34962},{"buffer":0,"byteOffset":3559704,"byteLength":638064,"target":34963}],"accessors":[{"bufferView":0,"byteOffset":0,"componentType":5126,"count":148321,"type":"VEC3","min":[-0.903630018,0,-0.904630005],"max":[0.903630018,0.858730018,0.906520009]},{"bufferView":1,"byteOffset":0,"componentType":5126,"count":148321,"type":"VEC3"},{"bufferView":2,"byteOffset":0,"componentType":5125,"count":159516,"type":"SCALAR"}],"materials":[{"pbrMetallicRoughness":{"baseColorFactor":[0.627451003,0.627451003,0.627451003,1],"metallicFactor":0},"doubleSided":true}],"meshes":[{"primitives":[{"attributes":{"POSITION":0,"NORMAL":1},"mode":4,"indices":2,"material":0}]}],"nodes":[{"mesh":0},{"children":[0]}],"scenes":[{"nodes":[1]}]}