{"buffers":[{"uri":"DES-R3-175u.bin","byteLength":2769360}],"asset":{"version":"2.0","generator":"gltfpack 0.16"},"bufferViews":[{"buffer":0,"byteOffset":0,"byteLength":1167060,"byteStride":12,"target":34962},{"buffer":0,"byteOffset":1167060,"byteLength":1167060,"byteStride":12,"target":34962},{"buffer":0,"byteOffset":2334120,"byteLength":435240,"target":34963}],"accessors":[{"bufferView":0,"byteOffset":0,"componentType":5126,"count":97255,"type":"VEC3","min":[-1.61628997,0,-0.905910015],"max":[1.61628997,0.872560024,0.907980025]},{"bufferView":1,"byteOffset":0,"componentType":5126,"count":97255,"type":"VEC3"},{"bufferView":2,"byteOffset":0,"componentType":5125,"count":108810,"type":"SCALAR"}],"materials":[{"pbrMetallicRoughness":{"baseColorFactor":[0.627451003,0.627451003,0.627451003,1],"metallicFactor":0},"doubleSided":true}],"meshes":[{"primitives":[{"attributes":{"POSITION":0,"NORMAL":1},"mode":4,"indices":2,"material":0}]}],"nodes":[{"mesh":0},{"children":[0]}],"scenes":[{"nodes":[1]}]}