{"buffers":[{"uri":"DES-R5-625u.bin","byteLength":2912664}],"asset":{"version":"2.0","generator":"gltfpack 0.16"},"bufferViews":[{"buffer":0,"byteOffset":0,"byteLength":1229568,"byteStride":12,"target":34962},{"buffer":0,"byteOffset":1229568,"byteLength":1229568,"byteStride":12,"target":34962},{"buffer":0,"byteOffset":2459136,"byteLength":387816,"target":34963},{"buffer":0,"byteOffset":2846952,"byteLength":65712,"target":34963}],"accessors":[{"bufferView":0,"byteOffset":0,"componentType":5126,"count":85861,"type":"VEC3","min":[-5.8945899,0,-0.905560017],"max":[5.8945899,1.14573002,0.905560017]},{"bufferView":1,"byteOffset":0,"componentType":5126,"count":85861,"type":"VEC3"},{"bufferView":2,"byteOffset":0,"componentType":5125,"count":96954,"type":"SCALAR"},{"bufferView":0,"byteOffset":1030332,"componentType":5126,"count":3240,"type":"VEC3","min":[-3.31500006,0,-0.905560017],"max":[3.31500006,1.08495998,0.905560017]},{"bufferView":1,"byteOffset":1030332,"componentType":5126,"count":3240,"type":"VEC3"},{"bufferView":3,"byteOffset":0,"componentType":5123,"count":11310,"type":"SCALAR"},{"bufferView":0,"byteOffset":1069212,"componentType":5126,"count":13363,"type":"VEC3","min":[3.31500006,0,-0.795360029],"max":[5.73343992,1.14576006,0.762499988]},{"bufferView":1,"byteOffset":1069212,"componentType":5126,"count":13363,"type":"VEC3"},{"bufferView":3,"byteOffset":22620,"componentType":5123,"count":21546,"type":"SCALAR"}],"materials":[{"pbrMetallicRoughness":{"baseColorFactor":[0.627451003,0.627451003,0.627451003,1],"metallicFactor":0},"doubleSided":true}],"meshes":[{"primitives":[{"attributes":{"POSITION":0,"NORMAL":1},"mode":4,"indices":2,"material":0}]},{"primitives":[{"attributes":{"POSITION":3,"NORMAL":4},"mode":4,"indices":5,"material":0}]},{"primitives":[{"attributes":{"POSITION":6,"NORMAL":7},"mode":4,"indices":8,"material":0}]}],"nodes":[{"mesh":0},{"mesh":1},{"mesh":2},{"children":[0]},{"name":"DES-R5-Stem v4","children":[1]},{"name":"DES-R5-Stem v4 (1)","children":[2]}],"scenes":[{"nodes":[3,4,5]}]}