{"buffers":[{"uri":"DES-R1-2u.bin","byteLength":2845560}],"asset":{"version":"2.0","generator":"gltfpack 0.16"},"bufferViews":[{"buffer":0,"byteOffset":0,"byteLength":1177596,"byteStride":12,"target":34962},{"buffer":0,"byteOffset":1177596,"byteLength":1177596,"byteStride":12,"target":34962},{"buffer":0,"byteOffset":2355192,"byteLength":490368,"target":34963}],"accessors":[{"bufferView":0,"byteOffset":0,"componentType":5126,"count":98133,"type":"VEC3","min":[-1.85940003,0,-0.907500029],"max":[1.85940003,1.70074999,0.907389998]},{"bufferView":1,"byteOffset":0,"componentType":5126,"count":98133,"type":"VEC3"},{"bufferView":2,"byteOffset":0,"componentType":5125,"count":122592,"type":"SCALAR"}],"materials":[{"pbrMetallicRoughness":{"baseColorFactor":[0.627451003,0.627451003,0.627451003,1],"metallicFactor":0},"doubleSided":true}],"meshes":[{"primitives":[{"attributes":{"POSITION":0,"NORMAL":1},"mode":4,"indices":2,"material":0}]}],"nodes":[{"mesh":0},{"children":[0]}],"scenes":[{"nodes":[1]}]}