{"buffers":[{"uri":"DES-R4-225u.bin","byteLength":2898552}],"asset":{"version":"2.0","generator":"gltfpack 0.16"},"bufferViews":[{"buffer":0,"byteOffset":0,"byteLength":1199664,"byteStride":12,"target":34962},{"buffer":0,"byteOffset":1199664,"byteLength":1199664,"byteStride":12,"target":34962},{"buffer":0,"byteOffset":2399328,"byteLength":499224,"target":34963}],"accessors":[{"bufferView":0,"byteOffset":0,"componentType":5126,"count":99972,"type":"VEC3","min":[-2.09448004,0,-0.905300021],"max":[2.09448004,1.11749005,0.905350029]},{"bufferView":1,"byteOffset":0,"componentType":5126,"count":99972,"type":"VEC3"},{"bufferView":2,"byteOffset":0,"componentType":5125,"count":124806,"type":"SCALAR"}],"materials":[{"pbrMetallicRoughness":{"baseColorFactor":[0.627451003,0.627451003,0.627451003,1],"metallicFactor":0},"doubleSided":true}],"meshes":[{"primitives":[{"attributes":{"POSITION":0,"NORMAL":1},"mode":4,"indices":2,"material":0}]}],"nodes":[{"mesh":0},{"children":[0]}],"scenes":[{"nodes":[1]}]}