{"buffers":[{"uri":"DES-R2-15u.bin","byteLength":2588856}],"asset":{"version":"2.0","generator":"gltfpack 0.16"},"bufferViews":[{"buffer":0,"byteOffset":0,"byteLength":1095228,"byteStride":12,"target":34962},{"buffer":0,"byteOffset":1095228,"byteLength":1095228,"byteStride":12,"target":34962},{"buffer":0,"byteOffset":2190456,"byteLength":398400,"target":34963}],"accessors":[{"bufferView":0,"byteOffset":0,"componentType":5126,"count":91269,"type":"VEC3","min":[-1.37915003,0,-0.904659986],"max":[1.37915003,1.08629,0.904690027]},{"bufferView":1,"byteOffset":0,"componentType":5126,"count":91269,"type":"VEC3"},{"bufferView":2,"byteOffset":0,"componentType":5125,"count":99600,"type":"SCALAR"}],"materials":[{"pbrMetallicRoughness":{"baseColorFactor":[0.627451003,0.627451003,0.627451003,1],"metallicFactor":0},"doubleSided":true}],"meshes":[{"primitives":[{"attributes":{"POSITION":0,"NORMAL":1},"mode":4,"indices":2,"material":0}]}],"nodes":[{"mesh":0},{"name":"DES-R2-Stem v3","children":[0]}],"scenes":[{"nodes":[1]}]}