{"buffers":[{"uri":"DES-R3-225u.bin","byteLength":2906136}],"asset":{"version":"2.0","generator":"gltfpack 0.16"},"bufferViews":[{"buffer":0,"byteOffset":0,"byteLength":1202940,"byteStride":12,"target":34962},{"buffer":0,"byteOffset":1202940,"byteLength":1202940,"byteStride":12,"target":34962},{"buffer":0,"byteOffset":2405880,"byteLength":500256,"target":34963}],"accessors":[{"bufferView":0,"byteOffset":0,"componentType":5126,"count":100245,"type":"VEC3","min":[-2.08512998,0,-0.906140029],"max":[2.09851003,0.897230029,0.908219993]},{"bufferView":1,"byteOffset":0,"componentType":5126,"count":100245,"type":"VEC3"},{"bufferView":2,"byteOffset":0,"componentType":5125,"count":125064,"type":"SCALAR"}],"materials":[{"pbrMetallicRoughness":{"baseColorFactor":[0.627451003,0.627451003,0.627451003,1],"metallicFactor":0},"doubleSided":true}],"meshes":[{"primitives":[{"attributes":{"POSITION":0,"NORMAL":1},"mode":4,"indices":2,"material":0}]}],"nodes":[{"mesh":0},{"children":[0]}],"scenes":[{"nodes":[1]}]}