{"buffers":[{"uri":"DES-R5.bin","byteLength":4171488}],"asset":{"version":"2.0","generator":"gltfpack 0.16"},"bufferViews":[{"buffer":0,"byteOffset":0,"byteLength":1771752,"byteStride":12,"target":34962},{"buffer":0,"byteOffset":1771752,"byteLength":1771752,"byteStride":12,"target":34962},{"buffer":0,"byteOffset":3543504,"byteLength":627984,"target":34963}],"accessors":[{"bufferView":0,"byteOffset":0,"componentType":5126,"count":147646,"type":"VEC3","min":[-0.903630018,-0.00124000001,-0.903630018],"max":[0.903630018,1.12161005,0.903630018]},{"bufferView":1,"byteOffset":0,"componentType":5126,"count":147646,"type":"VEC3"},{"bufferView":2,"byteOffset":0,"componentType":5125,"count":156996,"type":"SCALAR"}],"materials":[{"pbrMetallicRoughness":{"baseColorFactor":[0.53725493,0.53725493,0.53725493,1],"metallicFactor":0},"doubleSided":true}],"meshes":[{"primitives":[{"attributes":{"POSITION":0,"NORMAL":1},"mode":4,"indices":2,"material":0}]}],"nodes":[{"mesh":0},{"children":[0]}],"scenes":[{"nodes":[1]}]}