{"buffers":[{"uri":"DES-R3-1u.bin","byteLength":4157064}],"asset":{"version":"2.0","generator":"gltfpack 0.16"},"bufferViews":[{"buffer":0,"byteOffset":0,"byteLength":1762296,"byteStride":12,"target":34962},{"buffer":0,"byteOffset":1762296,"byteLength":1762296,"byteStride":12,"target":34962},{"buffer":0,"byteOffset":3524592,"byteLength":632472,"target":34963}],"accessors":[{"bufferView":0,"byteOffset":0,"componentType":5126,"count":146858,"type":"VEC3","min":[-0.901130021,0,-0.901629984],"max":[0.906130016,0.858730018,0.90951997]},{"bufferView":1,"byteOffset":0,"componentType":5126,"count":146858,"type":"VEC3"},{"bufferView":2,"byteOffset":0,"componentType":5125,"count":158118,"type":"SCALAR"}],"materials":[{"pbrMetallicRoughness":{"baseColorFactor":[0.53725493,0.53725493,0.53725493,1],"metallicFactor":0},"doubleSided":true}],"meshes":[{"primitives":[{"attributes":{"POSITION":0,"NORMAL":1},"mode":4,"indices":2,"material":0}]}],"nodes":[{"mesh":0},{"children":[0]}],"scenes":[{"nodes":[1]}]}