{"buffers":[{"uri":"DES-Convex-15u.bin","byteLength":2857200}],"asset":{"version":"2.0","generator":"gltfpack 0.16"},"bufferViews":[{"buffer":0,"byteOffset":0,"byteLength":1207020,"byteStride":12,"target":34962},{"buffer":0,"byteOffset":1207020,"byteLength":1207020,"byteStride":12,"target":34962},{"buffer":0,"byteOffset":2414040,"byteLength":443160,"target":34963}],"accessors":[{"bufferView":0,"byteOffset":0,"componentType":5126,"count":100585,"type":"VEC3","min":[-1.37917995,-0.00707999989,-0.904340029],"max":[1.37911999,0.954680026,0.904980004]},{"bufferView":1,"byteOffset":0,"componentType":5126,"count":100585,"type":"VEC3"},{"bufferView":2,"byteOffset":0,"componentType":5125,"count":110790,"type":"SCALAR"}],"materials":[{"pbrMetallicRoughness":{"baseColorFactor":[0.627451003,0.627451003,0.627451003,1],"metallicFactor":0},"doubleSided":true}],"meshes":[{"primitives":[{"attributes":{"POSITION":0,"NORMAL":1},"mode":4,"indices":2,"material":0}]}],"nodes":[{"mesh":0},{"children":[0]}],"scenes":[{"nodes":[1]}]}