{"buffers":[{"uri":"DES-R2-1u.bin","byteLength":4011216}],"asset":{"version":"2.0","generator":"gltfpack 0.16"},"bufferViews":[{"buffer":0,"byteOffset":0,"byteLength":1700004,"byteStride":12,"target":34962},{"buffer":0,"byteOffset":1700004,"byteLength":1700004,"byteStride":12,"target":34962},{"buffer":0,"byteOffset":3400008,"byteLength":611208,"target":34963}],"accessors":[{"bufferView":0,"byteOffset":0,"componentType":5126,"count":141667,"type":"VEC3","min":[-0.903630018,0,-0.903609991],"max":[0.903630018,1.06227005,0.903620005]},{"bufferView":1,"byteOffset":0,"componentType":5126,"count":141667,"type":"VEC3"},{"bufferView":2,"byteOffset":0,"componentType":5125,"count":152802,"type":"SCALAR"}],"materials":[{"pbrMetallicRoughness":{"baseColorFactor":[0.53725493,0.53725493,0.53725493,1],"metallicFactor":0},"doubleSided":true}],"meshes":[{"primitives":[{"attributes":{"POSITION":0,"NORMAL":1},"mode":4,"indices":2,"material":0}]}],"nodes":[{"mesh":0},{"children":[0]}],"scenes":[{"nodes":[1]}]}