{"buffers":[{"uri":"DES-R1-1u.bin","byteLength":4074264}],"asset":{"version":"2.0","generator":"gltfpack 0.16"},"bufferViews":[{"buffer":0,"byteOffset":0,"byteLength":1727952,"byteStride":12,"target":34962},{"buffer":0,"byteOffset":1727952,"byteLength":1727952,"byteStride":12,"target":34962},{"buffer":0,"byteOffset":3455904,"byteLength":618360,"target":34963}],"accessors":[{"bufferView":0,"byteOffset":0,"componentType":5126,"count":143996,"type":"VEC3","min":[-0.903630018,-0.00459000003,-0.904609978],"max":[0.903630018,1.66822004,0.905809999]},{"bufferView":1,"byteOffset":0,"componentType":5126,"count":143996,"type":"VEC3"},{"bufferView":2,"byteOffset":0,"componentType":5125,"count":154590,"type":"SCALAR"}],"materials":[{"pbrMetallicRoughness":{"baseColorFactor":[0.53725493,0.53725493,0.53725493,1],"metallicFactor":0},"doubleSided":true}],"meshes":[{"primitives":[{"attributes":{"POSITION":0,"NORMAL":1},"mode":4,"indices":2,"material":0}]}],"nodes":[{"mesh":0},{"children":[0]}],"scenes":[{"nodes":[1]}]}