{"buffers":[{"uri":"DES-Convex-1u.bin","byteLength":2526264}],"asset":{"version":"2.0","generator":"gltfpack 0.16"},"bufferViews":[{"buffer":0,"byteOffset":0,"byteLength":1065264,"byteStride":12,"target":34962},{"buffer":0,"byteOffset":1065264,"byteLength":1065264,"byteStride":12,"target":34962},{"buffer":0,"byteOffset":2130528,"byteLength":395736,"target":34963}],"accessors":[{"bufferView":0,"byteOffset":0,"componentType":5126,"count":88772,"type":"VEC3","min":[-0.903630018,-0.00775999995,-0.903630018],"max":[0.903630018,1.02399004,0.903630018]},{"bufferView":1,"byteOffset":0,"componentType":5126,"count":88772,"type":"VEC3"},{"bufferView":2,"byteOffset":0,"componentType":5125,"count":98934,"type":"SCALAR"}],"materials":[{"pbrMetallicRoughness":{"baseColorFactor":[0.627451003,0.627451003,0.627451003,1],"metallicFactor":0},"doubleSided":true}],"meshes":[{"primitives":[{"attributes":{"POSITION":0,"NORMAL":1},"mode":4,"indices":2,"material":0}]}],"nodes":[{"mesh":0},{"children":[0]}],"scenes":[{"nodes":[1]}]}