{"buffers":[{"uri":"DES-R4-1u.bin","byteLength":4109280}],"asset":{"version":"2.0","generator":"gltfpack 0.16"},"bufferViews":[{"buffer":0,"byteOffset":0,"byteLength":1742004,"byteStride":12,"target":34962},{"buffer":0,"byteOffset":1742004,"byteLength":1742004,"byteStride":12,"target":34962},{"buffer":0,"byteOffset":3484008,"byteLength":625272,"target":34963}],"accessors":[{"bufferView":0,"byteOffset":0,"componentType":5126,"count":145167,"type":"VEC3","min":[-0.903639972,-0.00185,-0.903739989],"max":[0.903620005,1.10284996,0.903509974]},{"bufferView":1,"byteOffset":0,"componentType":5126,"count":145167,"type":"VEC3"},{"bufferView":2,"byteOffset":0,"componentType":5125,"count":156318,"type":"SCALAR"}],"materials":[{"pbrMetallicRoughness":{"baseColorFactor":[0.53725493,0.53725493,0.53725493,1],"metallicFactor":0},"doubleSided":true}],"meshes":[{"primitives":[{"attributes":{"POSITION":0,"NORMAL":1},"mode":4,"indices":2,"material":0}]}],"nodes":[{"mesh":0},{"children":[0]}],"scenes":[{"nodes":[1]}]}