{"buffers":[{"uri":"DES-R5-125u.bin","byteLength":2580600}],"asset":{"version":"2.0","generator":"gltfpack 0.16"},"bufferViews":[{"buffer":0,"byteOffset":0,"byteLength":1092000,"byteStride":12,"target":34962},{"buffer":0,"byteOffset":1092000,"byteLength":1092000,"byteStride":12,"target":34962},{"buffer":0,"byteOffset":2184000,"byteLength":396600,"target":34963}],"accessors":[{"bufferView":0,"byteOffset":0,"componentType":5126,"count":91000,"type":"VEC3","min":[-1.13893998,0,-0.904309988],"max":[1.13893998,1.13013005,0.904200017]},{"bufferView":1,"byteOffset":0,"componentType":5126,"count":91000,"type":"VEC3"},{"bufferView":2,"byteOffset":0,"componentType":5125,"count":99150,"type":"SCALAR"}],"materials":[{"pbrMetallicRoughness":{"baseColorFactor":[0.627451003,0.627451003,0.627451003,1],"metallicFactor":0},"doubleSided":true}],"meshes":[{"primitives":[{"attributes":{"POSITION":0,"NORMAL":1},"mode":4,"indices":2,"material":0}]}],"nodes":[{"mesh":0},{"children":[0]}],"scenes":[{"nodes":[1]}]}