{"buffers":[{"uri":"Holder-DES-R2.bin","byteLength":39048}],"asset":{"version":"2.0","generator":"gltfpack 0.16"},"bufferViews":[{"buffer":0,"byteOffset":0,"byteLength":14112,"byteStride":12,"target":34962},{"buffer":0,"byteOffset":14112,"byteLength":14112,"byteStride":12,"target":34962},{"buffer":0,"byteOffset":28224,"byteLength":10824,"target":34963}],"accessors":[{"bufferView":0,"byteOffset":0,"componentType":5126,"count":1176,"type":"VEC3","min":[-1.04999006,0,-1.04999006],"max":[1.04999006,1.34078002,1.04999006]},{"bufferView":1,"byteOffset":0,"componentType":5126,"count":1176,"type":"VEC3"},{"bufferView":2,"byteOffset":0,"componentType":5123,"count":5412,"type":"SCALAR"}],"materials":[{"pbrMetallicRoughness":{"baseColorFactor":[0.227450982,0.227450982,0.23137255,1],"metallicFactor":0},"doubleSided":true}],"meshes":[{"primitives":[{"attributes":{"POSITION":0,"NORMAL":1},"mode":4,"indices":2,"material":0}]}],"nodes":[{"mesh":0},{"children":[0]}],"scenes":[{"nodes":[1]}]}