{"buffers":[{"uri":"MX-Lame-Extended-Saddle-Tilted-R12.bin","byteLength":303936}],"asset":{"version":"2.0","generator":"gltfpack 0.16"},"bufferViews":[{"buffer":0,"byteOffset":0,"byteLength":108600,"byteStride":12,"target":34962},{"buffer":0,"byteOffset":108600,"byteLength":108600,"byteStride":12,"target":34962},{"buffer":0,"byteOffset":217200,"byteLength":86736,"target":34963}],"accessors":[{"bufferView":0,"byteOffset":0,"componentType":5126,"count":6546,"type":"VEC3","min":[-0.89982003,0.00999000017,-0.899619997],"max":[0.899469972,1.01334,0.899940014]},{"bufferView":1,"byteOffset":0,"componentType":5126,"count":6546,"type":"VEC3"},{"bufferView":2,"byteOffset":0,"componentType":5123,"count":32766,"type":"SCALAR"},{"bufferView":0,"byteOffset":78552,"componentType":5126,"count":2504,"type":"VEC3","min":[-0.370000005,0,-0.369450003],"max":[0.370000005,0.409990013,0.369450003]},{"bufferView":1,"byteOffset":78552,"componentType":5126,"count":2504,"type":"VEC3"},{"bufferView":2,"byteOffset":65532,"componentType":5123,"count":10602,"type":"SCALAR"}],"materials":[{"pbrMetallicRoughness":{"baseColorFactor":[0.627451003,0.627451003,0.627451003,1],"metallicFactor":0},"doubleSided":true},{"pbrMetallicRoughness":{"baseColorFactor":[0.227450982,0.227450982,0.23137255,1],"metallicFactor":0},"doubleSided":true}],"meshes":[{"primitives":[{"attributes":{"POSITION":0,"NORMAL":1},"mode":4,"indices":2,"material":0}]},{"primitives":[{"attributes":{"POSITION":3,"NORMAL":4},"mode":4,"indices":5,"material":1}]}],"nodes":[{"mesh":0},{"mesh":1},{"children":[0]},{"name":"MX-Lame-entended-Stem v2","children":[1]}],"scenes":[{"nodes":[2,3]}]}