{"buffers":[{"uri":"MX-Lame-Extended-Saddle-R3.bin","byteLength":241584}],"asset":{"version":"2.0","generator":"gltfpack 0.16"},"bufferViews":[{"buffer":0,"byteOffset":0,"byteLength":86508,"byteStride":12,"target":34962},{"buffer":0,"byteOffset":86508,"byteLength":86508,"byteStride":12,"target":34962},{"buffer":0,"byteOffset":173016,"byteLength":68568,"target":34963}],"accessors":[{"bufferView":0,"byteOffset":0,"componentType":5126,"count":7209,"type":"VEC3","min":[-0.875039995,0,-0.825020015],"max":[0.875,0.631470025,0.825030029]},{"bufferView":1,"byteOffset":0,"componentType":5126,"count":7209,"type":"VEC3"},{"bufferView":2,"byteOffset":0,"componentType":5123,"count":34284,"type":"SCALAR"}],"materials":[{"pbrMetallicRoughness":{"baseColorFactor":[0.627451003,0.627451003,0.627451003,1],"metallicFactor":0},"doubleSided":true}],"meshes":[{"primitives":[{"attributes":{"POSITION":0,"NORMAL":1},"mode":4,"indices":2,"material":0}]}],"nodes":[{"mesh":0},{"children":[0]}],"scenes":[{"nodes":[1]}]}