{"buffers":[{"uri":"MX-Lame-Extended-R15u.bin","byteLength":236844}],"asset":{"version":"2.0","generator":"gltfpack 0.16"},"bufferViews":[{"buffer":0,"byteOffset":0,"byteLength":84528,"byteStride":12,"target":34962},{"buffer":0,"byteOffset":84528,"byteLength":84528,"byteStride":12,"target":34962},{"buffer":0,"byteOffset":169056,"byteLength":67788,"target":34963}],"accessors":[{"bufferView":0,"byteOffset":0,"componentType":5126,"count":7044,"type":"VEC3","min":[-1.39499998,0,-0.875],"max":[1.38502002,0.631470025,0.875]},{"bufferView":1,"byteOffset":0,"componentType":5126,"count":7044,"type":"VEC3"},{"bufferView":2,"byteOffset":0,"componentType":5123,"count":33894,"type":"SCALAR"}],"materials":[{"pbrMetallicRoughness":{"baseColorFactor":[0.627451003,0.627451003,0.627451003,1],"metallicFactor":0},"doubleSided":true}],"meshes":[{"primitives":[{"attributes":{"POSITION":0,"NORMAL":1},"mode":4,"indices":2,"material":0}]}],"nodes":[{"mesh":0},{"children":[0]}],"scenes":[{"nodes":[1]}]}