{"buffers":[{"uri":"MX-Lame-Extended-Saddle-Homing.bin","byteLength":260604}],"asset":{"version":"2.0","generator":"gltfpack 0.16"},"bufferViews":[{"buffer":0,"byteOffset":0,"byteLength":93024,"byteStride":12,"target":34962},{"buffer":0,"byteOffset":93024,"byteLength":93024,"byteStride":12,"target":34962},{"buffer":0,"byteOffset":186048,"byteLength":74556,"target":34963}],"accessors":[{"bufferView":0,"byteOffset":0,"componentType":5126,"count":7752,"type":"VEC3","min":[-0.825020015,-0.875039995,0],"max":[0.825030029,0.875,0.631470025]},{"bufferView":1,"byteOffset":0,"componentType":5126,"count":7752,"type":"VEC3"},{"bufferView":2,"byteOffset":0,"componentType":5123,"count":37278,"type":"SCALAR"}],"materials":[{"pbrMetallicRoughness":{"baseColorFactor":[0.627451003,0.627451003,0.627451003,1],"metallicFactor":0},"doubleSided":true}],"meshes":[{"primitives":[{"attributes":{"POSITION":0,"NORMAL":1},"mode":4,"indices":2,"material":0}]}],"nodes":[{"mesh":0},{"children":[0]}],"scenes":[{"nodes":[1]}]}