{"buffers":[{"uri":"KLP-S-Lame-Homing.bin","byteLength":199164}],"asset":{"version":"2.0","generator":"gltfpack 0.16"},"bufferViews":[{"buffer":0,"byteOffset":0,"byteLength":71616,"byteStride":12,"target":34962},{"buffer":0,"byteOffset":71616,"byteLength":71616,"byteStride":12,"target":34962},{"buffer":0,"byteOffset":143232,"byteLength":55932,"target":34963}],"accessors":[{"bufferView":0,"byteOffset":0,"componentType":5126,"count":482,"type":"VEC3","min":[-0.224989995,0.100000001,0.324990004],"max":[0.224989995,0.170000002,0.47499001]},{"bufferView":1,"byteOffset":0,"componentType":5126,"count":482,"type":"VEC3"},{"bufferView":2,"byteOffset":0,"componentType":5123,"count":2628,"type":"SCALAR"},{"bufferView":0,"byteOffset":5784,"componentType":5126,"count":4318,"type":"VEC3","min":[-0.873239994,-0.200000003,-0.824109972],"max":[0.875689983,0.228249997,0.824850023]},{"bufferView":1,"byteOffset":5784,"componentType":5126,"count":4318,"type":"VEC3"},{"bufferView":2,"byteOffset":5256,"componentType":5123,"count":22086,"type":"SCALAR"},{"bufferView":0,"byteOffset":57600,"componentType":5126,"count":1168,"type":"VEC3","min":[-0.375,-0.34999001,-0.174989998],"max":[0.375,0.00999000017,0.174989998]},{"bufferView":1,"byteOffset":57600,"componentType":5126,"count":1168,"type":"VEC3"},{"bufferView":2,"byteOffset":49428,"componentType":5123,"count":3252,"type":"SCALAR"}],"materials":[{"pbrMetallicRoughness":{"baseColorFactor":[0.627451003,0.627451003,0.627451003,1],"metallicFactor":0},"doubleSided":true},{"pbrMetallicRoughness":{"baseColorFactor":[0.34117648,0.34117648,0.34117648,1],"metallicFactor":0},"doubleSided":true},{"pbrMetallicRoughness":{"baseColorFactor":[0.227450982,0.227450982,0.23137255,1],"metallicFactor":0},"doubleSided":true}],"meshes":[{"primitives":[{"attributes":{"POSITION":0,"NORMAL":1},"mode":4,"indices":2,"material":0}]},{"primitives":[{"attributes":{"POSITION":3,"NORMAL":4},"mode":4,"indices":5,"material":1}]},{"primitives":[{"attributes":{"POSITION":6,"NORMAL":7},"mode":4,"indices":8,"material":2}]}],"nodes":[{"mesh":0},{"mesh":1},{"mesh":2},{"children":[0]},{"name":"KLP-M-Saddle v11","children":[1]},{"name":"Choc-Stem v6","children":[2]}],"scenes":[{"nodes":[3,4,5]}]}