{"buffers":[{"uri":"KLP-choc-15u.bin","byteLength":166800}],"asset":{"version":"2.0","generator":"gltfpack 0.16"},"bufferViews":[{"buffer":0,"byteOffset":0,"byteLength":60228,"byteStride":12,"target":34962},{"buffer":0,"byteOffset":60228,"byteLength":60228,"byteStride":12,"target":34962},{"buffer":0,"byteOffset":120456,"byteLength":46344,"target":34963}],"accessors":[{"bufferView":0,"byteOffset":0,"componentType":5126,"count":3851,"type":"VEC3","min":[-1.37323999,-0.200000003,-0.824400008],"max":[1.37568998,0.228430003,0.824490011]},{"bufferView":1,"byteOffset":0,"componentType":5126,"count":3851,"type":"VEC3"},{"bufferView":2,"byteOffset":0,"componentType":5123,"count":19920,"type":"SCALAR"},{"bufferView":0,"byteOffset":46212,"componentType":5126,"count":1168,"type":"VEC3","min":[-0.375,-0.34999001,-0.174989998],"max":[0.375,0.00999000017,0.174989998]},{"bufferView":1,"byteOffset":46212,"componentType":5126,"count":1168,"type":"VEC3"},{"bufferView":2,"byteOffset":39840,"componentType":5123,"count":3252,"type":"SCALAR"}],"materials":[{"pbrMetallicRoughness":{"baseColorFactor":[0.34117648,0.34117648,0.34117648,1],"metallicFactor":0},"doubleSided":true},{"pbrMetallicRoughness":{"baseColorFactor":[0.227450982,0.227450982,0.23137255,1],"metallicFactor":0},"doubleSided":true}],"meshes":[{"primitives":[{"attributes":{"POSITION":0,"NORMAL":1},"mode":4,"indices":2,"material":0}]},{"primitives":[{"attributes":{"POSITION":3,"NORMAL":4},"mode":4,"indices":5,"material":1}]}],"nodes":[{"mesh":0},{"mesh":1},{"children":[0]},{"name":"Choc-Stem v5","children":[1]}],"scenes":[{"nodes":[2,3]}]}