{"buffers":[{"uri":"XDA-15u.bin","byteLength":1139280}],"asset":{"version":"2.0","generator":"gltfpack 0.16"},"bufferViews":[{"buffer":0,"byteOffset":0,"byteLength":510924,"byteStride":12,"target":34962},{"buffer":0,"byteOffset":510924,"byteLength":510924,"byteStride":12,"target":34962},{"buffer":0,"byteOffset":1021848,"byteLength":117432,"target":34963}],"accessors":[{"bufferView":0,"byteOffset":0,"componentType":5126,"count":39694,"type":"VEC3","min":[-1.35485995,0,-0.908770025],"max":[1.36205995,0.940800011,0.901560009]},{"bufferView":1,"byteOffset":0,"componentType":5126,"count":39694,"type":"VEC3"},{"bufferView":2,"byteOffset":0,"componentType":5123,"count":45498,"type":"SCALAR"},{"bufferView":0,"byteOffset":476328,"componentType":5126,"count":2883,"type":"VEC3","min":[-0.370000005,0,-0.369370013],"max":[0.370000005,0.793789983,0.369370013]},{"bufferView":1,"byteOffset":476328,"componentType":5126,"count":2883,"type":"VEC3"},{"bufferView":2,"byteOffset":90996,"componentType":5123,"count":13218,"type":"SCALAR"}],"materials":[{"pbrMetallicRoughness":{"baseColorFactor":[0.627451003,0.627451003,0.627451003,1],"metallicFactor":0},"doubleSided":true},{"pbrMetallicRoughness":{"baseColorFactor":[0.227450982,0.227450982,0.23137255,1],"metallicFactor":0},"doubleSided":true}],"meshes":[{"primitives":[{"attributes":{"POSITION":0,"NORMAL":1},"mode":4,"indices":2,"material":0}]},{"primitives":[{"attributes":{"POSITION":3,"NORMAL":4},"mode":4,"indices":5,"material":1}]}],"nodes":[{"mesh":0},{"mesh":1},{"name":"15u","children":[0]},{"name":"MX-LP-Stem v2","children":[1]}],"scenes":[{"nodes":[2,3]}]}