{"buffers":[{"uri":"XDA-1u.bin","byteLength":1079352}],"asset":{"version":"2.0","generator":"gltfpack 0.16"},"bufferViews":[{"buffer":0,"byteOffset":0,"byteLength":490632,"byteStride":12,"target":34962},{"buffer":0,"byteOffset":490632,"byteLength":490632,"byteStride":12,"target":34962},{"buffer":0,"byteOffset":981264,"byteLength":98088,"target":34963}],"accessors":[{"bufferView":0,"byteOffset":0,"componentType":5126,"count":5070,"type":"VEC3","min":[-0.766120017,0.793799996,-0.798749983],"max":[0.00359999994,0.940800011,0.766120017]},{"bufferView":1,"byteOffset":0,"componentType":5126,"count":5070,"type":"VEC3"},{"bufferView":2,"byteOffset":0,"componentType":5123,"count":6996,"type":"SCALAR"},{"bufferView":0,"byteOffset":60840,"componentType":5126,"count":5586,"type":"VEC3","min":[0.00359999994,0.793799996,-0.798780024],"max":[0.798780024,0.940800011,0.766129971]},{"bufferView":1,"byteOffset":60840,"componentType":5126,"count":5586,"type":"VEC3"},{"bufferView":2,"byteOffset":13992,"componentType":5123,"count":7404,"type":"SCALAR"},{"bufferView":0,"byteOffset":127872,"componentType":5126,"count":1838,"type":"VEC3","min":[-0.447250009,0.659399986,-0.483110011],"max":[0.00359999994,0.793799996,0.446619987]},{"bufferView":1,"byteOffset":127872,"componentType":5126,"count":1838,"type":"VEC3"},{"bufferView":2,"byteOffset":28800,"componentType":5123,"count":2814,"type":"SCALAR"},{"bufferView":0,"byteOffset":149928,"componentType":5126,"count":12706,"type":"VEC3","min":[-0.901560009,2.78754448e-18,-0.908760011],"max":[0.00359999994,0.793799996,0.901560009]},{"bufferView":1,"byteOffset":149928,"componentType":5126,"count":12706,"type":"VEC3"},{"bufferView":2,"byteOffset":34428,"componentType":5123,"count":13854,"type":"SCALAR"},{"bufferView":0,"byteOffset":302400,"componentType":5126,"count":2332,"type":"VEC3","min":[0.00359999994,0.634039998,-0.483740002],"max":[0.483740002,0.793799996,0.447259992]},{"bufferView":1,"byteOffset":302400,"componentType":5126,"count":2332,"type":"VEC3"},{"bufferView":2,"byteOffset":62136,"componentType":5123,"count":3504,"type":"SCALAR"},{"bufferView":0,"byteOffset":330384,"componentType":5126,"count":13354,"type":"VEC3","min":[0.00359999994,-5.42547367e-16,-0.908770025],"max":[0.908760011,0.793799996,0.901549995]},{"bufferView":1,"byteOffset":330384,"componentType":5126,"count":13354,"type":"VEC3"},{"bufferView":2,"byteOffset":69144,"componentType":5123,"count":14472,"type":"SCALAR"}],"materials":[{"pbrMetallicRoughness":{"baseColorFactor":[0.627451003,0.627451003,0.627451003,1],"metallicFactor":0},"doubleSided":true}],"meshes":[{"primitives":[{"attributes":{"POSITION":0,"NORMAL":1},"mode":4,"indices":2,"material":0}]},{"primitives":[{"attributes":{"POSITION":3,"NORMAL":4},"mode":4,"indices":5,"material":0}]},{"primitives":[{"attributes":{"POSITION":6,"NORMAL":7},"mode":4,"indices":8,"material":0}]},{"primitives":[{"attributes":{"POSITION":9,"NORMAL":10},"mode":4,"indices":11,"material":0}]},{"primitives":[{"attributes":{"POSITION":12,"NORMAL":13},"mode":4,"indices":14,"material":0}]},{"primitives":[{"attributes":{"POSITION":15,"NORMAL":16},"mode":4,"indices":17,"material":0}]}],"nodes":[{"mesh":0},{"mesh":1},{"mesh":2},{"mesh":3},{"mesh":4},{"mesh":5},{"name":"125u","children":[0]},{"name":"125u","children":[1]},{"name":"125u","children":[2]},{"name":"125u","children":[3]},{"name":"125u","children":[4]},{"name":"125u","children":[5]}],"scenes":[{"nodes":[6,7,8,9,10,11]}]}