{"buffers":[{"uri":"DSA.bin","byteLength":171264}],"asset":{"version":"2.0","generator":"gltfpack 0.16"},"bufferViews":[{"buffer":0,"byteOffset":0,"byteLength":59616,"byteStride":12,"target":34962},{"buffer":0,"byteOffset":59616,"byteLength":59616,"byteStride":12,"target":34962},{"buffer":0,"byteOffset":119232,"byteLength":52032,"target":34963}],"accessors":[{"bufferView":0,"byteOffset":0,"componentType":5126,"count":4968,"type":"VEC3","min":[-0.910000026,0,-0.910000026],"max":[0.910000026,0.790809989,0.910000026]},{"bufferView":1,"byteOffset":0,"componentType":5126,"count":4968,"type":"VEC3"},{"bufferView":2,"byteOffset":0,"componentType":5123,"count":26016,"type":"SCALAR"}],"materials":[{"pbrMetallicRoughness":{"baseColorFactor":[0.34117648,0.34117648,0.34117648,1],"metallicFactor":0},"doubleSided":true}],"meshes":[{"primitives":[{"attributes":{"POSITION":0,"NORMAL":1},"mode":4,"indices":2,"material":0}]}],"nodes":[{"mesh":0},{"name":"MX Mount v1","children":[0]}],"scenes":[{"nodes":[1]}]}