{"buffers":[{"uri":"DSA_2u.bin","byteLength":194472}],"asset":{"version":"2.0","generator":"gltfpack 0.16"},"bufferViews":[{"buffer":0,"byteOffset":0,"byteLength":68544,"byteStride":12,"target":34962},{"buffer":0,"byteOffset":68544,"byteLength":68544,"byteStride":12,"target":34962},{"buffer":0,"byteOffset":137088,"byteLength":57384,"target":34963}],"accessors":[{"bufferView":0,"byteOffset":0,"componentType":5126,"count":5712,"type":"VEC3","min":[-1.86000001,0,-0.910000026],"max":[1.86000001,0.790859997,0.910000026]},{"bufferView":1,"byteOffset":0,"componentType":5126,"count":5712,"type":"VEC3"},{"bufferView":2,"byteOffset":0,"componentType":5123,"count":28692,"type":"SCALAR"}],"materials":[{"pbrMetallicRoughness":{"baseColorFactor":[0.627451003,0.627451003,0.627451003,1],"metallicFactor":0},"doubleSided":true}],"meshes":[{"primitives":[{"attributes":{"POSITION":0,"NORMAL":1},"mode":4,"indices":2,"material":0}]}],"nodes":[{"mesh":0},{"children":[0]}],"scenes":[{"nodes":[1]}]}