{"buffers":[{"uri":"DSA_15u.bin","byteLength":146904}],"asset":{"version":"2.0","generator":"gltfpack 0.16"},"bufferViews":[{"buffer":0,"byteOffset":0,"byteLength":51228,"byteStride":12,"target":34962},{"buffer":0,"byteOffset":51228,"byteLength":51228,"byteStride":12,"target":34962},{"buffer":0,"byteOffset":102456,"byteLength":44448,"target":34963}],"accessors":[{"bufferView":0,"byteOffset":0,"componentType":5126,"count":4269,"type":"VEC3","min":[-1.38498998,0,-0.910000026],"max":[1.38498998,0.790859997,0.910000026]},{"bufferView":1,"byteOffset":0,"componentType":5126,"count":4269,"type":"VEC3"},{"bufferView":2,"byteOffset":0,"componentType":5123,"count":22224,"type":"SCALAR"}],"materials":[{"pbrMetallicRoughness":{"baseColorFactor":[0.964705884,0.964705884,0.952941179,1],"metallicFactor":0},"doubleSided":true}],"meshes":[{"primitives":[{"attributes":{"POSITION":0,"NORMAL":1},"mode":4,"indices":2,"material":0}]}],"nodes":[{"mesh":0},{"children":[0]}],"scenes":[{"nodes":[1]}]}