{"buffers":[{"uri":"DSA_1u_Homing.bin","byteLength":219828}],"asset":{"version":"2.0","generator":"gltfpack 0.16"},"bufferViews":[{"buffer":0,"byteOffset":0,"byteLength":79620,"byteStride":12,"target":34962},{"buffer":0,"byteOffset":79620,"byteLength":79620,"byteStride":12,"target":34962},{"buffer":0,"byteOffset":159240,"byteLength":60588,"target":34963}],"accessors":[{"bufferView":0,"byteOffset":0,"componentType":5126,"count":6635,"type":"VEC3","min":[-0.910000026,0,-0.910000026],"max":[0.910000026,0.790809989,0.910000026]},{"bufferView":1,"byteOffset":0,"componentType":5126,"count":6635,"type":"VEC3"},{"bufferView":2,"byteOffset":0,"componentType":5123,"count":30294,"type":"SCALAR"}],"materials":[{"pbrMetallicRoughness":{"baseColorFactor":[0.964705884,0.964705884,0.952941179,1],"metallicFactor":0},"doubleSided":true}],"meshes":[{"primitives":[{"attributes":{"POSITION":0,"NORMAL":1},"mode":4,"indices":2,"material":0}]}],"nodes":[{"mesh":0},{"name":"MX Mount v1","children":[0]}],"scenes":[{"nodes":[1]}]}