{"buffers":[{"uri":"CHR-R3-1u-Homing.bin","byteLength":148812}],"asset":{"version":"2.0","generator":"gltfpack 0.16"},"bufferViews":[{"buffer":0,"byteOffset":0,"byteLength":54096,"byteStride":12,"target":34962},{"buffer":0,"byteOffset":54096,"byteLength":54096,"byteStride":12,"target":34962},{"buffer":0,"byteOffset":108192,"byteLength":40620,"target":34963}],"accessors":[{"bufferView":0,"byteOffset":0,"componentType":5126,"count":1466,"type":"VEC3","min":[-0.904999971,-0.100000001,-0.904990017],"max":[0.904999971,0.63221997,0.904999971]},{"bufferView":1,"byteOffset":0,"componentType":5126,"count":1466,"type":"VEC3"},{"bufferView":2,"byteOffset":0,"componentType":5123,"count":6402,"type":"SCALAR"},{"bufferView":0,"byteOffset":17592,"componentType":5126,"count":557,"type":"VEC3","min":[-0.224989995,0.54023999,0.208169997],"max":[0.224989995,0.626640022,0.358130008]},{"bufferView":1,"byteOffset":17592,"componentType":5126,"count":557,"type":"VEC3"},{"bufferView":2,"byteOffset":12804,"componentType":5123,"count":3078,"type":"SCALAR"},{"bufferView":0,"byteOffset":24276,"componentType":5126,"count":2485,"type":"VEC3","min":[-0.300000012,0,-0.300000012],"max":[0.300000012,0.49000001,0.300000012]},{"bufferView":1,"byteOffset":24276,"componentType":5126,"count":2485,"type":"VEC3"},{"bufferView":2,"byteOffset":18960,"componentType":5123,"count":10830,"type":"SCALAR"}],"materials":[{"pbrMetallicRoughness":{"baseColorFactor":[0.603921592,0.0941176489,0.0705882385,1],"metallicFactor":0},"doubleSided":true},{"pbrMetallicRoughness":{"baseColorFactor":[0.627451003,0.627451003,0.627451003,1],"metallicFactor":0},"doubleSided":true}],"meshes":[{"primitives":[{"attributes":{"POSITION":0,"NORMAL":1},"mode":4,"indices":2,"material":0}]},{"primitives":[{"attributes":{"POSITION":3,"NORMAL":4},"mode":4,"indices":5,"material":1}]},{"primitives":[{"attributes":{"POSITION":6,"NORMAL":7},"mode":4,"indices":8,"material":1}]}],"nodes":[{"mesh":0},{"mesh":1},{"mesh":2},{"children":[0]},{"children":[1]},{"name":"CHR-R3-Stem v7","children":[2]}],"scenes":[{"nodes":[3,4,5]}]}