{"buffers":[{"uri":"CHR-R1-1u.bin","byteLength":121704}],"asset":{"version":"2.0","generator":"gltfpack 0.16"},"bufferViews":[{"buffer":0,"byteOffset":0,"byteLength":44376,"byteStride":12,"target":34962},{"buffer":0,"byteOffset":44376,"byteLength":44376,"byteStride":12,"target":34962},{"buffer":0,"byteOffset":88752,"byteLength":32952,"target":34963}],"accessors":[{"bufferView":0,"byteOffset":0,"componentType":5126,"count":1261,"type":"VEC3","min":[-0.904999971,-0.100000001,-0.904990017],"max":[0.904999971,0.880280018,0.904999971]},{"bufferView":1,"byteOffset":0,"componentType":5126,"count":1261,"type":"VEC3"},{"bufferView":2,"byteOffset":0,"componentType":5123,"count":5454,"type":"SCALAR"},{"bufferView":0,"byteOffset":15132,"componentType":5126,"count":2437,"type":"VEC3","min":[-0.300000012,0,-0.299849987],"max":[0.300000012,0.800000012,0.299849987]},{"bufferView":1,"byteOffset":15132,"componentType":5126,"count":2437,"type":"VEC3"},{"bufferView":2,"byteOffset":10908,"componentType":5123,"count":11022,"type":"SCALAR"}],"materials":[{"pbrMetallicRoughness":{"baseColorFactor":[0.603921592,0.0941176489,0.0705882385,1],"metallicFactor":0},"doubleSided":true},{"pbrMetallicRoughness":{"baseColorFactor":[0.627451003,0.627451003,0.627451003,1],"metallicFactor":0},"doubleSided":true}],"meshes":[{"primitives":[{"attributes":{"POSITION":0,"NORMAL":1},"mode":4,"indices":2,"material":0}]},{"primitives":[{"attributes":{"POSITION":3,"NORMAL":4},"mode":4,"indices":5,"material":1}]}],"nodes":[{"mesh":0},{"mesh":1},{"children":[0]},{"name":"CHR-R1-Stem v10","children":[1]}],"scenes":[{"nodes":[2,3]}]}