{"buffers":[{"uri":"CHR-R4-1u.bin","byteLength":122616}],"asset":{"version":"2.0","generator":"gltfpack 0.16"},"bufferViews":[{"buffer":0,"byteOffset":0,"byteLength":44952,"byteStride":12,"target":34962},{"buffer":0,"byteOffset":44952,"byteLength":44952,"byteStride":12,"target":34962},{"buffer":0,"byteOffset":89904,"byteLength":32712,"target":34963}],"accessors":[{"bufferView":0,"byteOffset":0,"componentType":5126,"count":1550,"type":"VEC3","min":[-0.904990017,-0.100000001,-0.904990017],"max":[0.904999971,0.760209978,0.904999971]},{"bufferView":1,"byteOffset":0,"componentType":5126,"count":1550,"type":"VEC3"},{"bufferView":2,"byteOffset":0,"componentType":5123,"count":6576,"type":"SCALAR"},{"bufferView":0,"byteOffset":18600,"componentType":5126,"count":2196,"type":"VEC3","min":[-0.275000006,0,-0.274529994],"max":[0.275000006,0.560000002,0.274529994]},{"bufferView":1,"byteOffset":18600,"componentType":5126,"count":2196,"type":"VEC3"},{"bufferView":2,"byteOffset":13152,"componentType":5123,"count":9780,"type":"SCALAR"}],"materials":[{"pbrMetallicRoughness":{"baseColorFactor":[0.603921592,0.0941176489,0.0705882385,1],"metallicFactor":0},"doubleSided":true},{"pbrMetallicRoughness":{"baseColorFactor":[0.627451003,0.627451003,0.627451003,1],"metallicFactor":0},"doubleSided":true}],"meshes":[{"primitives":[{"attributes":{"POSITION":0,"NORMAL":1},"mode":4,"indices":2,"material":0}]},{"primitives":[{"attributes":{"POSITION":3,"NORMAL":4},"mode":4,"indices":5,"material":1}]}],"nodes":[{"mesh":0},{"mesh":1},{"children":[0]},{"name":"CHR-R4-Stem v2","children":[1]}],"scenes":[{"nodes":[2,3]}]}