{"buffers":[{"uri":"CHR-R2-1u.bin","byteLength":120816}],"asset":{"version":"2.0","generator":"gltfpack 0.16"},"bufferViews":[{"buffer":0,"byteOffset":0,"byteLength":44508,"byteStride":12,"target":34962},{"buffer":0,"byteOffset":44508,"byteLength":44508,"byteStride":12,"target":34962},{"buffer":0,"byteOffset":89016,"byteLength":31800,"target":34963}],"accessors":[{"bufferView":0,"byteOffset":0,"componentType":5126,"count":1282,"type":"VEC3","min":[-0.904990017,-0.100000001,-0.904990017],"max":[0.904990017,0.686890006,0.904999971]},{"bufferView":1,"byteOffset":0,"componentType":5126,"count":1282,"type":"VEC3"},{"bufferView":2,"byteOffset":0,"componentType":5123,"count":5394,"type":"SCALAR"},{"bufferView":0,"byteOffset":15384,"componentType":5126,"count":2427,"type":"VEC3","min":[-0.300000012,0,-0.299870014],"max":[0.299510002,0.550000012,0.299870014]},{"bufferView":1,"byteOffset":15384,"componentType":5126,"count":2427,"type":"VEC3"},{"bufferView":2,"byteOffset":10788,"componentType":5123,"count":10506,"type":"SCALAR"}],"materials":[{"pbrMetallicRoughness":{"baseColorFactor":[0.603921592,0.0941176489,0.0705882385,1],"metallicFactor":0},"doubleSided":true},{"pbrMetallicRoughness":{"baseColorFactor":[0.627451003,0.627451003,0.627451003,1],"metallicFactor":0},"doubleSided":true}],"meshes":[{"primitives":[{"attributes":{"POSITION":0,"NORMAL":1},"mode":4,"indices":2,"material":0}]},{"primitives":[{"attributes":{"POSITION":3,"NORMAL":4},"mode":4,"indices":5,"material":1}]}],"nodes":[{"mesh":0},{"mesh":1},{"children":[0]},{"name":"CHR-R2-Stem v13","children":[1]}],"scenes":[{"nodes":[2,3]}]}