{"buffers":[{"uri":"CHR-R4-15u.bin","byteLength":115992}],"asset":{"version":"2.0","generator":"gltfpack 0.16"},"bufferViews":[{"buffer":0,"byteOffset":0,"byteLength":42396,"byteStride":12,"target":34962},{"buffer":0,"byteOffset":42396,"byteLength":42396,"byteStride":12,"target":34962},{"buffer":0,"byteOffset":84792,"byteLength":31200,"target":34963}],"accessors":[{"bufferView":0,"byteOffset":0,"componentType":5126,"count":1305,"type":"VEC3","min":[-1.38124001,-0.100000001,-0.904990017],"max":[1.38125002,0.765349984,0.904990017]},{"bufferView":1,"byteOffset":0,"componentType":5126,"count":1305,"type":"VEC3"},{"bufferView":2,"byteOffset":0,"componentType":5123,"count":5658,"type":"SCALAR"},{"bufferView":0,"byteOffset":15660,"componentType":5126,"count":2228,"type":"VEC3","min":[-0.275000006,0,-0.274529994],"max":[0.275000006,0.560000002,0.274529994]},{"bufferView":1,"byteOffset":15660,"componentType":5126,"count":2228,"type":"VEC3"},{"bufferView":2,"byteOffset":11316,"componentType":5123,"count":9942,"type":"SCALAR"}],"materials":[{"pbrMetallicRoughness":{"baseColorFactor":[0.603921592,0.0941176489,0.0705882385,1],"metallicFactor":0},"doubleSided":true},{"pbrMetallicRoughness":{"baseColorFactor":[0.627451003,0.627451003,0.627451003,1],"metallicFactor":0},"doubleSided":true}],"meshes":[{"primitives":[{"attributes":{"POSITION":0,"NORMAL":1},"mode":4,"indices":2,"material":0}]},{"primitives":[{"attributes":{"POSITION":3,"NORMAL":4},"mode":4,"indices":5,"material":1}]}],"nodes":[{"mesh":0},{"mesh":1},{"children":[0]},{"name":"CHR-R4-Stem v3","children":[1]}],"scenes":[{"nodes":[2,3]}]}