{"buffers":[{"uri":"MX-Chicago-Steno-15u.bin","byteLength":353388}],"asset":{"version":"2.0","generator":"gltfpack 0.16"},"bufferViews":[{"buffer":0,"byteOffset":0,"byteLength":119040,"byteStride":12,"target":34962},{"buffer":0,"byteOffset":119040,"byteLength":119040,"byteStride":12,"target":34962},{"buffer":0,"byteOffset":238080,"byteLength":115308,"target":34963}],"accessors":[{"bufferView":0,"byteOffset":0,"componentType":5126,"count":9920,"type":"VEC3","min":[-1.08730996,0,-0.801680028],"max":[1.08808005,0.557070017,0.803250015]},{"bufferView":1,"byteOffset":0,"componentType":5126,"count":9920,"type":"VEC3"},{"bufferView":2,"byteOffset":0,"componentType":5123,"count":57654,"type":"SCALAR"}],"materials":[{"pbrMetallicRoughness":{"baseColorFactor":[0.627451003,0.627451003,0.627451003,1],"metallicFactor":0},"doubleSided":true}],"meshes":[{"primitives":[{"attributes":{"POSITION":0,"NORMAL":1},"mode":4,"indices":2,"material":0}]}],"nodes":[{"mesh":0},{"children":[0]}],"scenes":[{"nodes":[1]}]}