{"buffers":[{"uri":"MX-Chicago-Steno-Convex.bin","byteLength":554052}],"asset":{"version":"2.0","generator":"gltfpack 0.16"},"bufferViews":[{"buffer":0,"byteOffset":0,"byteLength":187152,"byteStride":12,"target":34962},{"buffer":0,"byteOffset":187152,"byteLength":187152,"byteStride":12,"target":34962},{"buffer":0,"byteOffset":374304,"byteLength":179748,"target":34963}],"accessors":[{"bufferView":0,"byteOffset":0,"componentType":5126,"count":15596,"type":"VEC3","min":[-0.864820004,0,-0.804539979],"max":[0.865050018,0.471920013,0.805369973]},{"bufferView":1,"byteOffset":0,"componentType":5126,"count":15596,"type":"VEC3"},{"bufferView":2,"byteOffset":0,"componentType":5123,"count":89874,"type":"SCALAR"}],"materials":[{"pbrMetallicRoughness":{"baseColorFactor":[0.34117648,0.34117648,0.34117648,1],"metallicFactor":0},"doubleSided":true}],"meshes":[{"primitives":[{"attributes":{"POSITION":0,"NORMAL":1},"mode":4,"indices":2,"material":0}]}],"nodes":[{"mesh":0},{"children":[0]}],"scenes":[{"nodes":[1]}]}