{"buffers":[{"uri":"MX-Chicago-Steno-R2.bin","byteLength":2566212}],"asset":{"version":"2.0","generator":"gltfpack 0.16"},"bufferViews":[{"buffer":0,"byteOffset":0,"byteLength":1089372,"byteStride":12,"target":34962},{"buffer":0,"byteOffset":1089372,"byteLength":1089372,"byteStride":12,"target":34962},{"buffer":0,"byteOffset":2178744,"byteLength":366000,"target":34963},{"buffer":0,"byteOffset":2544744,"byteLength":21468,"target":34963}],"accessors":[{"bufferView":0,"byteOffset":0,"componentType":5126,"count":88393,"type":"VEC3","min":[-0.864950001,0.1096,-0.805429995],"max":[0.864950001,0.678049982,0.804700017]},{"bufferView":1,"byteOffset":0,"componentType":5126,"count":88393,"type":"VEC3"},{"bufferView":2,"byteOffset":0,"componentType":5125,"count":91500,"type":"SCALAR"},{"bufferView":0,"byteOffset":1060716,"componentType":5126,"count":2388,"type":"VEC3","min":[-0.270000011,5.55111512e-17,-0.269600004],"max":[0.270000011,0.309989989,0.269600004]},{"bufferView":1,"byteOffset":1060716,"componentType":5126,"count":2388,"type":"VEC3"},{"bufferView":3,"byteOffset":0,"componentType":5123,"count":10734,"type":"SCALAR"}],"materials":[{"pbrMetallicRoughness":{"baseColorFactor":[0.854901969,0.349019617,0.349019617,1],"metallicFactor":0},"doubleSided":true},{"pbrMetallicRoughness":{"baseColorFactor":[0.227450982,0.227450982,0.23137255,1],"metallicFactor":0},"doubleSided":true}],"meshes":[{"primitives":[{"attributes":{"POSITION":0,"NORMAL":1},"mode":4,"indices":2,"material":0}]},{"primitives":[{"attributes":{"POSITION":3,"NORMAL":4},"mode":4,"indices":5,"material":1}]}],"nodes":[{"mesh":0},{"mesh":1},{"children":[0]},{"name":"MX-chicago-Stem v3","children":[1]}],"scenes":[{"nodes":[2,3]}]}