{"buffers":[{"uri":"MX-Chicago_Steno-Homing.bin","byteLength":2515860}],"asset":{"version":"2.0","generator":"gltfpack 0.16"},"bufferViews":[{"buffer":0,"byteOffset":0,"byteLength":1065792,"byteStride":12,"target":34962},{"buffer":0,"byteOffset":1065792,"byteLength":1065792,"byteStride":12,"target":34962},{"buffer":0,"byteOffset":2131584,"byteLength":357552,"target":34963},{"buffer":0,"byteOffset":2489136,"byteLength":26724,"target":34963}],"accessors":[{"bufferView":0,"byteOffset":0,"componentType":5126,"count":85946,"type":"VEC3","min":[-0.864950001,0.10988,-0.804929972],"max":[0.864950001,0.571669996,0.805239975]},{"bufferView":1,"byteOffset":0,"componentType":5126,"count":85946,"type":"VEC3"},{"bufferView":2,"byteOffset":0,"componentType":5125,"count":89388,"type":"SCALAR"},{"bufferView":0,"byteOffset":1031352,"componentType":5126,"count":482,"type":"VEC3","min":[-0.224989995,0.449990004,0.324990004],"max":[0.224989995,0.519990027,0.47499001]},{"bufferView":1,"byteOffset":1031352,"componentType":5126,"count":482,"type":"VEC3"},{"bufferView":3,"byteOffset":0,"componentType":5123,"count":2628,"type":"SCALAR"},{"bufferView":0,"byteOffset":1037136,"componentType":5126,"count":2388,"type":"VEC3","min":[-0.270000011,5.55111512e-17,-0.269600004],"max":[0.270000011,0.309989989,0.269600004]},{"bufferView":1,"byteOffset":1037136,"componentType":5126,"count":2388,"type":"VEC3"},{"bufferView":3,"byteOffset":5256,"componentType":5123,"count":10734,"type":"SCALAR"}],"materials":[{"pbrMetallicRoughness":{"baseColorFactor":[0.854901969,0.349019617,0.349019617,1],"metallicFactor":0},"doubleSided":true},{"pbrMetallicRoughness":{"baseColorFactor":[0.627451003,0.627451003,0.627451003,1],"metallicFactor":0},"doubleSided":true},{"pbrMetallicRoughness":{"baseColorFactor":[0.227450982,0.227450982,0.23137255,1],"metallicFactor":0},"doubleSided":true}],"meshes":[{"primitives":[{"attributes":{"POSITION":0,"NORMAL":1},"mode":4,"indices":2,"material":0}]},{"primitives":[{"attributes":{"POSITION":3,"NORMAL":4},"mode":4,"indices":5,"material":1}]},{"primitives":[{"attributes":{"POSITION":6,"NORMAL":7},"mode":4,"indices":8,"material":2}]}],"nodes":[{"mesh":0},{"mesh":1},{"mesh":2},{"children":[0]},{"children":[1]},{"name":"MX-chicago-Stem v3","children":[2]}],"scenes":[{"nodes":[3,4,5]}]}