{"buffers":[{"uri":"LMX_1u.bin","byteLength":166392}],"asset":{"version":"2.0","generator":"gltfpack 0.16"},"bufferViews":[{"buffer":0,"byteOffset":0,"byteLength":60216,"byteStride":12,"target":34962},{"buffer":0,"byteOffset":60216,"byteLength":60216,"byteStride":12,"target":34962},{"buffer":0,"byteOffset":120432,"byteLength":45960,"target":34963}],"accessors":[{"bufferView":0,"byteOffset":0,"componentType":5126,"count":2490,"type":"VEC3","min":[-0.899990022,-0.25,-0.899990022],"max":[0.899990022,0.128040001,0.899990022]},{"bufferView":1,"byteOffset":0,"componentType":5126,"count":2490,"type":"VEC3"},{"bufferView":2,"byteOffset":0,"componentType":5123,"count":12426,"type":"SCALAR"},{"bufferView":0,"byteOffset":29880,"componentType":5126,"count":2528,"type":"VEC3","min":[-0.370000005,-0.311300009,-0.369859993],"max":[0.36947,-0.0013,0.369859993]},{"bufferView":1,"byteOffset":29880,"componentType":5126,"count":2528,"type":"VEC3"},{"bufferView":2,"byteOffset":24852,"componentType":5123,"count":10554,"type":"SCALAR"}],"materials":[{"pbrMetallicRoughness":{"baseColorFactor":[0.227450982,0.227450982,0.23137255,1],"metallicFactor":0},"doubleSided":true}],"meshes":[{"primitives":[{"attributes":{"POSITION":0,"NORMAL":1},"mode":4,"indices":2,"material":0}]},{"primitives":[{"attributes":{"POSITION":3,"NORMAL":4},"mode":4,"indices":5,"material":0}]}],"nodes":[{"mesh":0},{"mesh":1},{"children":[0]},{"name":"MX-LP-Short-Stem v18","children":[1]}],"scenes":[{"nodes":[2,3]}]}