{"buffers":[{"uri":"Chicago-convex-15u.bin","byteLength":1687896}],"asset":{"version":"2.0","generator":"gltfpack 0.16"},"bufferViews":[{"buffer":0,"byteOffset":0,"byteLength":774768,"byteStride":12,"target":34962},{"buffer":0,"byteOffset":774768,"byteLength":774768,"byteStride":12,"target":34962},{"buffer":0,"byteOffset":1549536,"byteLength":138360,"target":34963}],"accessors":[{"bufferView":0,"byteOffset":0,"componentType":5126,"count":63396,"type":"VEC3","min":[-1.33146,-0.194890007,-0.804120004],"max":[1.33146,0.243849993,0.804120004]},{"bufferView":1,"byteOffset":0,"componentType":5126,"count":63396,"type":"VEC3"},{"bufferView":2,"byteOffset":0,"componentType":5123,"count":65928,"type":"SCALAR"},{"bufferView":0,"byteOffset":760752,"componentType":5126,"count":1168,"type":"VEC3","min":[-0.375,-0.34999001,-0.174989998],"max":[0.375,0.00999000017,0.174989998]},{"bufferView":1,"byteOffset":760752,"componentType":5126,"count":1168,"type":"VEC3"},{"bufferView":2,"byteOffset":131856,"componentType":5123,"count":3252,"type":"SCALAR"}],"materials":[{"pbrMetallicRoughness":{"baseColorFactor":[0.627451003,0.627451003,0.627451003,1],"metallicFactor":0},"doubleSided":true},{"pbrMetallicRoughness":{"baseColorFactor":[0.227450982,0.227450982,0.23137255,1],"metallicFactor":0},"doubleSided":true}],"meshes":[{"primitives":[{"attributes":{"POSITION":0,"NORMAL":1},"mode":4,"indices":2,"material":0}]},{"primitives":[{"attributes":{"POSITION":3,"NORMAL":4},"mode":4,"indices":5,"material":1}]}],"nodes":[{"mesh":0},{"mesh":1},{"children":[0]},{"name":"Choc-Stem v6","children":[1]}],"scenes":[{"nodes":[2,3]}]}