{"buffers":[{"uri":"Choc-KEA-1u-Homing.bin","byteLength":94944}],"asset":{"version":"2.0","generator":"gltfpack 0.16"},"bufferViews":[{"buffer":0,"byteOffset":0,"byteLength":34764,"byteStride":12,"target":34962},{"buffer":0,"byteOffset":34764,"byteLength":34764,"byteStride":12,"target":34962},{"buffer":0,"byteOffset":69528,"byteLength":25416,"target":34963}],"accessors":[{"bufferView":0,"byteOffset":0,"componentType":5126,"count":1565,"type":"VEC3","min":[-0.899990022,-0.135000005,-0.899999976],"max":[0.899990022,0.214379996,0.899990022]},{"bufferView":1,"byteOffset":0,"componentType":5126,"count":1565,"type":"VEC3"},{"bufferView":2,"byteOffset":0,"componentType":5123,"count":8964,"type":"SCALAR"},{"bufferView":0,"byteOffset":18780,"componentType":5126,"count":164,"type":"VEC3","min":[-0.224989995,0.109990001,0.324990004],"max":[0.224989995,0.209989995,0.47499001]},{"bufferView":1,"byteOffset":18780,"componentType":5126,"count":164,"type":"VEC3"},{"bufferView":2,"byteOffset":17928,"componentType":5123,"count":492,"type":"SCALAR"},{"bufferView":0,"byteOffset":20748,"componentType":5126,"count":1168,"type":"VEC3","min":[-0.375,-0.34999001,-0.174989998],"max":[0.375,0.00999000017,0.174989998]},{"bufferView":1,"byteOffset":20748,"componentType":5126,"count":1168,"type":"VEC3"},{"bufferView":2,"byteOffset":18912,"componentType":5123,"count":3252,"type":"SCALAR"}],"materials":[{"pbrMetallicRoughness":{"baseColorFactor":[0.517647088,0.517647088,0.517647088,1],"metallicFactor":0},"doubleSided":true},{"pbrMetallicRoughness":{"baseColorFactor":[0.627451003,0.627451003,0.627451003,1],"metallicFactor":0},"doubleSided":true},{"pbrMetallicRoughness":{"baseColorFactor":[0.227450982,0.227450982,0.23137255,1],"metallicFactor":0},"doubleSided":true}],"meshes":[{"primitives":[{"attributes":{"POSITION":0,"NORMAL":1},"mode":4,"indices":2,"material":0}]},{"primitives":[{"attributes":{"POSITION":3,"NORMAL":4},"mode":4,"indices":5,"material":1}]},{"primitives":[{"attributes":{"POSITION":6,"NORMAL":7},"mode":4,"indices":8,"material":2}]}],"nodes":[{"mesh":0},{"mesh":1},{"mesh":2},{"children":[0]},{"children":[1]},{"name":"Choc-Stem v5","children":[2]}],"scenes":[{"nodes":[3,4,5]}]}