{"buffers":[{"uri":"MX-Homing.bin","byteLength":130104}],"asset":{"version":"2.0","generator":"gltfpack 0.16"},"bufferViews":[{"buffer":0,"byteOffset":0,"byteLength":46368,"byteStride":12,"target":34962},{"buffer":0,"byteOffset":46368,"byteLength":46368,"byteStride":12,"target":34962},{"buffer":0,"byteOffset":92736,"byteLength":37368,"target":34963}],"accessors":[{"bufferView":0,"byteOffset":0,"componentType":5126,"count":952,"type":"VEC3","min":[-0.899990022,0.144989997,-0.899990022],"max":[0.899990022,0.569989979,0.899990022]},{"bufferView":1,"byteOffset":0,"componentType":5126,"count":952,"type":"VEC3"},{"bufferView":2,"byteOffset":0,"componentType":5123,"count":5700,"type":"SCALAR"},{"bufferView":0,"byteOffset":11424,"componentType":5126,"count":456,"type":"VEC3","min":[-0.224989995,0.569989979,0.425000012],"max":[0.224989995,0.629989982,0.574989974]},{"bufferView":1,"byteOffset":11424,"componentType":5126,"count":456,"type":"VEC3"},{"bufferView":2,"byteOffset":11400,"componentType":5123,"count":2472,"type":"SCALAR"},{"bufferView":0,"byteOffset":16896,"componentType":5126,"count":2456,"type":"VEC3","min":[-0.370000005,-0.469989985,-0.36985001],"max":[0.369430006,0.00999000017,0.36985001]},{"bufferView":1,"byteOffset":16896,"componentType":5126,"count":2456,"type":"VEC3"},{"bufferView":2,"byteOffset":16344,"componentType":5123,"count":10512,"type":"SCALAR"}],"materials":[{"pbrMetallicRoughness":{"baseColorFactor":[0.227450982,0.227450982,0.23137255,1],"metallicFactor":0},"doubleSided":true},{"pbrMetallicRoughness":{"baseColorFactor":[0.627451003,0.627451003,0.627451003,1],"metallicFactor":0},"doubleSided":true}],"meshes":[{"primitives":[{"attributes":{"POSITION":0,"NORMAL":1},"mode":4,"indices":2,"material":0}]},{"primitives":[{"attributes":{"POSITION":3,"NORMAL":4},"mode":4,"indices":5,"material":1}]},{"primitives":[{"attributes":{"POSITION":6,"NORMAL":7},"mode":4,"indices":8,"material":0}]}],"nodes":[{"mesh":0},{"mesh":1},{"mesh":2},{"children":[0]},{"children":[1]},{"name":"MX-LP-Stem v17","children":[2]}],"scenes":[{"nodes":[3,4,5]}]}