{"buffers":[{"uri":"MX_1u.bin","byteLength":114216}],"asset":{"version":"2.0","generator":"gltfpack 0.16"},"bufferViews":[{"buffer":0,"byteOffset":0,"byteLength":40896,"byteStride":12,"target":34962},{"buffer":0,"byteOffset":40896,"byteLength":40896,"byteStride":12,"target":34962},{"buffer":0,"byteOffset":81792,"byteLength":32424,"target":34963}],"accessors":[{"bufferView":0,"byteOffset":0,"componentType":5126,"count":952,"type":"VEC3","min":[-0.899990022,0.144989997,-0.899990022],"max":[0.899990022,0.569989979,0.899990022]},{"bufferView":1,"byteOffset":0,"componentType":5126,"count":952,"type":"VEC3"},{"bufferView":2,"byteOffset":0,"componentType":5123,"count":5700,"type":"SCALAR"},{"bufferView":0,"byteOffset":11424,"componentType":5126,"count":2456,"type":"VEC3","min":[-0.370000005,9.99999975e-06,-0.36985001],"max":[0.369430006,0.479990005,0.36985001]},{"bufferView":1,"byteOffset":11424,"componentType":5126,"count":2456,"type":"VEC3"},{"bufferView":2,"byteOffset":11400,"componentType":5123,"count":10512,"type":"SCALAR"}],"materials":[{"pbrMetallicRoughness":{"baseColorFactor":[0.227450982,0.227450982,0.23137255,1],"metallicFactor":0},"doubleSided":true}],"meshes":[{"primitives":[{"attributes":{"POSITION":0,"NORMAL":1},"mode":4,"indices":2,"material":0}]},{"primitives":[{"attributes":{"POSITION":3,"NORMAL":4},"mode":4,"indices":5,"material":0}]}],"nodes":[{"mesh":0},{"mesh":1},{"children":[0]},{"name":"MX-LP-Stem v17","children":[1]}],"scenes":[{"nodes":[2,3]}]}