{"buffers":[{"uri":"KAT_R4_1u.bin","byteLength":299064}],"asset":{"version":"2.0","generator":"gltfpack 0.16"},"bufferViews":[{"buffer":0,"byteOffset":0,"byteLength":131796,"byteStride":12,"target":34962},{"buffer":0,"byteOffset":131796,"byteLength":131796,"byteStride":12,"target":34962},{"buffer":0,"byteOffset":263592,"byteLength":35472,"target":34963}],"accessors":[{"bufferView":0,"byteOffset":0,"componentType":5126,"count":10983,"type":"VEC3","min":[-0.909619987,-0.00138999999,-0.917060018],"max":[0.910369992,1.05226004,0.909399986]},{"bufferView":1,"byteOffset":0,"componentType":5126,"count":10983,"type":"VEC3"},{"bufferView":2,"byteOffset":0,"componentType":5123,"count":17736,"type":"SCALAR"}],"materials":[{"pbrMetallicRoughness":{"baseColorFactor":[0.627451003,0.627451003,0.627451003,1],"metallicFactor":0},"doubleSided":true}],"meshes":[{"primitives":[{"attributes":{"POSITION":0,"NORMAL":1},"mode":4,"indices":2,"material":0}]}],"nodes":[{"mesh":0},{"children":[0]}],"scenes":[{"nodes":[1]}]}