{"buffers":[{"uri":"KAT_R2_1u.bin","byteLength":315876}],"asset":{"version":"2.0","generator":"gltfpack 0.16"},"bufferViews":[{"buffer":0,"byteOffset":0,"byteLength":139260,"byteStride":12,"target":34962},{"buffer":0,"byteOffset":139260,"byteLength":139260,"byteStride":12,"target":34962},{"buffer":0,"byteOffset":278520,"byteLength":37356,"target":34963}],"accessors":[{"bufferView":0,"byteOffset":0,"componentType":5126,"count":11605,"type":"VEC3","min":[-0.910000026,-0.00138999999,-0.917069972],"max":[0.910000026,1.04895997,0.909389973]},{"bufferView":1,"byteOffset":0,"componentType":5126,"count":11605,"type":"VEC3"},{"bufferView":2,"byteOffset":0,"componentType":5123,"count":18678,"type":"SCALAR"}],"materials":[{"pbrMetallicRoughness":{"baseColorFactor":[0.627451003,0.627451003,0.627451003,1],"metallicFactor":0},"doubleSided":true}],"meshes":[{"primitives":[{"attributes":{"POSITION":0,"NORMAL":1},"mode":4,"indices":2,"material":0}]}],"nodes":[{"mesh":0},{"children":[0]}],"scenes":[{"nodes":[1]}]}