{"buffers":[{"uri":"KAT_R3_1u.bin","byteLength":310944}],"asset":{"version":"2.0","generator":"gltfpack 0.16"},"bufferViews":[{"buffer":0,"byteOffset":0,"byteLength":136632,"byteStride":12,"target":34962},{"buffer":0,"byteOffset":136632,"byteLength":136632,"byteStride":12,"target":34962},{"buffer":0,"byteOffset":273264,"byteLength":37680,"target":34963}],"accessors":[{"bufferView":0,"byteOffset":0,"componentType":5126,"count":11386,"type":"VEC3","min":[-0.90982002,-0.00138999999,-0.917289972],"max":[0.910179973,0.901080012,0.909200013]},{"bufferView":1,"byteOffset":0,"componentType":5126,"count":11386,"type":"VEC3"},{"bufferView":2,"byteOffset":0,"componentType":5123,"count":18840,"type":"SCALAR"}],"materials":[{"pbrMetallicRoughness":{"baseColorFactor":[0.627451003,0.627451003,0.627451003,1],"metallicFactor":0},"doubleSided":true}],"meshes":[{"primitives":[{"attributes":{"POSITION":0,"NORMAL":1},"mode":4,"indices":2,"material":0}]}],"nodes":[{"mesh":0},{"children":[0]}],"scenes":[{"nodes":[1]}]}