{"buffers":[{"uri":"KAT_R1_1u.bin","byteLength":305436}],"asset":{"version":"2.0","generator":"gltfpack 0.16"},"bufferViews":[{"buffer":0,"byteOffset":0,"byteLength":134820,"byteStride":12,"target":34962},{"buffer":0,"byteOffset":134820,"byteLength":134820,"byteStride":12,"target":34962},{"buffer":0,"byteOffset":269640,"byteLength":35796,"target":34963}],"accessors":[{"bufferView":0,"byteOffset":0,"componentType":5126,"count":11235,"type":"VEC3","min":[-0.910000026,-0.00138999999,-0.91602999],"max":[0.910000026,1.15031004,0.909449995]},{"bufferView":1,"byteOffset":0,"componentType":5126,"count":11235,"type":"VEC3"},{"bufferView":2,"byteOffset":0,"componentType":5123,"count":17898,"type":"SCALAR"}],"materials":[{"pbrMetallicRoughness":{"baseColorFactor":[0.627451003,0.627451003,0.627451003,1],"metallicFactor":0},"doubleSided":true}],"meshes":[{"primitives":[{"attributes":{"POSITION":0,"NORMAL":1},"mode":4,"indices":2,"material":0}]}],"nodes":[{"mesh":0},{"children":[0]}],"scenes":[{"nodes":[1]}]}