{"buffers":[{"uri":"Dygma-Defy-MX-3.bin","byteLength":567576}],"asset":{"version":"2.0","generator":"gltfpack 0.16"},"bufferViews":[{"buffer":0,"byteOffset":0,"byteLength":255000,"byteStride":12,"target":34962},{"buffer":0,"byteOffset":255000,"byteLength":255000,"byteStride":12,"target":34962},{"buffer":0,"byteOffset":510000,"byteLength":57576,"target":34963}],"accessors":[{"bufferView":0,"byteOffset":0,"componentType":5126,"count":21250,"type":"VEC3","min":[-1.11567998,-1.33125997,0.385129988],"max":[1.41030002,1.11101997,1.24065006]},{"bufferView":1,"byteOffset":0,"componentType":5126,"count":21250,"type":"VEC3"},{"bufferView":2,"byteOffset":0,"componentType":5123,"count":28788,"type":"SCALAR"}],"materials":[{"pbrMetallicRoughness":{"baseColorFactor":[0.627451003,0.627451003,0.627451003,1],"metallicFactor":0},"doubleSided":true}],"meshes":[{"primitives":[{"attributes":{"POSITION":0,"NORMAL":1},"mode":4,"indices":2,"material":0}]}],"nodes":[{"mesh":0},{"children":[0]}],"scenes":[{"nodes":[1]}]}