{"buffers":[{"uri":"Dygma-Defy-MX-1-R.bin","byteLength":383664}],"asset":{"version":"2.0","generator":"gltfpack 0.16"},"bufferViews":[{"buffer":0,"byteOffset":0,"byteLength":171144,"byteStride":12,"target":34962},{"buffer":0,"byteOffset":171144,"byteLength":171144,"byteStride":12,"target":34962},{"buffer":0,"byteOffset":342288,"byteLength":41376,"target":34963}],"accessors":[{"bufferView":0,"byteOffset":0,"componentType":5126,"count":14262,"type":"VEC3","min":[-1.37635005,-0.880200028,0.385069996],"max":[1.35583997,0.900049984,1.22645998]},{"bufferView":1,"byteOffset":0,"componentType":5126,"count":14262,"type":"VEC3"},{"bufferView":2,"byteOffset":0,"componentType":5123,"count":20688,"type":"SCALAR"}],"materials":[{"pbrMetallicRoughness":{"baseColorFactor":[0.627451003,0.627451003,0.627451003,1],"metallicFactor":0},"doubleSided":true}],"meshes":[{"primitives":[{"attributes":{"POSITION":0,"NORMAL":1},"mode":4,"indices":2,"material":0}]}],"nodes":[{"mesh":0},{"children":[0]}],"scenes":[{"nodes":[1]}]}