{"buffers":[{"uri":"Dygma-Defy-Choc+MX-R.bin","byteLength":905364}],"asset":{"version":"2.0","generator":"gltfpack 0.16"},"bufferViews":[{"buffer":0,"byteOffset":0,"byteLength":409920,"byteStride":12,"target":34962},{"buffer":0,"byteOffset":409920,"byteLength":409920,"byteStride":12,"target":34962},{"buffer":0,"byteOffset":819840,"byteLength":85524,"target":34963}],"accessors":[{"bufferView":0,"byteOffset":0,"componentType":5126,"count":34160,"type":"VEC3","min":[-1.68192995,-1.61094999,0.0700000003],"max":[1.89244998,2.05441999,0.80339998]},{"bufferView":1,"byteOffset":0,"componentType":5126,"count":34160,"type":"VEC3"},{"bufferView":2,"byteOffset":0,"componentType":5123,"count":42762,"type":"SCALAR"}],"materials":[{"pbrMetallicRoughness":{"baseColorFactor":[0.627451003,0.627451003,0.627451003,1],"metallicFactor":0},"doubleSided":true}],"meshes":[{"primitives":[{"attributes":{"POSITION":0,"NORMAL":1},"mode":4,"indices":2,"material":0}]}],"nodes":[{"mesh":0},{"children":[0]}],"scenes":[{"nodes":[1]}]}