{"buffers":[{"uri":"Dygma-Defy-Choc-3.bin","byteLength":688704}],"asset":{"version":"2.0","generator":"gltfpack 0.16"},"bufferViews":[{"buffer":0,"byteOffset":0,"byteLength":314316,"byteStride":12,"target":34962},{"buffer":0,"byteOffset":314316,"byteLength":314316,"byteStride":12,"target":34962},{"buffer":0,"byteOffset":628632,"byteLength":60072,"target":34963}],"accessors":[{"bufferView":0,"byteOffset":0,"componentType":5126,"count":26193,"type":"VEC3","min":[-1.14818001,-1.26877999,0.0699900016],"max":[1.46976995,1.24839997,0.707000017]},{"bufferView":1,"byteOffset":0,"componentType":5126,"count":26193,"type":"VEC3"},{"bufferView":2,"byteOffset":0,"componentType":5123,"count":30036,"type":"SCALAR"}],"materials":[{"pbrMetallicRoughness":{"baseColorFactor":[0.627451003,0.627451003,0.627451003,1],"metallicFactor":0},"doubleSided":true}],"meshes":[{"primitives":[{"attributes":{"POSITION":0,"NORMAL":1},"mode":4,"indices":2,"material":0}]}],"nodes":[{"mesh":0},{"children":[0]}],"scenes":[{"nodes":[1]}]}