{"buffers":[{"uri":"Dygma-Defy-MX-2.bin","byteLength":457116}],"asset":{"version":"2.0","generator":"gltfpack 0.16"},"bufferViews":[{"buffer":0,"byteOffset":0,"byteLength":205032,"byteStride":12,"target":34962},{"buffer":0,"byteOffset":205032,"byteLength":205032,"byteStride":12,"target":34962},{"buffer":0,"byteOffset":410064,"byteLength":47052,"target":34963}],"accessors":[{"bufferView":0,"byteOffset":0,"componentType":5126,"count":17086,"type":"VEC3","min":[-0.933659971,-0.969439983,0.385109991],"max":[1.12674999,0.952989995,1.23022997]},{"bufferView":1,"byteOffset":0,"componentType":5126,"count":17086,"type":"VEC3"},{"bufferView":2,"byteOffset":0,"componentType":5123,"count":23526,"type":"SCALAR"}],"materials":[{"pbrMetallicRoughness":{"baseColorFactor":[0.627451003,0.627451003,0.627451003,1],"metallicFactor":0},"doubleSided":true}],"meshes":[{"primitives":[{"attributes":{"POSITION":0,"NORMAL":1},"mode":4,"indices":2,"material":0}]}],"nodes":[{"mesh":0},{"children":[0]}],"scenes":[{"nodes":[1]}]}