{"buffers":[{"uri":"Dygma-Defy-MX-4.bin","byteLength":611388}],"asset":{"version":"2.0","generator":"gltfpack 0.16"},"bufferViews":[{"buffer":0,"byteOffset":0,"byteLength":276444,"byteStride":12,"target":34962},{"buffer":0,"byteOffset":276444,"byteLength":276444,"byteStride":12,"target":34962},{"buffer":0,"byteOffset":552888,"byteLength":58500,"target":34963}],"accessors":[{"bufferView":0,"byteOffset":0,"componentType":5126,"count":23037,"type":"VEC3","min":[-1.33432996,-1.37232995,0.385030001],"max":[1.27435005,1.44294,1.24163997]},{"bufferView":1,"byteOffset":0,"componentType":5126,"count":23037,"type":"VEC3"},{"bufferView":2,"byteOffset":0,"componentType":5123,"count":29250,"type":"SCALAR"}],"materials":[{"pbrMetallicRoughness":{"baseColorFactor":[0.627451003,0.627451003,0.627451003,1],"metallicFactor":0},"doubleSided":true}],"meshes":[{"primitives":[{"attributes":{"POSITION":0,"NORMAL":1},"mode":4,"indices":2,"material":0}]}],"nodes":[{"mesh":0},{"children":[0]}],"scenes":[{"nodes":[1]}]}