{"buffers":[{"uri":"Dygma-Defy-Choc-2.bin","byteLength":546432}],"asset":{"version":"2.0","generator":"gltfpack 0.16"},"bufferViews":[{"buffer":0,"byteOffset":0,"byteLength":248952,"byteStride":12,"target":34962},{"buffer":0,"byteOffset":248952,"byteLength":248952,"byteStride":12,"target":34962},{"buffer":0,"byteOffset":497904,"byteLength":48528,"target":34963}],"accessors":[{"bufferView":0,"byteOffset":0,"componentType":5126,"count":20746,"type":"VEC3","min":[-0.926919997,-1.03076994,0.0699900016],"max":[1.17583001,0.917620003,0.706040025]},{"bufferView":1,"byteOffset":0,"componentType":5126,"count":20746,"type":"VEC3"},{"bufferView":2,"byteOffset":0,"componentType":5123,"count":24264,"type":"SCALAR"}],"materials":[{"pbrMetallicRoughness":{"baseColorFactor":[0.627451003,0.627451003,0.627451003,1],"metallicFactor":0},"doubleSided":true}],"meshes":[{"primitives":[{"attributes":{"POSITION":0,"NORMAL":1},"mode":4,"indices":2,"material":0}]}],"nodes":[{"mesh":0},{"children":[0]}],"scenes":[{"nodes":[1]}]}