{"buffers":[{"uri":"Dygma-Defy-Choc+MX.bin","byteLength":907140}],"asset":{"version":"2.0","generator":"gltfpack 0.16"},"bufferViews":[{"buffer":0,"byteOffset":0,"byteLength":410688,"byteStride":12,"target":34962},{"buffer":0,"byteOffset":410688,"byteLength":410688,"byteStride":12,"target":34962},{"buffer":0,"byteOffset":821376,"byteLength":85764,"target":34963}],"accessors":[{"bufferView":0,"byteOffset":0,"componentType":5126,"count":34224,"type":"VEC3","min":[-1.89244998,-1.61094999,0.0700000003],"max":[1.68192995,2.05441999,0.80339998]},{"bufferView":1,"byteOffset":0,"componentType":5126,"count":34224,"type":"VEC3"},{"bufferView":2,"byteOffset":0,"componentType":5123,"count":42882,"type":"SCALAR"}],"materials":[{"pbrMetallicRoughness":{"baseColorFactor":[0.627451003,0.627451003,0.627451003,1],"metallicFactor":0},"doubleSided":true}],"meshes":[{"primitives":[{"attributes":{"POSITION":0,"NORMAL":1},"mode":4,"indices":2,"material":0}]}],"nodes":[{"mesh":0},{"children":[0]}],"scenes":[{"nodes":[1]}]}