{"buffers":[{"uri":"Dygma-Defy-Choc-1-R.bin","byteLength":264888}],"asset":{"version":"2.0","generator":"gltfpack 0.16"},"bufferViews":[{"buffer":0,"byteOffset":0,"byteLength":118968,"byteStride":12,"target":34962},{"buffer":0,"byteOffset":118968,"byteLength":118968,"byteStride":12,"target":34962},{"buffer":0,"byteOffset":237936,"byteLength":26952,"target":34963}],"accessors":[{"bufferView":0,"byteOffset":0,"componentType":5126,"count":9914,"type":"VEC3","min":[-1.03056002,-0.897509992,0.0699900016],"max":[1.57975996,0.902589977,0.706059992]},{"bufferView":1,"byteOffset":0,"componentType":5126,"count":9914,"type":"VEC3"},{"bufferView":2,"byteOffset":0,"componentType":5123,"count":13476,"type":"SCALAR"}],"materials":[{"pbrMetallicRoughness":{"baseColorFactor":[0.627451003,0.627451003,0.627451003,1],"metallicFactor":0},"doubleSided":true}],"meshes":[{"primitives":[{"attributes":{"POSITION":0,"NORMAL":1},"mode":4,"indices":2,"material":0}]}],"nodes":[{"mesh":0},{"children":[0]}],"scenes":[{"nodes":[1]}]}