{"buffers":[{"uri":"Dygma-Defy-Choc-1.bin","byteLength":266664}],"asset":{"version":"2.0","generator":"gltfpack 0.16"},"bufferViews":[{"buffer":0,"byteOffset":0,"byteLength":119736,"byteStride":12,"target":34962},{"buffer":0,"byteOffset":119736,"byteLength":119736,"byteStride":12,"target":34962},{"buffer":0,"byteOffset":239472,"byteLength":27192,"target":34963}],"accessors":[{"bufferView":0,"byteOffset":0,"componentType":5126,"count":9978,"type":"VEC3","min":[-1.57975996,-0.897509992,0.0699900016],"max":[1.03056002,0.902589977,0.706059992]},{"bufferView":1,"byteOffset":0,"componentType":5126,"count":9978,"type":"VEC3"},{"bufferView":2,"byteOffset":0,"componentType":5123,"count":13596,"type":"SCALAR"}],"materials":[{"pbrMetallicRoughness":{"baseColorFactor":[0.627451003,0.627451003,0.627451003,1],"metallicFactor":0},"doubleSided":true}],"meshes":[{"primitives":[{"attributes":{"POSITION":0,"NORMAL":1},"mode":4,"indices":2,"material":0}]}],"nodes":[{"mesh":0},{"children":[0]}],"scenes":[{"nodes":[1]}]}